0
SECTION
2
HEADER
9
$INSUNITS
70
4
9
$ACADVER
1
AC1014
9
$HANDSEED
5
FFFF
0
ENDSEC
0
SECTION
2
TABLES
0
TABLE
2
VPORT
5
8
100
AcDbSymbolTable
0
ENDTAB
0
TABLE
2
LTYPE
5
5
100
AcDbSymbolTable
0
LTYPE
5
14
100
AcDbSymbolTableRecord
100
AcDbLinetypeTableRecord
2
BYBLOCK
70
0
0
LTYPE
5
15
100
AcDbSymbolTableRecord
100
AcDbLinetypeTableRecord
2
BYLAYER
70
0
0
ENDTAB
0
TABLE
2
LAYER
5
2
100
AcDbSymbolTable
70
2
0
LAYER
5
50
100
AcDbSymbolTableRecord
100
AcDbLayerTableRecord
2
0
70
0
6
CONTINUOUS
0
ENDTAB
0
TABLE
2
STYLE
5
3
100
AcDbSymbolTable
70
1
0
STYLE
5
11
100
AcDbSymbolTableRecord
100
AcDbTextStyleTableRecord
2
STANDARD
70
0
0
ENDTAB
0
TABLE
2
VIEW
5
6
100
AcDbSymbolTable
70
0
0
ENDTAB
0
TABLE
2
UCS
5
7
100
AcDbSymbolTable
70
0
0
ENDTAB
0
TABLE
2
APPID
5
9
100
AcDbSymbolTable
70
2
0
APPID
5
12
100
AcDbSymbolTableRecord
100
AcDbRegAppTableRecord
2
ACAD
70
0
0
ENDTAB
0
TABLE
2
DIMSTYLE
5
A
100
AcDbSymbolTable
70
1
0
ENDTAB
0
TABLE
2
BLOCK_RECORD
5
1
100
AcDbSymbolTable
70
1
0
BLOCK_RECORD
5
1F
100
AcDbSymbolTableRecord
100
AcDbBlockTableRecord
2
*MODEL_SPACE
0
BLOCK_RECORD
5
1B
100
AcDbSymbolTableRecord
100
AcDbBlockTableRecord
2
*PAPER_SPACE
0
ENDTAB
0
ENDSEC
0
SECTION
2
BLOCKS
0
BLOCK
5
20
100
AcDbEntity
100
AcDbBlockBegin
2
*MODEL_SPACE
0
ENDBLK
5
21
100
AcDbEntity
100
AcDbBlockEnd
0
BLOCK
5
1C
100
AcDbEntity
100
AcDbBlockBegin
2
*PAPER_SPACE
0
ENDBLK
5
1D
100
AcDbEntity
100
AcDbBlockEnd
0
ENDSEC
0
SECTION
2
ENTITIES
0
LWPOLYLINE
5
100
100
AcDbEntity
8
0
100
AcDbPolyline
90
67
70
1
43
0.0
10
0
20
46.170000000000002
10
6.0000000000000009
20
46.170000000000002
10
6.0000000000000009
20
19.829999999999998
10
0
20
19.829999999999998
10
0
20
3.0000000000000004
10
45.75
20
3.0000000000000004
10
45.75
20
9
10
72.090000000000003
20
9
10
72.090000000000003
20
3.0000000000000004
10
98.430000000000035
20
3.0000000000000004
10
98.430000000000035
20
9
10
124.77000000000001
20
9
10
124.77000000000001
20
3.0000000000000004
10
151.11000000000001
20
3.0000000000000004
10
151.11000000000001
20
9
10
177.45000000000005
20
9
10
177.45000000000005
20
3.0000000000000004
10
203.79000000000002
20
3.0000000000000004
10
203.79000000000002
20
9
10
230.13000000000002
20
9
10
230.13000000000002
20
3.0000000000000004
10
256.47000000000003
20
3.0000000000000004
10
256.47000000000003
20
9
10
282.81
20
9
10
282.81
20
3.0000000000000004
10
309.14999999999998
20
3.0000000000000004
10
309.14999999999998
20
9
10
335.49000000000001
20
9
10
335.49000000000001
20
3.0000000000000004
10
361.82999999999998
20
3.0000000000000004
10
361.82999999999998
20
9
10
388.17000000000007
20
9
10
388.17000000000007
20
3.0000000000000004
10
414.50999999999999
20
3.0000000000000004
10
414.50999999999999
20
9
10
440.85000000000008
20
9
10
440.85000000000008
20
3.0000000000000004
10
467.19
20
3.0000000000000004
10
467.19
20
9
10
493.53000000000003
20
9
10
493.53000000000003
20
3.0000000000000004
10
519.87
20
3.0000000000000004
10
519.87
20
9
10
546.21000000000004
20
9
10
546.21000000000004
20
3.0000000000000004
10
572.54999999999995
20
3.0000000000000004
10
572.54999999999995
20
9
10
598.88999999999999
20
9
10
598.88999999999999
20
3.0000000000000004
10
625.23000000000002
20
3.0000000000000004
10
625.23000000000002
20
9
10
651.57000000000028
20
9
10
651.57000000000028
20
3.0000000000000004
10
677.90999999999997
20
3.0000000000000004
10
677.90999999999997
20
9
10
704.25
20
9
10
704.25
20
3.0000000000000004
10
730.59000000000015
20
3.0000000000000004
10
750
20
3.0000000000000004
10
750
20
19.829999999999998
10
744
20
19.829999999999998
10
744
20
46.170000000000002
10
750
20
46.170000000000002
10
750
20
63.000000000000007
10
684
20
63.000000000000007
10
66
20
63.000000000000007
10
0
20
63.000000000000007
0
LWPOLYLINE
5
101
100
AcDbEntity
8
0
100
AcDbPolyline
90
38
70
1
43
0.0
10
840.81000000000006
20
3.0000000000000004
10
840.81000000000006
20
9
10
867.15000000000032
20
9
10
867.15000000000032
20
3.0000000000000004
10
893.49000000000001
20
3.0000000000000004
10
893.49000000000001
20
9
10
919.83000000000004
20
9
10
919.83000000000004
20
3.0000000000000004
10
946.17000000000007
20
3.0000000000000004
10
946.17000000000007
20
9
10
972.51000000000022
20
9
10
972.51000000000022
20
3.0000000000000004
10
998.85000000000002
20
3.0000000000000004
10
998.85000000000002
20
9
10
1025.1900000000001
20
9
10
1025.1900000000001
20
3.0000000000000004
10
1051.53
20
3.0000000000000004
10
1051.53
20
9
10
1077.8699999999999
20
9
10
1077.8699999999999
20
3.0000000000000004
10
1104.21
20
3.0000000000000004
10
1107
20
3.0000000000000004
10
1107
20
19.829999999999998
10
1113
20
19.829999999999998
10
1113
20
46.170000000000002
10
1107
20
46.170000000000002
10
1107
20
63.000000000000007
10
1047
20
63.000000000000007
10
759
20
63.000000000000007
10
759
20
46.170000000000002
10
753
20
46.170000000000002
10
753
20
19.829999999999998
10
759
20
19.829999999999998
10
759
20
3.0000000000000004
10
788.13
20
3.0000000000000004
10
788.13
20
9
10
814.47000000000003
20
9
10
814.47000000000003
20
3.0000000000000004
0
LWPOLYLINE
5
102
100
AcDbEntity
8
0
100
AcDbPolyline
90
66
70
1
43
0.0
10
572.54999999999995
20
72
10
598.88999999999999
20
72
10
598.88999999999999
20
66
10
625.23000000000002
20
66
10
625.23000000000002
20
72
10
651.57000000000028
20
72
10
651.57000000000028
20
66
10
677.90999999999997
20
66
10
677.90999999999997
20
72
10
704.25
20
72
10
704.25
20
66
10
730.59000000000015
20
66
10
750
20
66
10
750
20
82.829999999999998
10
744
20
82.829999999999998
10
744
20
109.17000000000002
10
750
20
109.17000000000002
10
750
20
126.00000000000001
10
66
20
126.00000000000001
10
0
20
126.00000000000001
10
0
20
109.17000000000002
10
6.0000000000000009
20
109.17000000000002
10
6.0000000000000009
20
82.829999999999998
10
0
20
82.829999999999998
10
0
20
66
10
45.75
20
66
10
45.75
20
72
10
72.090000000000003
20
72
10
72.090000000000003
20
66
10
98.430000000000035
20
66
10
98.430000000000035
20
72
10
124.77000000000001
20
72
10
124.77000000000001
20
66
10
151.11000000000001
20
66
10
151.11000000000001
20
72
10
177.45000000000005
20
72
10
177.45000000000005
20
66
10
203.79000000000002
20
66
10
203.79000000000002
20
72
10
230.13000000000002
20
72
10
230.13000000000002
20
66
10
256.47000000000003
20
66
10
256.47000000000003
20
72
10
282.81
20
72
10
282.81
20
66
10
309.14999999999998
20
66
10
309.14999999999998
20
72
10
335.49000000000001
20
72
10
335.49000000000001
20
66
10
361.82999999999998
20
66
10
361.82999999999998
20
72
10
388.17000000000007
20
72
10
388.17000000000007
20
66
10
414.50999999999999
20
66
10
414.50999999999999
20
72
10
440.85000000000008
20
72
10
440.85000000000008
20
66
10
467.19
20
66
10
467.19
20
72
10
493.53000000000003
20
72
10
493.53000000000003
20
66
10
519.87
20
66
10
519.87
20
72
10
546.21000000000004
20
72
10
546.21000000000004
20
66
10
572.54999999999995
20
66
0
LINE
5
103
100
AcDbEntity
8
0
100
AcDbLine
10
750
20
109.17000000000002
30
0
11
750
21
126.00000000000001
31
0
0
LWPOLYLINE
5
104
100
AcDbEntity
8
0
100
AcDbPolyline
90
37
70
1
43
0.0
10
1107
20
109.17000000000002
10
1107
20
126.00000000000001
10
759
20
126.00000000000001
10
759
20
109.17000000000002
10
753
20
109.17000000000002
10
753
20
82.829999999999998
10
759
20
82.829999999999998
10
759
20
66
10
788.13
20
66
10
788.13
20
72
10
814.47000000000003
20
72
10
814.47000000000003
20
66
10
840.81000000000006
20
66
10
840.81000000000006
20
72
10
867.15000000000032
20
72
10
867.15000000000032
20
66
10
893.49000000000001
20
66
10
893.49000000000001
20
72
10
919.83000000000004
20
72
10
919.83000000000004
20
66
10
946.17000000000007
20
66
10
946.17000000000007
20
72
10
972.51000000000022
20
72
10
972.51000000000022
20
66
10
998.85000000000002
20
66
10
998.85000000000002
20
72
10
1025.1900000000001
20
72
10
1025.1900000000001
20
66
10
1051.53
20
66
10
1051.53
20
72
10
1077.8699999999999
20
72
10
1077.8699999999999
20
66
10
1104.21
20
66
10
1107
20
66
10
1107
20
82.829999999999998
10
1113
20
82.829999999999998
10
1113
20
109.17000000000002
0
LWPOLYLINE
5
105
100
AcDbEntity
8
0
100
AcDbPolyline
90
160
70
1
43
0.0
10
1116
20
143.49000000000001
10
1122
20
143.49000000000001
10
1122
20
117.15000000000003
10
1116
20
117.15000000000003
10
1116
20
90.810000000000016
10
1122
20
90.810000000000016
10
1122
20
64.469999999999999
10
1116
20
64.469999999999999
10
1116
20
38.13000000000001
10
1122
20
38.13000000000001
10
1122
20
11.790000000000006
10
1122
20
9
10
1161.75
20
9
10
1161.75
20
3.0000000000000004
10
1188.0899999999999
20
3.0000000000000004
10
1188.0899999999999
20
9
10
1214.4300000000001
20
9
10
1214.4300000000001
20
3.0000000000000004
10
1240.77
20
3.0000000000000004
10
1240.77
20
9
10
1267.1099999999999
20
9
10
1267.1099999999999
20
3.0000000000000004
10
1293.45
20
3.0000000000000004
10
1293.45
20
9
10
1319.7900000000004
20
9
10
1319.7900000000004
20
3.0000000000000004
10
1346.1300000000006
20
3.0000000000000004
10
1346.1300000000006
20
9
10
1372.4700000000005
20
9
10
1372.4700000000005
20
3.0000000000000004
10
1398.8099999999999
20
3.0000000000000004
10
1398.8099999999999
20
9
10
1425.1500000000001
20
9
10
1425.1500000000001
20
3.0000000000000004
10
1451.49
20
3.0000000000000004
10
1451.49
20
9
10
1477.8299999999999
20
9
10
1477.8299999999999
20
3.0000000000000004
10
1504.1700000000001
20
3.0000000000000004
10
1504.1700000000001
20
9
10
1530.5100000000002
20
9
10
1530.5100000000002
20
3.0000000000000004
10
1556.8499999999999
20
3.0000000000000004
10
1556.8499999999999
20
9
10
1583.1900000000001
20
9
10
1583.1900000000001
20
3.0000000000000004
10
1609.53
20
3.0000000000000004
10
1609.53
20
9
10
1635.8699999999999
20
9
10
1635.8699999999999
20
3.0000000000000004
10
1662.21
20
3.0000000000000004
10
1662.21
20
9
10
1688.5500000000004
20
9
10
1688.5500000000004
20
3.0000000000000004
10
1714.8900000000006
20
3.0000000000000004
10
1714.8900000000006
20
9
10
1741.2300000000005
20
9
10
1741.2300000000005
20
3.0000000000000004
10
1767.5700000000006
20
3.0000000000000004
10
1767.5700000000006
20
9
10
1793.9100000000008
20
9
10
1793.9100000000008
20
3.0000000000000004
10
1820.25
20
3.0000000000000004
10
1820.25
20
9
10
1846.5899999999999
20
9
10
1860
20
9
10
1860
20
38.13000000000001
10
1866.0000000000002
20
38.13000000000001
10
1866.0000000000002
20
64.469999999999999
10
1860
20
64.469999999999999
10
1860
20
90.810000000000016
10
1866.0000000000002
20
90.810000000000016
10
1866.0000000000002
20
117.15000000000003
10
1860
20
117.15000000000003
10
1860
20
143.49000000000001
10
1866.0000000000002
20
143.49000000000001
10
1866.0000000000002
20
169.83000000000001
10
1860
20
169.83000000000001
10
1860
20
196.17000000000002
10
1866.0000000000002
20
196.17000000000002
10
1866.0000000000002
20
222.51000000000002
10
1860
20
222.51000000000002
10
1860
20
248.85000000000002
10
1866.0000000000002
20
248.85000000000002
10
1866.0000000000002
20
275.19
10
1860
20
275.19
10
1860
20
301.52999999999997
10
1866.0000000000002
20
301.52999999999997
10
1866.0000000000002
20
327.87
10
1860
20
327.87
10
1860
20
354.20999999999998
10
1860
20
357
10
1820.25
20
357
10
1820.25
20
363.00000000000006
10
1793.9100000000008
20
363.00000000000006
10
1793.9100000000008
20
357
10
1767.5700000000006
20
357
10
1767.5700000000006
20
363.00000000000006
10
1741.2300000000005
20
363.00000000000006
10
1741.2300000000005
20
357
10
1714.8900000000006
20
357
10
1714.8900000000006
20
363.00000000000006
10
1688.5500000000004
20
363.00000000000006
10
1688.5500000000004
20
357
10
1662.21
20
357
10
1662.21
20
363.00000000000006
10
1635.8699999999999
20
363.00000000000006
10
1635.8699999999999
20
357
10
1609.53
20
357
10
1609.53
20
363.00000000000006
10
1583.1900000000001
20
363.00000000000006
10
1583.1900000000001
20
357
10
1556.8499999999999
20
357
10
1556.8499999999999
20
363.00000000000006
10
1530.5100000000002
20
363.00000000000006
10
1530.5100000000002
20
357
10
1504.1700000000001
20
357
10
1504.1700000000001
20
363.00000000000006
10
1477.8299999999999
20
363.00000000000006
10
1477.8299999999999
20
357
10
1451.49
20
357
10
1451.49
20
363.00000000000006
10
1425.1500000000001
20
363.00000000000006
10
1425.1500000000001
20
357
10
1398.8099999999999
20
357
10
1398.8099999999999
20
363.00000000000006
10
1372.4700000000005
20
363.00000000000006
10
1372.4700000000005
20
357
10
1346.1300000000006
20
357
10
1346.1300000000006
20
363.00000000000006
10
1319.7900000000004
20
363.00000000000006
10
1319.7900000000004
20
357
10
1293.45
20
357
10
1293.45
20
363.00000000000006
10
1267.1099999999999
20
363.00000000000006
10
1267.1099999999999
20
357
10
1240.77
20
357
10
1240.77
20
363.00000000000006
10
1214.4300000000001
20
363.00000000000006
10
1214.4300000000001
20
357
10
1188.0899999999999
20
357
10
1188.0899999999999
20
363.00000000000006
10
1161.75
20
363.00000000000006
10
1161.75
20
357
10
1135.4100000000001
20
357
10
1122
20
357
10
1122
20
327.87
10
1116
20
327.87
10
1116
20
301.52999999999997
10
1122
20
301.52999999999997
10
1122
20
275.19
10
1116
20
275.19
10
1116
20
248.85000000000002
10
1122
20
248.85000000000002
10
1122
20
222.51000000000002
10
1116
20
222.51000000000002
10
1116
20
196.17000000000002
10
1122
20
196.17000000000002
10
1122
20
169.83000000000001
10
1116
20
169.83000000000001
0
LWPOLYLINE
5
106
100
AcDbEntity
8
0
100
AcDbPolyline
90
4
70
1
43
0.0
10
976.67468245269447
20
82.5
10
998.32531754730553
20
82.5
42
0.054781231122150373
10
999.4242400177119
20
85
10
975.57575998228822
20
85
42
0.054781231122192679
0
LINE
5
107
100
AcDbEntity
8
0
100
AcDbLine
10
999.4242400177119
20
85
30
0
11
975.57575998228822
21
85
31
0
0
LWPOLYLINE
5
108
100
AcDbEntity
8
0
100
AcDbPolyline
90
2
70
1
43
0.0
10
978.57321446432138
20
80
10
996.42678553567862
20
80
0
LWPOLYLINE
5
109
100
AcDbEntity
8
0
100
AcDbPolyline
90
2
70
1
43
0.0
10
975.57575998228822
20
92.5
10
999.4242400177119
20
92.5
0
LINE
5
110
100
AcDbEntity
8
0
100
AcDbLine
10
1000
20
90
30
0
11
999.93796487762484
21
89.993796487762481
31
0
0
LINE
5
111
100
AcDbEntity
8
0
100
AcDbLine
10
1000
20
76.25
30
0
11
1000
21
77.5
31
0
0
LWPOLYLINE
5
112
100
AcDbEntity
8
0
100
AcDbPolyline
90
2
70
1
43
0.0
10
996.42678553567862
20
97.5
10
978.57321446432138
20
97.5
0
LINE
5
113
100
AcDbEntity
8
0
100
AcDbLine
10
999.93734296383263
20
90
30
0
11
975.06265703616748
21
90
31
0
0
LWPOLYLINE
5
114
100
AcDbEntity
8
0
100
AcDbPolyline
90
2
70
1
43
0.0
10
975.06265703616748
20
87.5
10
999.93734296383263
20
87.5
0
LINE
5
115
100
AcDbEntity
8
0
100
AcDbLine
10
998.32531754730553
20
95
30
0
11
976.67468245269447
21
95
31
0
0
LINE
5
116
100
AcDbEntity
8
0
100
AcDbLine
10
976.67468245269447
20
82.5
30
0
11
998.32531754730553
21
82.5
31
0
0
ARC
5
117
100
AcDbEntity
8
0
100
AcDbCircle
10
987.5
20
88.75
30
0
40
12.500000000000039
210
0
220
-0
230
1
100
AcDbArc
50
44.427004000805532
51
64.158067236832338
0
ARC
5
118
100
AcDbEntity
8
0
100
AcDbCircle
10
987.5
20
88.75
30
0
40
12.500000000000039
210
0
220
0
230
1
100
AcDbArc
50
150.00000000000011
51
162.54239687627788
0
LINE
5
119
100
AcDbEntity
8
0
100
AcDbLine
10
976.67468245269447
20
95
30
0
11
998.32531754730553
21
95
31
0
0
ARC
5
120
100
AcDbEntity
8
0
100
AcDbCircle
10
987.5
20
88.75
30
0
40
12.500000000000039
210
0
220
0
230
1
100
AcDbArc
50
224.42700400080551
51
244.15806723683232
0
LINE
5
121
100
AcDbEntity
8
0
100
AcDbLine
10
982.05137632057415
20
100
30
0
11
992.94862367942596
21
99.999999999999986
31
0
0
LINE
5
122
100
AcDbEntity
8
0
100
AcDbLine
10
982.05137632057404
20
77.500000000000014
30
0
11
992.94862367942596
21
77.5
31
0
0
ARC
5
123
100
AcDbEntity
8
0
100
AcDbCircle
10
987.5
20
88.75
30
0
40
12.499999999999773
210
0
220
0
230
1
100
AcDbArc
50
174.26082952273319
51
185.73917047726684
0
ARC
5
124
100
AcDbEntity
8
0
100
AcDbCircle
10
987.5
20
88.75
30
0
40
12.500000000000068
210
0
220
0
230
1
100
AcDbArc
50
295.84193276316762
51
315.57299599919452
0
ARC
5
125
100
AcDbEntity
8
0
100
AcDbCircle
10
987.5
20
88.75
30
0
40
12.500000000000044
210
0
220
-0
230
1
100
AcDbArc
50
17.457603123721988
51
29.99999999999989
0
ARC
5
126
100
AcDbEntity
8
0
100
AcDbCircle
10
987.5
20
88.75
30
0
40
12.499999999999913
210
0
220
0
230
1
100
AcDbArc
50
-5.739170477266784
51
5.7391704772667804
0
ARC
5
127
100
AcDbEntity
8
0
100
AcDbCircle
10
987.5
20
88.75
30
0
40
12.500000000000004
210
0
220
0
230
1
100
AcDbArc
50
115.84193276316716
51
135.57299599919449
0
LINE
5
128
100
AcDbEntity
8
0
100
AcDbLine
10
999.93734296383263
20
90
30
0
11
975.06265703616748
21
90
31
0
0
LINE
5
129
100
AcDbEntity
8
0
100
AcDbLine
10
975
20
90
30
0
11
975.06203512237551
21
89.993796487762467
31
0
0
LINE
5
130
100
AcDbEntity
8
0
100
AcDbLine
10
999.93796487762461
20
87.506203512237533
30
0
11
1000
21
87.5
31
0
0
LINE
5
131
100
AcDbEntity
8
0
100
AcDbLine
10
750
20
126.00000000000001
30
0
11
684
21
126.00000000000001
31
0
0
LWPOLYLINE
5
132
100
AcDbEntity
8
0
100
AcDbPolyline
90
4
70
1
43
0.0
10
684
20
102.00000000000001
10
704
20
102.00000000000001
10
704
20
108
10
684
20
108
0
LWPOLYLINE
5
133
100
AcDbEntity
8
0
100
AcDbPolyline
90
4
70
1
43
0.0
10
46.000000000000007
20
102.00000000000001
10
46.000000000000007
20
108
10
66
20
108
10
66
20
102.00000000000001
0
LWPOLYLINE
5
134
100
AcDbEntity
8
0
100
AcDbPolyline
90
4
70
1
43
0.0
10
66
20
39
10
46.000000000000007
20
39
10
46.000000000000007
20
45
10
66
20
45
0
LWPOLYLINE
5
135
100
AcDbEntity
8
0
100
AcDbPolyline
90
4
70
1
43
0.0
10
684
20
39
10
704
20
39
10
704
20
45
10
684
20
45
0
LWPOLYLINE
5
136
100
AcDbEntity
8
0
100
AcDbPolyline
90
4
70
1
43
0.0
10
819
20
102.00000000000001
10
799
20
102.00000000000001
10
799
20
108
10
819
20
108
0
LWPOLYLINE
5
137
100
AcDbEntity
8
0
100
AcDbPolyline
90
4
70
1
43
0.0
10
819
20
39
10
799
20
39
10
799
20
45
10
819
20
45
0
LWPOLYLINE
5
138
100
AcDbEntity
8
0
100
AcDbPolyline
90
4
70
1
43
0.0
10
1047
20
102.00000000000001
10
1067
20
102.00000000000001
10
1067
20
108
10
1047
20
108
0
LWPOLYLINE
5
139
100
AcDbEntity
8
0
100
AcDbPolyline
90
4
70
1
43
0.0
10
1047
20
45
10
1047
20
39
10
1067
20
39
10
1067
20
45
0
ENDSEC
0
SECTION
2
OBJECTS
0
DICTIONARY
5
C
100
AcDbDictionary
3
ACAD_GROUP
350
D
3
ACAD_MLINESTYLE
350
17
0
DICTIONARY
5
D
100
AcDbDictionary
0
DICTIONARY
5
1A
330
C
100
AcDbDictionary
0
DICTIONARY
5
17
100
AcDbDictionary
0
ENDSEC
0
EOF
