0
SECTION
2
HEADER
9
$INSUNITS
70
4
9
$ACADVER
1
AC1014
9
$HANDSEED
5
FFFF
0
ENDSEC
0
SECTION
2
TABLES
0
TABLE
2
VPORT
5
8
100
AcDbSymbolTable
0
ENDTAB
0
TABLE
2
LTYPE
5
5
100
AcDbSymbolTable
0
LTYPE
5
14
100
AcDbSymbolTableRecord
100
AcDbLinetypeTableRecord
2
BYBLOCK
70
0
0
LTYPE
5
15
100
AcDbSymbolTableRecord
100
AcDbLinetypeTableRecord
2
BYLAYER
70
0
0
ENDTAB
0
TABLE
2
LAYER
5
2
100
AcDbSymbolTable
70
2
0
LAYER
5
50
100
AcDbSymbolTableRecord
100
AcDbLayerTableRecord
2
0
70
0
6
CONTINUOUS
0
ENDTAB
0
TABLE
2
STYLE
5
3
100
AcDbSymbolTable
70
1
0
STYLE
5
11
100
AcDbSymbolTableRecord
100
AcDbTextStyleTableRecord
2
STANDARD
70
0
0
ENDTAB
0
TABLE
2
VIEW
5
6
100
AcDbSymbolTable
70
0
0
ENDTAB
0
TABLE
2
UCS
5
7
100
AcDbSymbolTable
70
0
0
ENDTAB
0
TABLE
2
APPID
5
9
100
AcDbSymbolTable
70
2
0
APPID
5
12
100
AcDbSymbolTableRecord
100
AcDbRegAppTableRecord
2
ACAD
70
0
0
ENDTAB
0
TABLE
2
DIMSTYLE
5
A
100
AcDbSymbolTable
70
1
0
ENDTAB
0
TABLE
2
BLOCK_RECORD
5
1
100
AcDbSymbolTable
70
1
0
BLOCK_RECORD
5
1F
100
AcDbSymbolTableRecord
100
AcDbBlockTableRecord
2
*MODEL_SPACE
0
BLOCK_RECORD
5
1B
100
AcDbSymbolTableRecord
100
AcDbBlockTableRecord
2
*PAPER_SPACE
0
ENDTAB
0
ENDSEC
0
SECTION
2
BLOCKS
0
BLOCK
5
20
100
AcDbEntity
100
AcDbBlockBegin
2
*MODEL_SPACE
0
ENDBLK
5
21
100
AcDbEntity
100
AcDbBlockEnd
0
BLOCK
5
1C
100
AcDbEntity
100
AcDbBlockBegin
2
*PAPER_SPACE
0
ENDBLK
5
1D
100
AcDbEntity
100
AcDbBlockEnd
0
ENDSEC
0
SECTION
2
ENTITIES
0
LWPOLYLINE
5
100
100
AcDbEntity
8
0
100
AcDbPolyline
90
84
70
1
43
0.0
10
-213.86205000000007
20
-33.068699999999929
10
-186.13795000000013
20
-33.068699999999929
10
-186.13795000000013
20
-39.068700000000014
10
-158.41385000000005
20
-39.068700000000035
10
-158.41385000000005
20
-33.06869999999995
10
-130.68975000000012
20
-33.06869999999995
10
-130.68975000000012
20
-39.068700000000035
10
-102.96565000000017
20
-39.068700000000049
10
-102.96565000000017
20
-33.068699999999964
10
-75.241550000000089
20
-33.068699999999964
10
-75.241550000000089
20
-39.068700000000049
10
-47.517450000000032
20
-39.068700000000049
10
-47.517450000000032
20
-33.068699999999964
10
-19.793350000000025
20
-33.068699999999964
10
-19.793350000000025
20
-39.068700000000049
10
7.9307499999999109
20
-39.068700000000064
10
7.9307499999999109
20
-33.068699999999978
10
35.654849999999989
20
-33.068699999999978
10
35.654849999999989
20
-39.068700000000064
10
63.378949999999925
20
-39.068700000000085
10
63.378949999999925
20
-33.0687
10
91.103049999999996
20
-33.0687
10
91.103049999999996
20
-39.068700000000085
10
118.82715000000007
20
-39.068700000000085
10
118.82715000000007
20
-33.0687
10
146.55124999999987
20
-33.068700000000021
10
146.55124999999987
20
-39.068700000000106
10
174.27534999999995
20
-39.068700000000106
10
174.27534999999995
20
-33.068700000000021
10
201.99945000000011
20
-33.068700000000021
10
201.99945000000011
20
-39.068700000000106
10
229.7235499999999
20
-39.068700000000121
10
229.7235499999999
20
-33.068700000000035
10
263.06869999999998
20
-33.068700000000035
10
263.06869999999998
20
-12.930750000000018
10
269.06870000000009
20
-12.930750000000018
10
269.06870000000009
20
14.793349999999919
10
263.06869999999998
20
14.793349999999919
10
263.06869999999998
20
34.931299999999936
10
229.7235499999999
20
34.931299999999951
10
229.7235499999999
20
40.931300000000007
10
201.99945000000011
20
40.931300000000007
10
201.99945000000011
20
34.931299999999972
10
174.27534999999995
20
34.931299999999972
10
174.27534999999995
20
40.931300000000007
10
146.55124999999987
20
40.931300000000007
10
146.55124999999987
20
34.931299999999972
10
118.82715000000007
20
34.931299999999972
10
118.82715000000007
20
40.931300000000007
10
91.103049999999996
20
40.931300000000007
10
91.103049999999996
20
34.931299999999993
10
63.378949999999925
20
34.931299999999993
10
63.378949999999925
20
40.931300000000007
10
35.654849999999989
20
40.931300000000007
10
35.654849999999989
20
34.931300000000007
10
7.9307499999999109
20
34.931300000000007
10
7.9307499999999109
20
40.931300000000007
10
-19.793350000000025
20
40.931300000000007
10
-19.793350000000025
20
34.931300000000007
10
-47.517450000000032
20
34.931300000000007
10
-47.517450000000032
20
40.931300000000007
10
-75.241550000000089
20
40.931300000000078
10
-75.241550000000089
20
34.931300000000022
10
-102.96565000000017
20
34.931300000000022
10
-102.96565000000017
20
40.931300000000078
10
-130.68975000000009
20
40.931300000000078
10
-130.68975000000009
20
34.931300000000043
10
-158.41385000000002
20
34.931300000000043
10
-158.41385000000002
20
40.931300000000078
10
-186.1379500000001
20
40.931300000000078
10
-186.1379500000001
20
34.931300000000043
10
-213.86205000000007
20
34.931300000000043
10
-213.86205000000007
20
40.931300000000078
10
-241.58615000000015
20
40.931300000000078
10
-241.58615000000015
20
34.931300000000064
10
-274.93130000000014
20
34.931300000000078
10
-274.93130000000014
20
14.793350000000043
10
-280.93130000000014
20
14.793350000000043
10
-280.93130000000019
20
-12.930749999999893
10
-274.93130000000014
20
-12.930749999999893
10
-274.93130000000014
20
-33.068699999999929
10
-241.5861500000002
20
-33.068699999999929
10
-241.5861500000002
20
-39.068700000000014
10
-213.86205000000007
20
-39.068700000000014
0
LWPOLYLINE
5
101
100
AcDbEntity
8
0
100
AcDbPolyline
90
4
70
1
43
0.0
10
-248.93130000000011
20
32.931300000000064
10
-242.93130000000008
20
32.931300000000064
10
-242.93130000000008
20
-31.068699999999936
10
-248.93130000000011
20
-31.068699999999936
0
LWPOLYLINE
5
102
100
AcDbEntity
8
0
100
AcDbPolyline
90
4
70
1
43
0.0
10
-219.68991278098139
20
-177.38309787843269
10
-219.68991278098139
20
-113.38309787843269
10
-191.68991278098139
20
-113.38309787843269
10
-191.68991278098139
20
-177.38309787843269
0
LWPOLYLINE
5
103
100
AcDbEntity
8
0
100
AcDbPolyline
90
4
70
1
43
0.0
10
-194.15111641884806
20
-65.710776593877043
10
-194.15111641884806
20
-100.71077659387704
10
-222.15111641884803
20
-100.71077659387704
10
-222.15111641884803
20
-65.710776593877043
0
LWPOLYLINE
5
104
100
AcDbEntity
8
0
100
AcDbPolyline
90
4
70
1
43
0.0
10
-216.93130000000011
20
-31.068699999999936
10
-216.93130000000011
20
32.931300000000064
10
-210.93130000000008
20
32.931300000000064
10
-210.93130000000008
20
-31.068699999999936
0
LWPOLYLINE
5
105
100
AcDbEntity
8
0
100
AcDbPolyline
90
4
70
1
43
0.0
10
-184.93130000000008
20
-31.068699999999936
10
-184.93130000000008
20
32.931300000000064
10
-178.93130000000008
20
32.931300000000064
10
-178.93130000000008
20
-31.068699999999936
0
LWPOLYLINE
5
106
100
AcDbEntity
8
0
100
AcDbPolyline
90
4
70
1
43
0.0
10
-152.93130000000008
20
-31.068699999999936
10
-152.93130000000008
20
32.931300000000064
10
-146.93130000000008
20
32.931300000000064
10
-146.93130000000008
20
-31.068699999999936
0
LWPOLYLINE
5
107
100
AcDbEntity
8
0
100
AcDbPolyline
90
4
70
1
43
0.0
10
-120.93130000000009
20
-31.068699999999936
10
-120.93130000000009
20
32.931300000000064
10
-114.93130000000008
20
32.931300000000064
10
-114.93130000000008
20
-31.068699999999936
0
LINE
5
108
100
AcDbEntity
8
0
100
AcDbLine
10
-88.931300000000107
20
-8.0686999999999323
30
0
11
-88.931300000000107
21
32.931300000000064
31
0
0
LINE
5
109
100
AcDbEntity
8
0
100
AcDbLine
10
-88.931300000000107
20
32.931300000000064
30
0
11
-82.931300000000078
21
32.931300000000064
31
0
0
LINE
5
110
100
AcDbEntity
8
0
100
AcDbLine
10
-82.931300000000078
20
32.931300000000064
30
0
11
-82.931300000000078
21
-2.0686999999999323
31
0
0
LINE
5
111
100
AcDbEntity
8
0
100
AcDbLine
10
-56.931300000000071
20
-2.0686999999999323
30
0
11
-56.931300000000071
21
32.931300000000064
31
0
0
LINE
5
112
100
AcDbEntity
8
0
100
AcDbLine
10
-56.931300000000071
20
32.931300000000064
30
0
11
-50.931300000000057
21
32.931300000000064
31
0
0
LINE
5
113
100
AcDbEntity
8
0
100
AcDbLine
10
-50.931300000000057
20
32.931300000000064
30
0
11
-50.931300000000078
21
-2.0686999999999323
31
0
0
LINE
5
114
100
AcDbEntity
8
0
100
AcDbLine
10
-24.931300000000093
20
-2.0686999999999323
30
0
11
-24.931300000000078
21
32.931300000000064
31
0
0
LINE
5
115
100
AcDbEntity
8
0
100
AcDbLine
10
-24.931300000000078
20
32.931300000000064
30
0
11
-18.931300000000064
21
32.931300000000064
31
0
0
LINE
5
116
100
AcDbEntity
8
0
100
AcDbLine
10
-18.931300000000064
20
32.931300000000064
30
0
11
-18.931300000000046
21
-2.0686999999999323
31
0
0
LINE
5
117
100
AcDbEntity
8
0
100
AcDbLine
10
7.0686999999999065
20
-2.0686999999999323
30
0
11
7.0686999999999145
21
32.931300000000064
31
0
0
LINE
5
118
100
AcDbEntity
8
0
100
AcDbLine
10
7.0686999999999145
20
32.931300000000064
30
0
11
13.068699999999929
21
32.931300000000064
31
0
0
LINE
5
119
100
AcDbEntity
8
0
100
AcDbLine
10
13.068699999999929
20
32.931300000000064
30
0
11
13.068699999999929
21
-2.0686999999999323
31
0
0
LINE
5
120
100
AcDbEntity
8
0
100
AcDbLine
10
39.0686999999999
20
-2.0686999999999323
30
0
11
39.068699999999907
21
32.931300000000064
31
0
0
LINE
5
121
100
AcDbEntity
8
0
100
AcDbLine
10
39.068699999999907
20
32.931300000000064
30
0
11
45.068699999999922
21
32.931300000000064
31
0
0
LINE
5
122
100
AcDbEntity
8
0
100
AcDbLine
10
45.068699999999922
20
32.931300000000064
30
0
11
45.068699999999922
21
-2.0686999999999323
31
0
0
LINE
5
123
100
AcDbEntity
8
0
100
AcDbLine
10
71.068699999999893
20
-2.0686999999999323
30
0
11
71.068699999999893
21
32.931300000000064
31
0
0
LINE
5
124
100
AcDbEntity
8
0
100
AcDbLine
10
71.068699999999893
20
32.931300000000064
30
0
11
77.068699999999922
21
32.931300000000064
31
0
0
LINE
5
125
100
AcDbEntity
8
0
100
AcDbLine
10
77.068699999999922
20
32.931300000000064
30
0
11
77.068699999999922
21
-8.0686999999999323
31
0
0
LWPOLYLINE
5
126
100
AcDbEntity
8
0
100
AcDbPolyline
90
4
70
1
43
0.0
10
103.06869999999992
20
-31.068699999999936
10
103.06869999999992
20
32.931300000000064
10
109.06869999999995
20
32.931300000000064
10
109.06869999999995
20
-31.068699999999936
0
LWPOLYLINE
5
127
100
AcDbEntity
8
0
100
AcDbPolyline
90
4
70
1
43
0.0
10
135.06869999999995
20
-31.068699999999936
10
135.06869999999995
20
32.931300000000064
10
141.06869999999998
20
32.931300000000064
10
141.06869999999998
20
-31.068699999999936
0
LWPOLYLINE
5
128
100
AcDbEntity
8
0
100
AcDbPolyline
90
4
70
1
43
0.0
10
167.06869999999992
20
-31.068699999999936
10
167.06869999999992
20
32.931300000000064
10
173.06869999999992
20
32.931300000000064
10
173.06869999999992
20
-31.068699999999936
0
LWPOLYLINE
5
129
100
AcDbEntity
8
0
100
AcDbPolyline
90
4
70
1
43
0.0
10
199.06869999999995
20
-31.068699999999936
10
199.06869999999995
20
32.931300000000064
10
205.06869999999995
20
32.931300000000064
10
205.06869999999995
20
-31.068699999999936
0
LWPOLYLINE
5
130
100
AcDbEntity
8
0
100
AcDbPolyline
90
4
70
1
43
0.0
10
231.06869999999989
20
-31.068699999999936
10
231.06869999999989
20
32.931300000000064
10
237.06869999999992
20
32.931300000000064
10
237.06869999999992
20
-31.068699999999936
0
LWPOLYLINE
5
131
100
AcDbEntity
8
0
100
AcDbPolyline
90
4
70
1
43
0.0
10
-188.15111641884806
20
-100.71077659387704
10
-188.15111641884806
20
-65.710776593877043
10
-160.15111641884806
20
-65.710776593877043
10
-160.15111641884806
20
-100.71077659387704
0
LWPOLYLINE
5
132
100
AcDbEntity
8
0
100
AcDbPolyline
90
4
70
1
43
0.0
10
-154.15111641884803
20
-100.71077659387704
10
-154.15111641884803
20
-65.710776593877043
10
-126.15111641884806
20
-65.710776593877043
10
-126.15111641884806
20
-100.71077659387704
0
LWPOLYLINE
5
133
100
AcDbEntity
8
0
100
AcDbPolyline
90
4
70
1
43
0.0
10
-120.15111641884803
20
-100.71077659387704
10
-120.15111641884803
20
-65.710776593877043
10
-92.151116418848062
20
-65.710776593877043
10
-92.151116418848062
20
-100.71077659387704
0
LWPOLYLINE
5
134
100
AcDbEntity
8
0
100
AcDbPolyline
90
4
70
1
43
0.0
10
-86.151116418848034
20
-100.71077659387704
10
-86.151116418848034
20
-65.710776593877043
10
-58.151116418848062
20
-65.710776593877043
10
-58.151116418848062
20
-100.71077659387704
0
LWPOLYLINE
5
135
100
AcDbEntity
8
0
100
AcDbPolyline
90
4
70
1
43
0.0
10
-52.151116418848034
20
-100.71077659387704
10
-52.151116418848034
20
-65.710776593877043
10
-24.151116418848062
20
-65.710776593877043
10
-24.151116418848062
20
-100.71077659387704
0
LWPOLYLINE
5
136
100
AcDbEntity
8
0
100
AcDbPolyline
90
4
70
1
43
0.0
10
-187.46769055875916
20
-177.38309787843269
10
-187.46769055875916
20
-113.38309787843269
10
-159.46769055875919
20
-113.38309787843269
10
-159.46769055875919
20
-177.38309787843269
0
LWPOLYLINE
5
137
100
AcDbEntity
8
0
100
AcDbPolyline
90
4
70
1
43
0.0
10
-155.24546833653693
20
-177.38309787843269
10
-155.24546833653693
20
-113.38309787843269
10
-127.24546833653696
20
-113.38309787843269
10
-127.24546833653696
20
-177.38309787843269
0
LWPOLYLINE
5
138
100
AcDbEntity
8
0
100
AcDbPolyline
90
4
70
1
43
0.0
10
-123.0232461143147
20
-177.38309787843269
10
-123.0232461143147
20
-113.38309787843269
10
-95.02324611431473
20
-113.38309787843269
10
-95.02324611431473
20
-177.38309787843269
0
LWPOLYLINE
5
139
100
AcDbEntity
8
0
100
AcDbPolyline
90
4
70
1
43
0.0
10
-90.801023892092473
20
-177.38309787843269
10
-90.801023892092473
20
-113.38309787843269
10
-62.801023892092509
20
-113.38309787843269
10
-62.801023892092509
20
-177.38309787843269
0
LWPOLYLINE
5
140
100
AcDbEntity
8
0
100
AcDbPolyline
90
4
70
1
43
0.0
10
-58.578801669870266
20
-177.38309787843269
10
-58.578801669870266
20
-113.38309787843269
10
-30.578801669870295
20
-113.38309787843269
10
-30.578801669870295
20
-177.38309787843269
0
LWPOLYLINE
5
141
100
AcDbEntity
8
0
100
AcDbPolyline
90
4
70
1
43
0.0
10
-26.356579447648016
20
-177.38309787843269
10
-26.356579447648016
20
-113.38309787843269
10
1.6434205523519552
20
-113.38309787843269
10
1.6434205523519552
20
-177.38309787843269
0
LWPOLYLINE
5
142
100
AcDbEntity
8
0
100
AcDbPolyline
90
4
70
1
43
0.0
10
5.8656427745741979
20
-177.38309787843269
10
5.8656427745741979
20
-113.38309787843269
10
33.865642774574169
20
-113.38309787843269
10
33.865642774574169
20
-177.38309787843269
0
LWPOLYLINE
5
143
100
AcDbEntity
8
0
100
AcDbPolyline
90
4
70
1
43
0.0
10
38.087864996796412
20
-177.38309787843269
10
38.087864996796412
20
-113.38309787843269
10
66.087864996796384
20
-113.38309787843269
10
66.087864996796384
20
-177.38309787843269
0
LWPOLYLINE
5
144
100
AcDbEntity
8
0
100
AcDbPolyline
90
4
70
1
43
0.0
10
70.310087219018627
20
-177.38309787843269
10
70.310087219018627
20
-113.38309787843269
10
98.310087219018598
20
-113.38309787843269
10
98.310087219018598
20
-177.38309787843269
0
LINE
5
145
100
AcDbEntity
8
0
100
AcDbLine
10
-63.708094029805515
20
-2.0686999999999323
30
0
11
-74.704274993540878
21
-2.0686999999999323
31
0
0
LINE
5
146
100
AcDbEntity
8
0
100
AcDbLine
10
77.068699999999922
20
-2.0686999999999323
30
0
11
77.068699999999922
21
-8.0686999999999323
31
0
0
LINE
5
147
100
AcDbEntity
8
0
100
AcDbLine
10
77.068699999999922
20
-8.0686999999999323
30
0
11
-88.931300000000107
21
-8.0686999999999323
31
0
0
LINE
5
148
100
AcDbEntity
8
0
100
AcDbLine
10
-88.931300000000107
20
-8.0686999999999323
30
0
11
-88.931300000000107
21
-2.0686999999999323
31
0
0
LINE
5
149
100
AcDbEntity
8
0
100
AcDbLine
10
45.068699999999922
20
-2.0686999999999323
30
0
11
71.068699999999893
21
-2.0686999999999323
31
0
0
LINE
5
150
100
AcDbEntity
8
0
100
AcDbLine
10
13.068699999999929
20
-2.0686999999999323
30
0
11
39.0686999999999
21
-2.0686999999999323
31
0
0
LINE
5
151
100
AcDbEntity
8
0
100
AcDbLine
10
-18.931300000000046
20
-2.0686999999999323
30
0
11
7.0686999999999065
21
-2.0686999999999323
31
0
0
LINE
5
152
100
AcDbEntity
8
0
100
AcDbLine
10
-82.931300000000078
20
-2.0686999999999323
30
0
11
-56.931300000000071
21
-2.0686999999999323
31
0
0
LINE
5
153
100
AcDbEntity
8
0
100
AcDbLine
10
-50.931300000000078
20
-2.0686999999999323
30
0
11
-24.931300000000093
21
-2.0686999999999323
31
0
0
ENDSEC
0
SECTION
2
OBJECTS
0
DICTIONARY
5
C
100
AcDbDictionary
3
ACAD_GROUP
350
D
3
ACAD_MLINESTYLE
350
17
0
DICTIONARY
5
D
100
AcDbDictionary
0
DICTIONARY
5
1A
330
C
100
AcDbDictionary
0
DICTIONARY
5
17
100
AcDbDictionary
0
ENDSEC
0
EOF
