0
SECTION
2
HEADER
9
$INSUNITS
70
4
9
$ACADVER
1
AC1014
9
$HANDSEED
5
FFFF
0
ENDSEC
0
SECTION
2
TABLES
0
TABLE
2
VPORT
5
8
100
AcDbSymbolTable
0
ENDTAB
0
TABLE
2
LTYPE
5
5
100
AcDbSymbolTable
0
LTYPE
5
14
100
AcDbSymbolTableRecord
100
AcDbLinetypeTableRecord
2
BYBLOCK
70
0
0
LTYPE
5
15
100
AcDbSymbolTableRecord
100
AcDbLinetypeTableRecord
2
BYLAYER
70
0
0
ENDTAB
0
TABLE
2
LAYER
5
2
100
AcDbSymbolTable
70
2
0
LAYER
5
50
100
AcDbSymbolTableRecord
100
AcDbLayerTableRecord
2
0
70
0
6
CONTINUOUS
0
ENDTAB
0
TABLE
2
STYLE
5
3
100
AcDbSymbolTable
70
1
0
STYLE
5
11
100
AcDbSymbolTableRecord
100
AcDbTextStyleTableRecord
2
STANDARD
70
0
0
ENDTAB
0
TABLE
2
VIEW
5
6
100
AcDbSymbolTable
70
0
0
ENDTAB
0
TABLE
2
UCS
5
7
100
AcDbSymbolTable
70
0
0
ENDTAB
0
TABLE
2
APPID
5
9
100
AcDbSymbolTable
70
2
0
APPID
5
12
100
AcDbSymbolTableRecord
100
AcDbRegAppTableRecord
2
ACAD
70
0
0
ENDTAB
0
TABLE
2
DIMSTYLE
5
A
100
AcDbSymbolTable
70
1
0
ENDTAB
0
TABLE
2
BLOCK_RECORD
5
1
100
AcDbSymbolTable
70
1
0
BLOCK_RECORD
5
1F
100
AcDbSymbolTableRecord
100
AcDbBlockTableRecord
2
*MODEL_SPACE
0
BLOCK_RECORD
5
1B
100
AcDbSymbolTableRecord
100
AcDbBlockTableRecord
2
*PAPER_SPACE
0
ENDTAB
0
ENDSEC
0
SECTION
2
BLOCKS
0
BLOCK
5
20
100
AcDbEntity
100
AcDbBlockBegin
2
*MODEL_SPACE
0
ENDBLK
5
21
100
AcDbEntity
100
AcDbBlockEnd
0
BLOCK
5
1C
100
AcDbEntity
100
AcDbBlockBegin
2
*PAPER_SPACE
0
ENDBLK
5
1D
100
AcDbEntity
100
AcDbBlockEnd
0
ENDSEC
0
SECTION
2
ENTITIES
0
LWPOLYLINE
5
100
100
AcDbEntity
8
0
100
AcDbPolyline
90
20
70
1
43
0.0
10
0
20
26.637950000000004
10
0
20
2.9999999999999982
10
26.13795
20
3.0000000000000004
10
26.13795
20
9
10
53.862050000000004
20
9
10
53.862050000000004
20
3.0000000000000004
10
80
20
3.0000000000000004
10
80
20
26.637950000000004
10
74
20
26.637950000000004
10
74
20
54.362050000000011
10
80
20
54.362050000000011
10
80
20
78
10
53.862050000000004
20
78
10
53.862050000000004
20
72
10
26.13795
20
72
10
26.13795
20
78
10
0
20
78
10
0
20
54.362050000000011
10
6.0000000000000009
20
54.362050000000011
10
6.0000000000000009
20
26.637950000000004
0
LWPOLYLINE
5
101
100
AcDbEntity
8
0
100
AcDbPolyline
90
84
70
1
43
0.0
10
344.13794999999999
20
9
10
371.86205000000001
20
9
10
371.86205000000001
20
3.0000000000000004
10
399.58615000000003
20
3.0000000000000004
10
399.58615000000003
20
9
10
427.31025
20
9
10
427.31025
20
3.0000000000000004
10
455.03435000000002
20
3.0000000000000004
10
455.03435000000002
20
9
10
482.75845000000004
20
9
10
482.75845000000004
20
3.0000000000000004
10
510.48255000000012
20
3.0000000000000004
10
510.48255000000012
20
9
10
538.20664999999997
20
9
10
538.20664999999997
20
3.0000000000000004
10
565.93074999999999
20
3.0000000000000004
10
565.93074999999999
20
9
10
593.65485000000012
20
9
10
593.65485000000012
20
3.0000000000000004
10
627
20
3.0000000000000004
10
627
20
26.637950000000004
10
633
20
26.637950000000004
10
633
20
54.362050000000011
10
627
20
54.362050000000011
10
627
20
78
10
593.65485000000012
20
78
10
593.65485000000012
20
72
10
565.93074999999999
20
72
10
565.93074999999999
20
78
10
538.20664999999997
20
78
10
538.20664999999997
20
72
10
510.48255000000012
20
72
10
510.48255000000012
20
78
10
482.75845000000004
20
78
10
482.75845000000004
20
72
10
455.03435000000002
20
72
10
455.03435000000002
20
78
10
427.31025
20
78
10
427.31025
20
72
10
399.58615000000003
20
72
10
399.58615000000003
20
78
10
371.86205000000001
20
78
10
371.86205000000001
20
72
10
344.13794999999999
20
72
10
344.13794999999999
20
78
10
316.41385000000002
20
78
10
316.41385000000002
20
72
10
288.68975
20
72
10
288.68975
20
78
10
260.96564999999998
20
78
10
260.96564999999998
20
72
10
233.24155000000002
20
72
10
233.24155000000002
20
78
10
205.51745
20
78
10
205.51745
20
72
10
177.79335
20
72
10
177.79335
20
78
10
150.06925000000001
20
78
10
150.06925000000001
20
72
10
122.34515000000002
20
72
10
122.34515000000002
20
78
10
89
20
78
10
89
20
54.362050000000011
10
83
20
54.362050000000011
10
83
20
26.637950000000004
10
89
20
26.637950000000004
10
89
20
2.9999999999999982
10
122.34515000000002
20
3.0000000000000004
10
122.34515000000002
20
9
10
150.06925000000001
20
9
10
150.06925000000001
20
3.0000000000000004
10
177.79335
20
3.0000000000000004
10
177.79335
20
9
10
205.51745
20
9
10
205.51745
20
3.0000000000000004
10
233.24155000000002
20
3.0000000000000004
10
233.24155000000002
20
9
10
260.96564999999998
20
9
10
260.96564999999998
20
3.0000000000000004
10
288.68975
20
3.0000000000000004
10
288.68975
20
9
10
316.41385000000002
20
9
10
316.41385000000002
20
3.0000000000000004
10
344.13794999999999
20
3.0000000000000004
0
LWPOLYLINE
5
102
100
AcDbEntity
8
0
100
AcDbPolyline
90
20
70
1
43
0.0
10
53.862050000000004
20
87.000000000000014
10
53.862050000000004
20
81
10
80
20
81
10
80
20
104.63795000000003
10
74
20
104.63795000000003
10
74
20
132.36205000000001
10
80
20
132.36205000000001
10
80
20
156
10
53.862050000000004
20
156
10
53.862050000000004
20
150
10
26.13795
20
150
10
26.13795
20
156
10
0
20
156
10
0
20
132.36205000000001
10
6.0000000000000009
20
132.36205000000001
10
6.0000000000000009
20
104.63795000000003
10
0
20
104.63795000000003
10
0
20
81
10
26.13795
20
81
10
26.13795
20
87.000000000000014
0
LWPOLYLINE
5
103
100
AcDbEntity
8
0
100
AcDbPolyline
90
84
70
1
43
0.0
10
89
20
104.63795000000003
10
89
20
81
10
122.34515000000002
20
81
10
122.34515000000002
20
87.000000000000014
10
150.06925000000001
20
87.000000000000014
10
150.06925000000001
20
81
10
177.79335
20
81
10
177.79335
20
87.000000000000014
10
205.51745
20
87.000000000000014
10
205.51745
20
81
10
233.24155000000002
20
81
10
233.24155000000002
20
87.000000000000014
10
260.96564999999998
20
87.000000000000014
10
260.96564999999998
20
81
10
288.68975
20
81
10
288.68975
20
87.000000000000014
10
316.41385000000002
20
87.000000000000014
10
316.41385000000002
20
81
10
344.13794999999999
20
81
10
344.13794999999999
20
87.000000000000014
10
371.86205000000001
20
87.000000000000014
10
371.86205000000001
20
81
10
399.58615000000003
20
81
10
399.58615000000003
20
87.000000000000014
10
427.31025
20
87.000000000000014
10
427.31025
20
81
10
455.03435000000002
20
81
10
455.03435000000002
20
87.000000000000014
10
482.75845000000004
20
87.000000000000014
10
482.75845000000004
20
81
10
510.48255000000012
20
81
10
510.48255000000012
20
87.000000000000014
10
538.20664999999997
20
87.000000000000014
10
538.20664999999997
20
81
10
565.93074999999999
20
81
10
565.93074999999999
20
87.000000000000014
10
593.65485000000012
20
87.000000000000014
10
593.65485000000012
20
81
10
627
20
81
10
627
20
104.63795000000003
10
633
20
104.63795000000003
10
633
20
132.36205000000001
10
627
20
132.36205000000001
10
627
20
156
10
593.65485000000012
20
156
10
593.65485000000012
20
150
10
565.93074999999999
20
150
10
565.93074999999999
20
156
10
538.20664999999997
20
156
10
538.20664999999997
20
150
10
510.48255000000012
20
150
10
510.48255000000012
20
156
10
482.75845000000004
20
156
10
482.75845000000004
20
150
10
455.03435000000002
20
150
10
455.03435000000002
20
156
10
427.31025
20
156
10
427.31025
20
150
10
399.58615000000003
20
150
10
399.58615000000003
20
156
10
371.86205000000001
20
156
10
371.86205000000001
20
150
10
344.13794999999999
20
150
10
344.13794999999999
20
156
10
316.41385000000002
20
156
10
316.41385000000002
20
150
10
288.68975
20
150
10
288.68975
20
156
10
260.96564999999998
20
156
10
260.96564999999998
20
150
10
233.24155000000002
20
150
10
233.24155000000002
20
156
10
205.51745
20
156
10
205.51745
20
150
10
177.79335
20
150
10
177.79335
20
156
10
150.06925000000001
20
156
10
150.06925000000001
20
150
10
122.34515000000002
20
150
10
122.34515000000002
20
156
10
89
20
156
10
89
20
132.36205000000001
10
83
20
132.36205000000001
10
83
20
104.63795000000003
0
LWPOLYLINE
5
104
100
AcDbEntity
8
0
100
AcDbPolyline
90
84
70
1
43
0.0
10
642
20
239.41385000000011
10
636
20
239.41385000000011
10
636
20
211.68975000000003
10
642
20
211.68975000000003
10
642
20
183.96564999999995
10
636
20
183.96564999999995
10
636
20
156.24155000000005
10
642
20
156.24155000000005
10
642
20
128.51745000000008
10
636
20
128.51745000000008
10
636
20
100.79335
10
642
20
100.79335
10
642
20
73.069250000000068
10
636
20
73.069250000000068
10
636
20
45.34514999999999
10
642
20
45.34514999999999
10
642
20
12.000000000000028
10
662.13795000000016
20
12.000000000000028
10
662.13795000000016
20
6.0000000000000142
10
689.86204999999995
20
6.0000000000000142
10
689.86204999999995
20
12.000000000000028
10
710
20
12.000000000000028
10
710
20
45.34514999999999
10
716.00000000000011
20
45.34514999999999
10
716.00000000000011
20
73.069250000000068
10
710
20
73.069250000000068
10
710
20
100.79335
10
716.00000000000011
20
100.79335
10
716.00000000000011
20
128.51745000000008
10
710
20
128.51745000000008
10
710
20
156.24155000000005
10
716.00000000000011
20
156.24155000000005
10
716.00000000000011
20
183.96564999999995
10
710
20
183.96564999999995
10
710
20
211.68975000000003
10
716.00000000000011
20
211.68975000000003
10
716.00000000000011
20
239.41385000000011
10
710
20
239.41385000000011
10
710
20
267.13795000000005
10
716.00000000000011
20
267.13795000000005
10
716.00000000000011
20
294.8620499999999
10
710
20
294.8620499999999
10
710
20
322.58615000000015
10
716.00000000000011
20
322.58615000000015
10
716.00000000000011
20
350.31025
10
710
20
350.31025
10
710
20
378.03435000000007
10
716.00000000000011
20
378.03435000000007
10
716.00000000000011
20
405.75845000000015
10
710
20
405.75845000000015
10
710
20
433.48255
10
716.00000000000011
20
433.48255
10
716.00000000000011
20
461.20665000000002
10
710
20
461.20665000000002
10
710
20
488.93075000000016
10
716.00000000000011
20
488.93075000000016
10
716.00000000000011
20
516.6548499999999
10
710
20
516.6548499999999
10
710
20
550
10
689.86204999999995
20
550
10
689.86204999999995
20
556.00000000000011
10
662.13795000000016
20
556.00000000000011
10
662.13795000000016
20
550
10
642
20
550
10
642
20
516.6548499999999
10
636
20
516.6548499999999
10
636
20
488.93075000000016
10
642
20
488.93075000000016
10
642
20
461.20665000000002
10
636
20
461.20665000000002
10
636
20
433.48255
10
642
20
433.48255
10
642
20
405.75845000000015
10
636
20
405.75845000000015
10
636
20
378.03435000000007
10
642
20
378.03435000000007
10
642
20
350.31025
10
636
20
350.31025
10
636
20
322.58615000000015
10
642
20
322.58615000000015
10
642
20
294.8620499999999
10
636
20
294.8620499999999
10
636
20
267.13795000000005
10
642
20
267.13795000000005
0
LWPOLYLINE
5
105
100
AcDbEntity
8
0
100
AcDbPolyline
90
4
70
1
43
0.0
10
30
20
122.00000000000001
10
30
20
128.00000000000006
10
50
20
128.00000000000006
10
50
20
122.00000000000001
0
LWPOLYLINE
5
106
100
AcDbEntity
8
0
100
AcDbPolyline
90
4
70
1
43
0.0
10
50
20
50.000000000000007
10
30.000000000000004
20
50.000000000000007
10
30.000000000000004
20
44.000000000000021
10
50
20
44.000000000000021
0
LWPOLYLINE
5
107
100
AcDbEntity
8
0
100
AcDbPolyline
90
4
70
1
43
0.0
10
129
20
128.00000000000006
10
129
20
122.00000000000001
10
109
20
122.00000000000001
10
109
20
128.00000000000006
0
LWPOLYLINE
5
108
100
AcDbEntity
8
0
100
AcDbPolyline
90
4
70
1
43
0.0
10
109
20
44
10
109
20
50
10
129
20
50
10
129
20
44
0
LWPOLYLINE
5
109
100
AcDbEntity
8
0
100
AcDbPolyline
90
8
70
1
43
0.0
10
607
20
122.00000000000001
10
587
20
122.00000000000001
10
587
20
128.00000000000006
10
607
20
128.00000000000006
10
607
20
122.00000000000001
10
587
20
122.00000000000001
10
587
20
128.00000000000006
10
607
20
128.00000000000006
0
LWPOLYLINE
5
110
100
AcDbEntity
8
0
100
AcDbPolyline
90
4
70
1
43
0.0
10
587
20
50
10
607
20
50
10
607
20
44
10
587
20
44
0
LWPOLYLINE
5
111
100
AcDbEntity
8
0
100
AcDbPolyline
90
21
70
1
43
0.0
10
486
20
328.51745000000005
10
486
20
300.79335000000009
10
492
20
300.79335000000009
10
492
20
273.06925000000007
10
486
20
273.06925000000007
10
486
20
245.34514999999999
10
492.00018173961564
20
245.34511729743926
10
492
20
212.00000000000003
10
512.13795000000005
20
212.00000000000003
10
512.13795000000005
20
206
10
539.86204999999995
20
206
10
539.86204999999995
20
212.00000000000003
10
560
20
212.00000000000003
10
560
20
245.34514999999999
10
566.00000000000011
20
245.34514999999999
10
566.00000000000011
20
273.06925000000007
10
560
20
273.06925000000007
10
560
20
300.79335000000009
10
566.00000000000011
20
300.79335000000009
10
566.00000000000011
20
328.51745000000005
10
560
20
328.51745000000005
0
LINE
5
112
100
AcDbEntity
8
0
100
AcDbLine
10
492
20
328.51745000000005
30
0
11
486
21
328.51745000000005
31
0
0
CIRCLE
5
113
100
AcDbEntity
8
0
100
AcDbCircle
10
509.00000000000006
20
225
30
0
40
4.9999915063438731
210
0
220
0
230
1
0
LINE
5
114
100
AcDbEntity
8
0
100
AcDbLine
10
492.00018173961564
20
245.34511729743926
30
0
11
492.00018173961564
21
243.99997614870912
31
0
0
CIRCLE
5
115
100
AcDbEntity
8
0
100
AcDbCircle
10
509.00000000000006
20
256.99999999999994
30
0
40
2.4999999999999574
210
0
220
0
230
1
0
LWPOLYLINE
5
116
100
AcDbEntity
8
0
100
AcDbPolyline
90
4
70
1
43
0.0
10
494.00000736117363
20
302.50000990927219
10
524.00000736117363
20
302.50000990927219
10
524.00000736117363
20
307.50000990927219
10
494.00000736117363
20
307.50000990927219
0
LWPOLYLINE
5
117
100
AcDbEntity
8
0
100
AcDbPolyline
90
2
70
1
43
0.0
10
495.00000737607485
20
278.0000042021274
10
523.0000077933073
20
278.0000042021274
0
LWPOLYLINE
5
118
100
AcDbEntity
8
0
100
AcDbPolyline
90
2
70
1
43
0.0
10
495.00000737607485
20
280.00000423192972
10
523.0000077933073
20
280.00000423192972
0
LINE
5
119
100
AcDbEntity
8
0
100
AcDbLine
10
494.00000736117363
20
302.50000990927219
30
0
11
524.00000736117363
21
302.50000990927219
31
0
0
LINE
5
120
100
AcDbEntity
8
0
100
AcDbLine
10
524.00000736117363
20
307.50000990927219
30
0
11
494.00000736117363
21
307.50000990927219
31
0
0
LWPOLYLINE
5
121
100
AcDbEntity
8
0
100
AcDbPolyline
90
4
70
1
43
0.0
10
528.00000786781311
20
274.00000414252281
10
558.00000831484806
20
274.00000414252281
10
558.00000831484806
20
284.00000429153437
10
528.00000786781311
20
284.00000429153437
0
LINE
5
122
100
AcDbEntity
8
0
100
AcDbLine
10
558.00000831484806
20
284.00000429153437
30
0
11
528.00000786781311
21
284.00000429153437
31
0
0
CIRCLE
5
123
100
AcDbEntity
8
0
100
AcDbCircle
10
543.00000809133053
20
225.00000856816769
30
0
40
3.74999999999998
210
0
220
0
230
1
0
CIRCLE
5
124
100
AcDbEntity
8
0
100
AcDbCircle
10
543
20
256.99999999999994
30
0
40
6.2500000000000311
210
0
220
0
230
1
0
LWPOLYLINE
5
125
100
AcDbEntity
8
0
100
AcDbPolyline
90
2
70
1
43
0.0
10
528.00000786781311
20
308.75000990927219
10
558.00000786781311
20
308.75000990927219
0
LINE
5
126
100
AcDbEntity
8
0
100
AcDbLine
10
86.999999999999957
20
419.00000000000006
30
0
11
80.999999999999957
21
419.00000000000006
31
0
0
LINE
5
127
100
AcDbEntity
8
0
100
AcDbLine
10
80.999999999999957
20
419.00000000000006
30
0
11
80.999999999999957
21
399.00000000000006
31
0
0
LINE
5
128
100
AcDbEntity
8
0
100
AcDbLine
10
80.999999999999957
20
399.00000000000006
30
0
11
86.999999999999957
21
399.00000000000006
31
0
0
LINE
5
129
100
AcDbEntity
8
0
100
AcDbLine
10
86.999999999999957
20
375
30
0
11
86.999999999999957
21
399.00000000000006
31
0
0
LINE
5
130
100
AcDbEntity
8
0
100
AcDbLine
10
86.999999999999957
20
419.00000000000006
30
0
11
86.999999999999957
21
443.00000000000006
31
0
0
LINE
5
131
100
AcDbEntity
8
0
100
AcDbLine
10
86.999999999999957
20
375
30
0
11
106.99999999999996
21
375
31
0
0
LINE
5
132
100
AcDbEntity
8
0
100
AcDbLine
10
126.99999999999996
20
375
30
0
11
126.99999999999996
21
369.00000549852854
31
0
0
LINE
5
133
100
AcDbEntity
8
0
100
AcDbLine
10
126.99999999999996
20
369.00000549852854
30
0
11
106.99999999999996
21
369.00000549852854
31
0
0
LINE
5
134
100
AcDbEntity
8
0
100
AcDbLine
10
106.99999999999996
20
369.00000549852854
30
0
11
106.99999999999996
21
375
31
0
0
LINE
5
135
100
AcDbEntity
8
0
100
AcDbLine
10
126.99999999999996
20
443.00000000000006
30
0
11
126.99999999999996
21
449.00000000000006
31
0
0
LINE
5
136
100
AcDbEntity
8
0
100
AcDbLine
10
126.99999999999996
20
449.00000000000006
30
0
11
106.99999999999996
21
449.00000000000006
31
0
0
LINE
5
137
100
AcDbEntity
8
0
100
AcDbLine
10
106.99999999999996
20
449.00000000000006
30
0
11
106.99999999999996
21
443.00000000000006
31
0
0
LINE
5
138
100
AcDbEntity
8
0
100
AcDbLine
10
86.999999999999957
20
443.00000000000006
30
0
11
106.99999999999996
21
443.00000000000006
31
0
0
LINE
5
139
100
AcDbEntity
8
0
100
AcDbLine
10
631
20
419.00000000000006
30
0
11
625
21
419.00000000000006
31
0
0
LINE
5
140
100
AcDbEntity
8
0
100
AcDbLine
10
625
20
399.00000000000006
30
0
11
631
21
399.00000000000006
31
0
0
LINE
5
141
100
AcDbEntity
8
0
100
AcDbLine
10
631
20
399.00000000000006
30
0
11
631
21
419.00000000000006
31
0
0
LINE
5
142
100
AcDbEntity
8
0
100
AcDbLine
10
625
20
443.00000000000006
30
0
11
625
21
419.00000000000006
31
0
0
LINE
5
143
100
AcDbEntity
8
0
100
AcDbLine
10
625
20
399.00000000000006
30
0
11
625
21
375
31
0
0
LINE
5
144
100
AcDbEntity
8
0
100
AcDbLine
10
625
20
375
30
0
11
605
21
375
31
0
0
LINE
5
145
100
AcDbEntity
8
0
100
AcDbLine
10
605
20
375
30
0
11
605
21
369
31
0
0
LINE
5
146
100
AcDbEntity
8
0
100
AcDbLine
10
585
20
375
30
0
11
585
21
369
31
0
0
LINE
5
147
100
AcDbEntity
8
0
100
AcDbLine
10
585
20
369
30
0
11
605
21
369
31
0
0
LINE
5
148
100
AcDbEntity
8
0
100
AcDbLine
10
605
20
443.00000000000006
30
0
11
605
21
449.00000000000006
31
0
0
LINE
5
149
100
AcDbEntity
8
0
100
AcDbLine
10
605
20
449.00000000000006
30
0
11
585
21
449.00000000000006
31
0
0
LINE
5
150
100
AcDbEntity
8
0
100
AcDbLine
10
585
20
449.00000000000006
30
0
11
585
21
443.00000000000006
31
0
0
LINE
5
151
100
AcDbEntity
8
0
100
AcDbLine
10
605
20
443.00000000000006
30
0
11
625
21
443.00000000000006
31
0
0
LINE
5
152
100
AcDbEntity
8
0
100
AcDbLine
10
126.99999999999996
20
443.00000000000006
30
0
11
128.50000191479918
21
443.00000000000006
31
0
0
LWPOLYLINE
5
153
100
AcDbEntity
8
0
100
AcDbPolyline
90
2
70
1
43
0.0
10
127.00000099999997
20
441
10
127.00000099999997
20
441
0
LINE
5
154
100
AcDbEntity
8
0
100
AcDbLine
10
439.00000654160976
20
400
30
0
11
439.00000177323824
21
378.00000563263887
31
0
0
LINE
5
155
100
AcDbEntity
8
0
100
AcDbLine
10
273.00000168383116
20
375
30
0
11
273.00000168383116
21
395.38238001737284
31
0
0
LINE
5
156
100
AcDbEntity
8
0
100
AcDbLine
10
438.92884672235425
20
395.38238001737284
30
0
11
439.00000177323824
21
395.38238001737284
31
0
0
LINE
5
157
100
AcDbEntity
8
0
100
AcDbLine
10
439.00000177323824
20
395.38238001737284
30
0
11
439.00000177323824
21
375
31
0
0
LINE
5
158
100
AcDbEntity
8
0
100
AcDbLine
10
438.92884672235425
20
400
30
0
11
273.00000168383116
21
400
31
0
0
LINE
5
159
100
AcDbEntity
8
0
100
AcDbLine
10
273.00000168383116
20
400
30
0
11
273.00000168383116
21
375
31
0
0
LINE
5
160
100
AcDbEntity
8
0
100
AcDbLine
10
273.00000168383116
20
400
30
0
11
439.00000654160976
21
400
31
0
0
LWPOLYLINE
5
161
100
AcDbEntity
8
0
100
AcDbPolyline
90
4
70
1
43
0.0
10
464.92698287963862
20
348.92694473266607
10
464.92698287963862
20
182.92694473266604
10
436.92698287963867
20
182.92694473266604
10
436.92698287963867
20
348.92694473266607
0
CIRCLE
5
162
100
AcDbEntity
8
0
100
AcDbCircle
10
100.00000131130221
20
440.00000655651093
30
0
40
1.0499999999999901
210
0
220
0
230
1
0
CIRCLE
5
163
100
AcDbEntity
8
0
100
AcDbCircle
10
100.00000131130221
20
412.00000613927841
30
0
40
1.0500000000000087
210
0
220
0
230
1
0
CIRCLE
5
164
100
AcDbEntity
8
0
100
AcDbCircle
10
132.00000131130221
20
440.00000655651093
30
0
40
1.0499999999999901
210
0
220
0
230
1
0
CIRCLE
5
165
100
AcDbEntity
8
0
100
AcDbCircle
10
132.00000131130221
20
412.00000613927841
30
0
40
1.0500000000000087
210
0
220
0
230
1
0
CIRCLE
5
166
100
AcDbEntity
8
0
100
AcDbCircle
10
164.00000131130219
20
440.00000655651093
30
0
40
1.0499999999999901
210
0
220
0
230
1
0
CIRCLE
5
167
100
AcDbEntity
8
0
100
AcDbCircle
10
164.00000131130219
20
412.00000613927841
30
0
40
1.0500000000000087
210
0
220
0
230
1
0
CIRCLE
5
168
100
AcDbEntity
8
0
100
AcDbCircle
10
196.00000131130216
20
440.00000655651093
30
0
40
1.0499999999999901
210
0
220
0
230
1
0
CIRCLE
5
169
100
AcDbEntity
8
0
100
AcDbCircle
10
196.00000131130216
20
412.00000613927841
30
0
40
1.0500000000000087
210
0
220
0
230
1
0
CIRCLE
5
170
100
AcDbEntity
8
0
100
AcDbCircle
10
228.00000131130219
20
440.00000655651093
30
0
40
1.0499999999999901
210
0
220
0
230
1
0
CIRCLE
5
171
100
AcDbEntity
8
0
100
AcDbCircle
10
228.00000131130219
20
412.00000613927841
30
0
40
1.0500000000000087
210
0
220
0
230
1
0
CIRCLE
5
172
100
AcDbEntity
8
0
100
AcDbCircle
10
260.00000131130213
20
440.00000655651093
30
0
40
1.0499999999999901
210
0
220
0
230
1
0
CIRCLE
5
173
100
AcDbEntity
8
0
100
AcDbCircle
10
260.00000131130213
20
412.00000613927841
30
0
40
1.0500000000000087
210
0
220
0
230
1
0
CIRCLE
5
174
100
AcDbEntity
8
0
100
AcDbCircle
10
292.00000131130219
20
440.00000655651093
30
0
40
1.0499999999999901
210
0
220
0
230
1
0
CIRCLE
5
175
100
AcDbEntity
8
0
100
AcDbCircle
10
292.00000131130219
20
412.00000613927841
30
0
40
1.0500000000000087
210
0
220
0
230
1
0
CIRCLE
5
176
100
AcDbEntity
8
0
100
AcDbCircle
10
324.00000131130219
20
440.00000655651093
30
0
40
1.0499999999999901
210
0
220
0
230
1
0
CIRCLE
5
177
100
AcDbEntity
8
0
100
AcDbCircle
10
324.00000131130219
20
412.00000613927841
30
0
40
1.0500000000000087
210
0
220
0
230
1
0
CIRCLE
5
178
100
AcDbEntity
8
0
100
AcDbCircle
10
356.00000131130224
20
440.00000655651093
30
0
40
1.0499999999999901
210
0
220
0
230
1
0
CIRCLE
5
179
100
AcDbEntity
8
0
100
AcDbCircle
10
356.00000131130224
20
412.00000613927841
30
0
40
1.0500000000000087
210
0
220
0
230
1
0
CIRCLE
5
180
100
AcDbEntity
8
0
100
AcDbCircle
10
388.00000131130219
20
440.00000655651093
30
0
40
1.0499999999999901
210
0
220
0
230
1
0
CIRCLE
5
181
100
AcDbEntity
8
0
100
AcDbCircle
10
388.00000131130219
20
412.00000613927841
30
0
40
1.0500000000000087
210
0
220
0
230
1
0
CIRCLE
5
182
100
AcDbEntity
8
0
100
AcDbCircle
10
420.00000131130219
20
440.00000655651093
30
0
40
1.0499999999999901
210
0
220
0
230
1
0
CIRCLE
5
183
100
AcDbEntity
8
0
100
AcDbCircle
10
420.00000131130219
20
412.00000613927841
30
0
40
1.0500000000000087
210
0
220
0
230
1
0
CIRCLE
5
184
100
AcDbEntity
8
0
100
AcDbCircle
10
452.00000131130224
20
440.00000655651093
30
0
40
1.0499999999999901
210
0
220
0
230
1
0
CIRCLE
5
185
100
AcDbEntity
8
0
100
AcDbCircle
10
452.00000131130224
20
412.00000613927841
30
0
40
1.0500000000000087
210
0
220
0
230
1
0
CIRCLE
5
186
100
AcDbEntity
8
0
100
AcDbCircle
10
484.00000131130241
20
440.00000655651093
30
0
40
1.0499999999999901
210
0
220
0
230
1
0
CIRCLE
5
187
100
AcDbEntity
8
0
100
AcDbCircle
10
484.00000131130241
20
412.00000613927841
30
0
40
1.0500000000000087
210
0
220
0
230
1
0
CIRCLE
5
188
100
AcDbEntity
8
0
100
AcDbCircle
10
516.00000131130219
20
440.00000655651093
30
0
40
1.0499999999999901
210
0
220
0
230
1
0
CIRCLE
5
189
100
AcDbEntity
8
0
100
AcDbCircle
10
516.00000131130219
20
412.00000613927841
30
0
40
1.0500000000000087
210
0
220
0
230
1
0
CIRCLE
5
190
100
AcDbEntity
8
0
100
AcDbCircle
10
548.00000131130219
20
440.00000655651093
30
0
40
1.0499999999999901
210
0
220
0
230
1
0
CIRCLE
5
191
100
AcDbEntity
8
0
100
AcDbCircle
10
548.00000131130219
20
412.00000613927841
30
0
40
1.0500000000000087
210
0
220
0
230
1
0
CIRCLE
5
192
100
AcDbEntity
8
0
100
AcDbCircle
10
580.00000131130207
20
440.00000655651093
30
0
40
1.0499999999999901
210
0
220
0
230
1
0
CIRCLE
5
193
100
AcDbEntity
8
0
100
AcDbCircle
10
580.00000131130207
20
412.00000613927841
30
0
40
1.0500000000000087
210
0
220
0
230
1
0
CIRCLE
5
194
100
AcDbEntity
8
0
100
AcDbCircle
10
612.00000131130207
20
440.00000655651093
30
0
40
1.0499999999999901
210
0
220
0
230
1
0
CIRCLE
5
195
100
AcDbEntity
8
0
100
AcDbCircle
10
612.00000131130207
20
412.00000613927841
30
0
40
1.0500000000000087
210
0
220
0
230
1
0
LINE
5
196
100
AcDbEntity
8
0
100
AcDbLine
10
273.00000168383116
20
378.00000563263887
30
0
11
273.00000168383116
21
400
31
0
0
LINE
5
197
100
AcDbEntity
8
0
100
AcDbLine
10
227
20
449.00000000000006
30
0
11
247
21
449.00000000000006
31
0
0
LINE
5
198
100
AcDbEntity
8
0
100
AcDbLine
10
247
20
449.00000000000006
30
0
11
247
21
443.00000000000006
31
0
0
LINE
5
199
100
AcDbEntity
8
0
100
AcDbLine
10
227
20
443.00000000000006
30
0
11
227
21
449.00000000000006
31
0
0
LINE
5
200
100
AcDbEntity
8
0
100
AcDbLine
10
128.50000191479918
20
443.00000000000006
30
0
11
227
21
443.00000000000006
31
0
0
LINE
5
201
100
AcDbEntity
8
0
100
AcDbLine
10
247
20
375
30
0
11
247
21
369
31
0
0
LINE
5
202
100
AcDbEntity
8
0
100
AcDbLine
10
247
20
369
30
0
11
227
21
369
31
0
0
LINE
5
203
100
AcDbEntity
8
0
100
AcDbLine
10
227
20
369
30
0
11
227
21
375
31
0
0
LINE
5
204
100
AcDbEntity
8
0
100
AcDbLine
10
273.00000168383116
20
375
30
0
11
247
21
375
31
0
0
LINE
5
205
100
AcDbEntity
8
0
100
AcDbLine
10
227
20
375
30
0
11
126.99999999999996
21
375
31
0
0
LINE
5
206
100
AcDbEntity
8
0
100
AcDbLine
10
485
20
449.00000000000006
30
0
11
465
21
449.00000000000006
31
0
0
LINE
5
207
100
AcDbEntity
8
0
100
AcDbLine
10
465
20
449.00000000000006
30
0
11
465
21
443.00000000000006
31
0
0
LINE
5
208
100
AcDbEntity
8
0
100
AcDbLine
10
485
20
443.00000000000006
30
0
11
485
21
449.00000000000006
31
0
0
LINE
5
209
100
AcDbEntity
8
0
100
AcDbLine
10
247
20
443.00000000000006
30
0
11
465
21
443.00000000000006
31
0
0
LINE
5
210
100
AcDbEntity
8
0
100
AcDbLine
10
485
20
443.00000000000006
30
0
11
585
21
443.00000000000006
31
0
0
LINE
5
211
100
AcDbEntity
8
0
100
AcDbLine
10
485
20
375
30
0
11
485
21
369
31
0
0
LINE
5
212
100
AcDbEntity
8
0
100
AcDbLine
10
485
20
369
30
0
11
465
21
369
31
0
0
LINE
5
213
100
AcDbEntity
8
0
100
AcDbLine
10
465
20
369
30
0
11
465
21
375
31
0
0
LINE
5
214
100
AcDbEntity
8
0
100
AcDbLine
10
585
20
375
30
0
11
485
21
375
31
0
0
LINE
5
215
100
AcDbEntity
8
0
100
AcDbLine
10
465
20
375
30
0
11
439.00000177323824
21
375
31
0
0
LWPOLYLINE
5
216
100
AcDbEntity
8
0
100
AcDbPolyline
90
4
70
1
43
0.0
10
249.00000000000003
20
122.00000000000004
10
229.00000000000003
20
122.00000000000004
10
229.00000000000003
20
128.00000000000006
10
249.00000000000003
20
128.00000000000006
0
LWPOLYLINE
5
217
100
AcDbEntity
8
0
100
AcDbPolyline
90
4
70
1
43
0.0
10
487
20
122.00000000000001
10
467
20
122.00000000000001
10
467
20
128.00000000000006
10
487
20
128.00000000000006
0
LWPOLYLINE
5
218
100
AcDbEntity
8
0
100
AcDbPolyline
90
4
70
1
43
0.0
10
487
20
44
10
467
20
44
10
467
20
50
10
487
20
50
0
LWPOLYLINE
5
219
100
AcDbEntity
8
0
100
AcDbPolyline
90
4
70
1
43
0.0
10
229.00000000000003
20
44
10
229.00000000000003
20
50
10
249.00000000000003
20
50
10
249.00000000000003
20
44
0
LWPOLYLINE
5
220
100
AcDbEntity
8
0
100
AcDbPolyline
90
4
70
1
43
0.0
10
377.84888358115199
20
334.28922340612297
10
405.84888358115194
20
334.28922340612297
10
405.84888358115194
20
299.28922340612291
10
377.84888358115199
20
299.28922340612291
0
LWPOLYLINE
5
221
100
AcDbEntity
8
0
100
AcDbPolyline
90
4
70
1
43
0.0
10
408.31008721901861
20
256.61690212156725
10
408.31008721901861
20
192.61690212156731
10
380.31008721901856
20
192.61690212156731
10
380.31008721901856
20
256.61690212156725
0
LINE
5
222
100
AcDbEntity
8
0
100
AcDbLine
10
558.00000831484806
20
274.00000414252281
30
0
11
528.00000786781311
21
274.00000414252281
31
0
0
LINE
5
223
100
AcDbEntity
8
0
100
AcDbLine
10
528.00000786781311
20
301.25000990927219
30
0
11
558.00000786781311
21
301.25000990927219
31
0
0
LINE
5
224
100
AcDbEntity
8
0
100
AcDbLine
10
558.00000786781311
20
301.25000990927219
30
0
11
558.00000786781311
21
308.75000990927219
31
0
0
LINE
5
225
100
AcDbEntity
8
0
100
AcDbLine
10
528.00000786781311
20
308.75000990927219
30
0
11
528.00000786781311
21
301.25000990927219
31
0
0
LWPOLYLINE
5
226
100
AcDbEntity
8
0
100
AcDbPolyline
90
4
70
1
43
0.0
10
494.00000736117363
20
278.0000042021274
10
524.00000780820847
20
278.0000042021274
10
524.00000780820847
20
280.00000423192972
10
494.00000736117363
20
280.00000423192972
0
LWPOLYLINE
5
227
100
AcDbEntity
8
0
100
AcDbPolyline
90
4
70
1
43
0.0
10
494.00000831484806
20
238.00000000000011
10
494.00000831484806
20
244.00000000000009
10
558.00000831484806
20
244.00000000000009
10
558.00000831484806
20
238.00000000000011
0
LWPOLYLINE
5
228
100
AcDbEntity
8
0
100
AcDbPolyline
90
4
70
1
43
0.0
10
111.60000131130218
20
437.60000634789463
10
88.400001311302177
20
437.60000634789463
10
88.400001311302177
20
414.4000063478947
10
111.60000131130218
20
414.4000063478947
0
LWPOLYLINE
5
229
100
AcDbEntity
8
0
100
AcDbPolyline
90
4
70
1
43
0.0
10
120.40000131130216
20
437.60000634789463
10
120.40000131130216
20
414.4000063478947
10
143.60000131130218
20
414.4000063478947
10
143.60000131130218
20
437.60000634789463
0
LWPOLYLINE
5
230
100
AcDbEntity
8
0
100
AcDbPolyline
90
4
70
1
43
0.0
10
152.40000131130219
20
437.60000634789463
10
152.40000131130219
20
414.4000063478947
10
175.60000131130215
20
414.4000063478947
10
175.60000131130215
20
437.60000634789463
0
LWPOLYLINE
5
231
100
AcDbEntity
8
0
100
AcDbPolyline
90
4
70
1
43
0.0
10
184.40000131130219
20
437.60000634789463
10
184.40000131130219
20
414.4000063478947
10
207.60000131130221
20
414.4000063478947
10
207.60000131130221
20
437.60000634789463
0
LWPOLYLINE
5
232
100
AcDbEntity
8
0
100
AcDbPolyline
90
4
70
1
43
0.0
10
216.40000131130219
20
437.60000634789463
10
216.40000131130219
20
414.4000063478947
10
239.60000131130218
20
414.4000063478947
10
239.60000131130218
20
437.60000634789463
0
LWPOLYLINE
5
233
100
AcDbEntity
8
0
100
AcDbPolyline
90
4
70
1
43
0.0
10
248.40000131130216
20
437.60000634789463
10
248.40000131130216
20
414.4000063478947
10
271.60000131130221
20
414.4000063478947
10
271.60000131130221
20
437.60000634789463
0
LWPOLYLINE
5
234
100
AcDbEntity
8
0
100
AcDbPolyline
90
4
70
1
43
0.0
10
280.40000131130222
20
437.60000634789463
10
280.40000131130222
20
414.4000063478947
10
303.60000131130221
20
414.4000063478947
10
303.60000131130221
20
437.60000634789463
0
LWPOLYLINE
5
235
100
AcDbEntity
8
0
100
AcDbPolyline
90
4
70
1
43
0.0
10
312.40000131130222
20
437.60000634789463
10
312.40000131130222
20
414.4000063478947
10
335.60000131130221
20
414.4000063478947
10
335.60000131130221
20
437.60000634789463
0
LWPOLYLINE
5
236
100
AcDbEntity
8
0
100
AcDbPolyline
90
4
70
1
43
0.0
10
344.40000131130216
20
437.60000634789463
10
344.40000131130216
20
414.4000063478947
10
367.60000131130221
20
414.4000063478947
10
367.60000131130221
20
437.60000634789463
0
LWPOLYLINE
5
237
100
AcDbEntity
8
0
100
AcDbPolyline
90
4
70
1
43
0.0
10
376.40000131130222
20
437.60000634789463
10
376.40000131130222
20
414.4000063478947
10
399.60000131130215
20
414.4000063478947
10
399.60000131130215
20
437.60000634789463
0
LWPOLYLINE
5
238
100
AcDbEntity
8
0
100
AcDbPolyline
90
4
70
1
43
0.0
10
408.40000131130216
20
437.60000634789463
10
408.40000131130216
20
414.4000063478947
10
431.60000131130221
20
414.4000063478947
10
431.60000131130221
20
437.60000634789463
0
LWPOLYLINE
5
239
100
AcDbEntity
8
0
100
AcDbPolyline
90
4
70
1
43
0.0
10
440.40000131130222
20
437.60000634789463
10
440.40000131130222
20
414.4000063478947
10
463.60000131130221
20
414.4000063478947
10
463.60000131130221
20
437.60000634789463
0
LWPOLYLINE
5
240
100
AcDbEntity
8
0
100
AcDbPolyline
90
4
70
1
43
0.0
10
472.40000131130222
20
437.60000634789463
10
472.40000131130222
20
414.4000063478947
10
495.60000131130221
20
414.4000063478947
10
495.60000131130221
20
437.60000634789463
0
LWPOLYLINE
5
241
100
AcDbEntity
8
0
100
AcDbPolyline
90
4
70
1
43
0.0
10
504.40000131130216
20
437.60000634789463
10
504.40000131130216
20
414.4000063478947
10
527.60000131130221
20
414.4000063478947
10
527.60000131130221
20
437.60000634789463
0
LWPOLYLINE
5
242
100
AcDbEntity
8
0
100
AcDbPolyline
90
4
70
1
43
0.0
10
536.40000131130228
20
437.60000634789463
10
536.40000131130228
20
414.4000063478947
10
559.60000131130221
20
414.4000063478947
10
559.60000131130221
20
437.60000634789463
0
LWPOLYLINE
5
243
100
AcDbEntity
8
0
100
AcDbPolyline
90
4
70
1
43
0.0
10
568.40000131130216
20
437.60000634789463
10
568.40000131130216
20
414.4000063478947
10
591.60000131130221
20
414.4000063478947
10
591.60000131130221
20
437.60000634789463
0
LWPOLYLINE
5
244
100
AcDbEntity
8
0
100
AcDbPolyline
90
4
70
1
43
0.0
10
600.40000131130216
20
437.60000634789463
10
600.40000131130216
20
414.4000063478947
10
623.60000131130221
20
414.4000063478947
10
623.60000131130221
20
437.60000634789463
0
ENDSEC
0
SECTION
2
OBJECTS
0
DICTIONARY
5
C
100
AcDbDictionary
3
ACAD_GROUP
350
D
3
ACAD_MLINESTYLE
350
17
0
DICTIONARY
5
D
100
AcDbDictionary
0
DICTIONARY
5
1A
330
C
100
AcDbDictionary
0
DICTIONARY
5
17
100
AcDbDictionary
0
ENDSEC
0
EOF
