0
SECTION
2
HEADER
9
$INSUNITS
70
4
9
$ACADVER
1
AC1014
9
$HANDSEED
5
FFFF
0
ENDSEC
0
SECTION
2
TABLES
0
TABLE
2
VPORT
5
8
100
AcDbSymbolTable
0
ENDTAB
0
TABLE
2
LTYPE
5
5
100
AcDbSymbolTable
0
LTYPE
5
14
100
AcDbSymbolTableRecord
100
AcDbLinetypeTableRecord
2
BYBLOCK
70
0
0
LTYPE
5
15
100
AcDbSymbolTableRecord
100
AcDbLinetypeTableRecord
2
BYLAYER
70
0
0
ENDTAB
0
TABLE
2
LAYER
5
2
100
AcDbSymbolTable
70
2
0
LAYER
5
50
100
AcDbSymbolTableRecord
100
AcDbLayerTableRecord
2
0
70
0
6
CONTINUOUS
0
ENDTAB
0
TABLE
2
STYLE
5
3
100
AcDbSymbolTable
70
1
0
STYLE
5
11
100
AcDbSymbolTableRecord
100
AcDbTextStyleTableRecord
2
STANDARD
70
0
0
ENDTAB
0
TABLE
2
VIEW
5
6
100
AcDbSymbolTable
70
0
0
ENDTAB
0
TABLE
2
UCS
5
7
100
AcDbSymbolTable
70
0
0
ENDTAB
0
TABLE
2
APPID
5
9
100
AcDbSymbolTable
70
2
0
APPID
5
12
100
AcDbSymbolTableRecord
100
AcDbRegAppTableRecord
2
ACAD
70
0
0
ENDTAB
0
TABLE
2
DIMSTYLE
5
A
100
AcDbSymbolTable
70
1
0
ENDTAB
0
TABLE
2
BLOCK_RECORD
5
1
100
AcDbSymbolTable
70
1
0
BLOCK_RECORD
5
1F
100
AcDbSymbolTableRecord
100
AcDbBlockTableRecord
2
*MODEL_SPACE
0
BLOCK_RECORD
5
1B
100
AcDbSymbolTableRecord
100
AcDbBlockTableRecord
2
*PAPER_SPACE
0
ENDTAB
0
ENDSEC
0
SECTION
2
BLOCKS
0
BLOCK
5
20
100
AcDbEntity
100
AcDbBlockBegin
2
*MODEL_SPACE
0
ENDBLK
5
21
100
AcDbEntity
100
AcDbBlockEnd
0
BLOCK
5
1C
100
AcDbEntity
100
AcDbBlockBegin
2
*PAPER_SPACE
0
ENDBLK
5
1D
100
AcDbEntity
100
AcDbBlockEnd
0
ENDSEC
0
SECTION
2
ENTITIES
0
LWPOLYLINE
5
100
100
AcDbEntity
8
0
100
AcDbPolyline
90
36
70
1
43
0.0
10
369
20
-114.00000000000006
10
369
20
113.99999999999999
10
375
20
114
10
375
20
134
10
369
20
134
10
369
20
174.00000000000003
10
329.00000490248209
20
174.00000259280205
10
329.00000490248209
20
180
10
309
20
180
10
309
20
174.00000000000003
10
-309
20
174.00000000000003
10
-309
20
180.00000000000003
10
-329
20
180.00000000000003
10
-329
20
174.00000000000003
10
-369
20
174.00000000000003
10
-369
20
134.00000000000003
10
-375
20
134.00000000000003
10
-375
20
114.00000000000006
10
-369
20
114.00000000000006
10
-369.00000549852854
20
-114.00000000000006
10
-375.00000000000006
20
-114.00000000000006
10
-375.00000000000006
20
-134.00000000000006
10
-369.00000549852854
20
-134.00000000000006
10
-369.00000000000006
20
-174.00000000000009
10
-329.00000000000006
20
-174.00000000000009
10
-329.00000000000006
20
-180.00000000000011
10
-309.00000000000006
20
-180.00000000000011
10
-309.00000000000006
20
-174.00000000000009
10
308.99999999999989
20
-174.00000000000003
10
308.99999999999989
20
-180.00000000000003
10
328.99999999999989
20
-180.00000000000003
10
328.99999999999989
20
-174.00000000000003
10
369
20
-174.00000000000003
10
369
20
-134.00000000000003
10
375
20
-134.00000000000003
10
375
20
-114.00000000000006
0
LINE
5
101
100
AcDbEntity
8
0
100
AcDbLine
10
328.99999999999989
20
-180.00000000000003
30
0
11
308.99999999999989
21
-180.00000000000003
31
0
0
LINE
5
102
100
AcDbEntity
8
0
100
AcDbLine
10
-329.00000000000006
20
-180.00000000000011
30
0
11
-309.00000000000006
21
-180.00000000000011
31
0
0
LINE
5
103
100
AcDbEntity
8
0
100
AcDbLine
10
369
20
174.00000000000003
30
0
11
329.00000490248209
21
174.00000259280205
31
0
0
LINE
5
104
100
AcDbEntity
8
0
100
AcDbLine
10
369
20
159.00000000000003
30
0
11
369
21
174.00000000000003
31
0
0
LINE
5
105
100
AcDbEntity
8
0
100
AcDbLine
10
309
20
174.00000000000003
30
0
11
305
21
174.00000000000003
31
0
0
LWPOLYLINE
5
106
100
AcDbEntity
8
0
100
AcDbPolyline
90
2
70
1
43
0.0
10
334.90000000000003
20
125.60000000000002
10
347.89999999999998
20
125.60000000000002
0
LWPOLYLINE
5
107
100
AcDbEntity
8
0
100
AcDbPolyline
90
4
70
1
43
0.0
10
347.89999999999998
20
-124.89999999999998
10
334.90000000000003
20
-124.89999999999998
10
334.90000000000003
20
-119.89999999999998
10
347.89999999999998
20
-119.89999999999998
0
LWPOLYLINE
5
108
100
AcDbEntity
8
0
100
AcDbPolyline
90
2
70
1
43
0.0
10
202.89999999999998
20
92.200000000000017
10
215.89999999999998
20
92.200000000000017
0
LINE
5
109
100
AcDbEntity
8
0
100
AcDbLine
10
215.89999999999998
20
-158.29999999999998
30
0
11
202.89999999999998
21
-158.29999999999998
31
0
0
LINE
5
110
100
AcDbEntity
8
0
100
AcDbLine
10
193.89999999999992
20
-141.59999999999999
30
0
11
180.89999999999998
21
-141.59999999999999
31
0
0
LINE
5
111
100
AcDbEntity
8
0
100
AcDbLine
10
224.89999999999998
20
-141.59999999999999
30
0
11
224.89999999999998
21
-136.59999999999999
31
0
0
LWPOLYLINE
5
112
100
AcDbEntity
8
0
100
AcDbPolyline
90
2
70
1
43
0.0
10
246.89999999999998
20
125.60000000000002
10
259.89999999999998
20
125.60000000000002
0
LINE
5
113
100
AcDbEntity
8
0
100
AcDbLine
10
290.89999999999998
20
159.00000000000003
30
0
11
303.89999999999998
21
159.00000000000003
31
0
0
LINE
5
114
100
AcDbEntity
8
0
100
AcDbLine
10
180.89999999999998
20
108.90000000000002
30
0
11
193.89999999999992
21
108.90000000000002
31
0
0
LINE
5
115
100
AcDbEntity
8
0
100
AcDbLine
10
312.89999999999998
20
142.30000000000001
30
0
11
325.89999999999998
21
142.30000000000001
31
0
0
LWPOLYLINE
5
116
100
AcDbEntity
8
0
100
AcDbPolyline
90
2
70
1
43
0.0
10
334.90000000000003
20
125.60000000000002
10
347.89999999999998
20
125.60000000000002
0
LWPOLYLINE
5
117
100
AcDbEntity
8
0
100
AcDbPolyline
90
2
70
1
43
0.0
10
202.89999999999998
20
92.200000000000017
10
215.89999999999998
20
92.200000000000017
0
LINE
5
118
100
AcDbEntity
8
0
100
AcDbLine
10
347.89999999999998
20
-124.89999999999998
30
0
11
334.90000000000003
21
-124.89999999999998
31
0
0
LINE
5
119
100
AcDbEntity
8
0
100
AcDbLine
10
224.89999999999998
20
108.90000000000002
30
0
11
237.89999999999995
21
108.90000000000002
31
0
0
LINE
5
120
100
AcDbEntity
8
0
100
AcDbLine
10
237.89999999999995
20
-141.59999999999999
30
0
11
224.89999999999998
21
-141.59999999999999
31
0
0
LINE
5
121
100
AcDbEntity
8
0
100
AcDbLine
10
334.90000000000003
20
125.60000000000002
30
0
11
347.89999999999998
21
125.60000000000002
31
0
0
LINE
5
122
100
AcDbEntity
8
0
100
AcDbLine
10
347.89999999999998
20
120.60000000000002
30
0
11
334.90000000000003
21
120.60000000000002
31
0
0
LWPOLYLINE
5
123
100
AcDbEntity
8
0
100
AcDbPolyline
90
2
70
1
43
0.0
10
334.90000000000003
20
120.60000000000002
10
334.90000000000003
20
125.60000000000002
0
LINE
5
124
100
AcDbEntity
8
0
100
AcDbLine
10
347.89999999999998
20
-124.89999999999998
30
0
11
334.90000000000003
21
-124.89999999999998
31
0
0
LINE
5
125
100
AcDbEntity
8
0
100
AcDbLine
10
347.89999999999998
20
125.60000000000002
30
0
11
347.89999999999998
21
120.60000000000002
31
0
0
LINE
5
126
100
AcDbEntity
8
0
100
AcDbLine
10
325.89999999999998
20
137.30000000000001
30
0
11
312.89999999999998
21
137.30000000000001
31
0
0
LWPOLYLINE
5
127
100
AcDbEntity
8
0
100
AcDbPolyline
90
4
70
1
43
0.0
10
312.89999999999998
20
-108.19999999999999
10
325.89999999999998
20
-108.19999999999999
10
325.89999999999998
20
-103.19999999999999
10
312.89999999999998
20
-103.19999999999999
0
LINE
5
128
100
AcDbEntity
8
0
100
AcDbLine
10
290.89999999999998
20
-91.499999999999986
30
0
11
303.89999999999998
21
-91.499999999999986
31
0
0
LINE
5
129
100
AcDbEntity
8
0
100
AcDbLine
10
303.89999999999998
20
-86.499999999999986
30
0
11
290.89999999999998
21
-86.499999999999986
31
0
0
LINE
5
130
100
AcDbEntity
8
0
100
AcDbLine
10
268.89999999999998
20
-108.19999999999999
30
0
11
281.90000000000003
21
-108.19999999999999
31
0
0
LINE
5
131
100
AcDbEntity
8
0
100
AcDbLine
10
281.90000000000003
20
-103.19999999999999
30
0
11
268.89999999999998
21
-103.19999999999999
31
0
0
LINE
5
132
100
AcDbEntity
8
0
100
AcDbLine
10
246.89999999999998
20
-124.89999999999998
30
0
11
259.89999999999998
21
-124.89999999999998
31
0
0
LINE
5
133
100
AcDbEntity
8
0
100
AcDbLine
10
259.89999999999998
20
-119.89999999999998
30
0
11
246.89999999999998
21
-119.89999999999998
31
0
0
LINE
5
134
100
AcDbEntity
8
0
100
AcDbLine
10
237.89999999999995
20
-136.59999999999999
30
0
11
224.89999999999998
21
-136.59999999999999
31
0
0
LINE
5
135
100
AcDbEntity
8
0
100
AcDbLine
10
215.89999999999998
20
-158.29999999999998
30
0
11
215.89999999999998
21
-153.29999999999998
31
0
0
LINE
5
136
100
AcDbEntity
8
0
100
AcDbLine
10
215.89999999999998
20
-153.29999999999998
30
0
11
202.89999999999998
21
-153.29999999999998
31
0
0
LINE
5
137
100
AcDbEntity
8
0
100
AcDbLine
10
193.89999999999992
20
-136.59999999999999
30
0
11
180.89999999999998
21
-136.59999999999999
31
0
0
LINE
5
138
100
AcDbEntity
8
0
100
AcDbLine
10
180.89999999999998
20
-136.59999999999999
30
0
11
180.89999999999998
21
-141.59999999999999
31
0
0
LINE
5
139
100
AcDbEntity
8
0
100
AcDbLine
10
193.89999999999992
20
103.90000000000002
30
0
11
180.89999999999998
21
103.90000000000002
31
0
0
LWPOLYLINE
5
140
100
AcDbEntity
8
0
100
AcDbPolyline
90
4
70
1
43
0.0
10
202.89999999999998
20
92.200000000000017
10
215.89999999999998
20
92.200000000000017
10
215.89999999999998
20
87.200000000000017
10
202.89999999999998
20
87.200000000000017
0
LINE
5
141
100
AcDbEntity
8
0
100
AcDbLine
10
237.89999999999995
20
108.90000000000002
30
0
11
237.89999999999995
21
103.90000000000002
31
0
0
LINE
5
142
100
AcDbEntity
8
0
100
AcDbLine
10
237.89999999999995
20
103.90000000000002
30
0
11
224.89999999999998
21
103.90000000000002
31
0
0
LINE
5
143
100
AcDbEntity
8
0
100
AcDbLine
10
259.89999999999998
20
125.60000000000002
30
0
11
259.89999999999998
21
120.60000000000002
31
0
0
LINE
5
144
100
AcDbEntity
8
0
100
AcDbLine
10
259.89999999999998
20
120.60000000000002
30
0
11
246.89999999999998
21
120.60000000000002
31
0
0
LWPOLYLINE
5
145
100
AcDbEntity
8
0
100
AcDbPolyline
90
2
70
1
43
0.0
10
246.89999999999998
20
120.60000000000002
10
246.89999999999998
20
125.60000000000002
0
LINE
5
146
100
AcDbEntity
8
0
100
AcDbLine
10
268.89999999999998
20
142.30000000000001
30
0
11
281.90000000000003
21
142.30000000000001
31
0
0
LINE
5
147
100
AcDbEntity
8
0
100
AcDbLine
10
281.90000000000003
20
137.30000000000001
30
0
11
268.89999999999998
21
137.30000000000001
31
0
0
LINE
5
148
100
AcDbEntity
8
0
100
AcDbLine
10
303.89999999999998
20
154.00000000000003
30
0
11
290.89999999999998
21
154.00000000000003
31
0
0
LINE
5
149
100
AcDbEntity
8
0
100
AcDbLine
10
290.89999999999998
20
154.00000000000003
30
0
11
290.89999999999998
21
159.00000000000003
31
0
0
LINE
5
150
100
AcDbEntity
8
0
100
AcDbLine
10
325.89999999999998
20
142.30000000000001
30
0
11
325.89999999999998
21
137.30000000000001
31
0
0
LINE
5
151
100
AcDbEntity
8
0
100
AcDbLine
10
312.89999999999998
20
137.30000000000001
30
0
11
312.89999999999998
21
142.30000000000001
31
0
0
LINE
5
152
100
AcDbEntity
8
0
100
AcDbLine
10
325.89999999999998
20
-103.19999999999999
30
0
11
325.89999999999998
21
-108.19999999999999
31
0
0
LINE
5
153
100
AcDbEntity
8
0
100
AcDbLine
10
303.89999999999998
20
159.00000000000003
30
0
11
303.89999999999998
21
154.00000000000003
31
0
0
LINE
5
154
100
AcDbEntity
8
0
100
AcDbLine
10
303.89999999999998
20
-86.499999999999986
30
0
11
303.89999999999998
21
-91.499999999999986
31
0
0
LINE
5
155
100
AcDbEntity
8
0
100
AcDbLine
10
290.89999999999998
20
-91.499999999999986
30
0
11
290.89999999999998
21
-86.499999999999986
31
0
0
LINE
5
156
100
AcDbEntity
8
0
100
AcDbLine
10
281.89999999999998
20
142.30000000000001
30
0
11
281.90000000000003
21
137.30000000000001
31
0
0
LINE
5
157
100
AcDbEntity
8
0
100
AcDbLine
10
281.90000000000003
20
-103.19999999999999
30
0
11
281.89999999999998
21
-108.19999999999999
31
0
0
LINE
5
158
100
AcDbEntity
8
0
100
AcDbLine
10
268.89999999999998
20
-108.19999999999999
30
0
11
268.89999999999998
21
-103.19999999999999
31
0
0
LINE
5
159
100
AcDbEntity
8
0
100
AcDbLine
10
268.89999999999998
20
137.30000000000001
30
0
11
268.89999999999998
21
142.30000000000001
31
0
0
LINE
5
160
100
AcDbEntity
8
0
100
AcDbLine
10
259.89999999999998
20
125.60000000000002
30
0
11
259.89999999999998
21
120.60000000000002
31
0
0
LINE
5
161
100
AcDbEntity
8
0
100
AcDbLine
10
259.89999999999998
20
125.60000000000002
30
0
11
259.89999999999998
21
120.60000000000002
31
0
0
LINE
5
162
100
AcDbEntity
8
0
100
AcDbLine
10
259.89999999999998
20
-119.89999999999998
30
0
11
259.89999999999998
21
-124.89999999999998
31
0
0
LINE
5
163
100
AcDbEntity
8
0
100
AcDbLine
10
246.89999999999998
20
-124.89999999999998
30
0
11
246.89999999999998
21
-119.89999999999998
31
0
0
LINE
5
164
100
AcDbEntity
8
0
100
AcDbLine
10
246.89999999999998
20
120.60000000000002
30
0
11
246.89999999999998
21
125.60000000000002
31
0
0
LINE
5
165
100
AcDbEntity
8
0
100
AcDbLine
10
224.89999999999998
20
103.90000000000002
30
0
11
224.89999999999998
21
108.90000000000002
31
0
0
LINE
5
166
100
AcDbEntity
8
0
100
AcDbLine
10
237.89999999999995
20
-136.59999999999999
30
0
11
237.89999999999995
21
-141.59999999999999
31
0
0
LINE
5
167
100
AcDbEntity
8
0
100
AcDbLine
10
237.89999999999995
20
-136.59999999999999
30
0
11
237.89999999999995
21
-141.59999999999999
31
0
0
LINE
5
168
100
AcDbEntity
8
0
100
AcDbLine
10
215.89999999999998
20
92.200000000000017
30
0
11
215.89999999999998
21
87.200000000000017
31
0
0
LINE
5
169
100
AcDbEntity
8
0
100
AcDbLine
10
215.89999999999998
20
-153.29999999999998
30
0
11
215.89999999999998
21
-158.29999999999998
31
0
0
LINE
5
170
100
AcDbEntity
8
0
100
AcDbLine
10
202.89999999999998
20
-158.29999999999998
30
0
11
202.89999999999998
21
-153.29999999999998
31
0
0
LINE
5
171
100
AcDbEntity
8
0
100
AcDbLine
10
202.89999999999998
20
87.200000000000017
30
0
11
202.89999999999998
21
92.200000000000017
31
0
0
LINE
5
172
100
AcDbEntity
8
0
100
AcDbLine
10
202.89999999999998
20
87.200000000000017
30
0
11
202.89999999999998
21
92.200000000000017
31
0
0
LINE
5
173
100
AcDbEntity
8
0
100
AcDbLine
10
215.89999999999998
20
92.200000000000017
30
0
11
215.89999999999998
21
87.200000000000017
31
0
0
LINE
5
174
100
AcDbEntity
8
0
100
AcDbLine
10
215.89999999999998
20
-153.29999999999998
30
0
11
215.89999999999998
21
-158.29999999999998
31
0
0
LINE
5
175
100
AcDbEntity
8
0
100
AcDbLine
10
180.89999999999998
20
103.90000000000002
30
0
11
180.89999999999998
21
108.90000000000002
31
0
0
LINE
5
176
100
AcDbEntity
8
0
100
AcDbLine
10
180.89999999999998
20
103.90000000000002
30
0
11
180.89999999999998
21
108.90000000000002
31
0
0
LINE
5
177
100
AcDbEntity
8
0
100
AcDbLine
10
180.89999999999998
20
103.90000000000002
30
0
11
180.89999999999998
21
108.90000000000002
31
0
0
LINE
5
178
100
AcDbEntity
8
0
100
AcDbLine
10
193.89999999999992
20
-136.59999999999999
30
0
11
193.89999999999992
21
-141.59999999999999
31
0
0
LINE
5
179
100
AcDbEntity
8
0
100
AcDbLine
10
193.89999999999992
20
108.90000000000002
30
0
11
193.89999999999992
21
103.90000000000002
31
0
0
LINE
5
180
100
AcDbEntity
8
0
100
AcDbLine
10
105.90000000000001
20
137.30000000000001
30
0
11
92.899999999999991
21
137.30000000000001
31
0
0
LWPOLYLINE
5
181
100
AcDbEntity
8
0
100
AcDbPolyline
90
2
70
1
43
0.0
10
26.899999999999977
20
92.200000000000017
10
39.899999999999949
20
92.200000000000017
0
LWPOLYLINE
5
182
100
AcDbEntity
8
0
100
AcDbPolyline
90
4
70
1
43
0.0
10
83.899999999999935
20
125.60000000000002
10
83.899999999999977
20
120.60000000000002
10
70.899999999999963
20
120.60000000000002
10
70.899999999999963
20
125.60000000000002
0
LINE
5
183
100
AcDbEntity
8
0
100
AcDbLine
10
136.89999999999998
20
142.30000000000001
30
0
11
149.89999999999995
21
142.30000000000001
31
0
0
LINE
5
184
100
AcDbEntity
8
0
100
AcDbLine
10
4.8999999999999488
20
103.90000000000002
30
0
11
4.8999999999999488
21
108.90000000000002
31
0
0
LINE
5
185
100
AcDbEntity
8
0
100
AcDbLine
10
149.89999999999995
20
137.30000000000001
30
0
11
136.89999999999998
21
137.30000000000001
31
0
0
LINE
5
186
100
AcDbEntity
8
0
100
AcDbLine
10
61.899999999999942
20
108.90000000000002
30
0
11
61.899999999999942
21
103.90000000000002
31
0
0
LWPOLYLINE
5
187
100
AcDbEntity
8
0
100
AcDbPolyline
90
6
70
1
43
0.0
10
26.899999999999977
20
87.200000000000017
10
26.899999999999977
20
92.200000000000017
10
39.899999999999949
20
92.200000000000017
10
39.899999999999949
20
87.200000000000017
10
39.899999999999949
20
92.200000000000017
10
26.899999999999977
20
92.200000000000017
0
LINE
5
188
100
AcDbEntity
8
0
100
AcDbLine
10
48.89999999999997
20
103.90000000000002
30
0
11
48.89999999999997
21
108.90000000000002
31
0
0
LINE
5
189
100
AcDbEntity
8
0
100
AcDbLine
10
127.89999999999995
20
154.00000000000003
30
0
11
114.89999999999995
21
154.00000000000003
31
0
0
LINE
5
190
100
AcDbEntity
8
0
100
AcDbLine
10
92.899999999999991
20
137.30000000000001
30
0
11
92.899999999999991
21
142.30000000000001
31
0
0
LWPOLYLINE
5
191
100
AcDbEntity
8
0
100
AcDbPolyline
90
4
70
1
43
0.0
10
158.90000000000001
20
120.60000000000002
10
158.90000000000001
20
125.60000000000002
10
171.89999999999998
20
125.60000000000002
10
171.89999999999998
20
120.60000000000002
0
LWPOLYLINE
5
192
100
AcDbEntity
8
0
100
AcDbPolyline
90
4
70
1
43
0.0
10
171.89999999999998
20
-124.89999999999998
10
158.90000000000001
20
-124.89999999999998
10
158.90000000000001
20
-119.89999999999998
10
171.89999999999998
20
-119.89999999999998
0
LINE
5
193
100
AcDbEntity
8
0
100
AcDbLine
10
158.90000000000001
20
125.60000000000002
30
0
11
171.89999999999998
21
125.60000000000002
31
0
0
LINE
5
194
100
AcDbEntity
8
0
100
AcDbLine
10
39.899999999999949
20
-153.29999999999998
30
0
11
39.899999999999949
21
-158.29999999999998
31
0
0
LINE
5
195
100
AcDbEntity
8
0
100
AcDbLine
10
39.899999999999949
20
-158.29999999999998
30
0
11
26.899999999999977
21
-158.29999999999998
31
0
0
LINE
5
196
100
AcDbEntity
8
0
100
AcDbLine
10
158.90000000000001
20
120.60000000000002
30
0
11
158.90000000000001
21
125.60000000000002
31
0
0
LWPOLYLINE
5
197
100
AcDbEntity
8
0
100
AcDbPolyline
90
2
70
1
43
0.0
10
158.90000000000001
20
125.60000000000002
10
171.89999999999998
20
125.60000000000002
0
LINE
5
198
100
AcDbEntity
8
0
100
AcDbLine
10
83.899999999999935
20
-119.89999999999998
30
0
11
70.899999999999963
21
-119.89999999999998
31
0
0
LINE
5
199
100
AcDbEntity
8
0
100
AcDbLine
10
92.899999999999991
20
142.30000000000001
30
0
11
105.90000000000001
21
142.30000000000001
31
0
0
LINE
5
200
100
AcDbEntity
8
0
100
AcDbLine
10
83.899999999999935
20
125.60000000000002
30
0
11
83.899999999999977
21
120.60000000000002
31
0
0
LINE
5
201
100
AcDbEntity
8
0
100
AcDbLine
10
127.89999999999995
20
159.00000000000003
30
0
11
127.89999999999995
21
154.00000000000003
31
0
0
LINE
5
202
100
AcDbEntity
8
0
100
AcDbLine
10
17.89999999999992
20
103.90000000000002
30
0
11
4.8999999999999488
21
103.90000000000002
31
0
0
LINE
5
203
100
AcDbEntity
8
0
100
AcDbLine
10
114.89999999999995
20
-91.499999999999986
30
0
11
114.89999999999995
21
-86.499999999999986
31
0
0
LINE
5
204
100
AcDbEntity
8
0
100
AcDbLine
10
114.89999999999995
20
159.00000000000003
30
0
11
127.89999999999995
21
159.00000000000003
31
0
0
LINE
5
205
100
AcDbEntity
8
0
100
AcDbLine
10
48.89999999999997
20
108.90000000000002
30
0
11
61.899999999999942
21
108.90000000000002
31
0
0
LINE
5
206
100
AcDbEntity
8
0
100
AcDbLine
10
39.899999999999949
20
92.200000000000017
30
0
11
39.899999999999949
21
87.200000000000017
31
0
0
LINE
5
207
100
AcDbEntity
8
0
100
AcDbLine
10
70.899999999999963
20
120.60000000000002
30
0
11
70.899999999999963
21
125.60000000000002
31
0
0
LINE
5
208
100
AcDbEntity
8
0
100
AcDbLine
10
4.8999999999999488
20
-136.59999999999999
30
0
11
4.8999999999999488
21
-141.59999999999999
31
0
0
LINE
5
209
100
AcDbEntity
8
0
100
AcDbLine
10
4.8999999999999488
20
103.90000000000002
30
0
11
4.8999999999999488
21
108.90000000000002
31
0
0
LINE
5
210
100
AcDbEntity
8
0
100
AcDbLine
10
26.899999999999977
20
-158.29999999999998
30
0
11
26.899999999999977
21
-153.29999999999998
31
0
0
LINE
5
211
100
AcDbEntity
8
0
100
AcDbLine
10
114.89999999999995
20
-91.499999999999986
30
0
11
127.89999999999995
21
-91.499999999999986
31
0
0
LINE
5
212
100
AcDbEntity
8
0
100
AcDbLine
10
127.89999999999995
20
-86.499999999999986
30
0
11
114.89999999999995
21
-86.499999999999986
31
0
0
LINE
5
213
100
AcDbEntity
8
0
100
AcDbLine
10
4.8999999999999488
20
103.90000000000002
30
0
11
4.8999999999999488
21
108.90000000000002
31
0
0
LINE
5
214
100
AcDbEntity
8
0
100
AcDbLine
10
4.8999999999999488
20
108.90000000000002
30
0
11
17.89999999999992
21
108.90000000000002
31
0
0
LINE
5
215
100
AcDbEntity
8
0
100
AcDbLine
10
39.899999999999949
20
87.200000000000017
30
0
11
26.899999999999977
21
87.200000000000017
31
0
0
LINE
5
216
100
AcDbEntity
8
0
100
AcDbLine
10
61.899999999999942
20
-136.59999999999999
30
0
11
61.899999999999942
21
-141.59999999999999
31
0
0
LINE
5
217
100
AcDbEntity
8
0
100
AcDbLine
10
136.89999999999998
20
137.30000000000001
30
0
11
136.89999999999998
21
142.30000000000001
31
0
0
LINE
5
218
100
AcDbEntity
8
0
100
AcDbLine
10
70.899999999999963
20
120.60000000000002
30
0
11
70.899999999999963
21
125.60000000000002
31
0
0
LINE
5
219
100
AcDbEntity
8
0
100
AcDbLine
10
127.89999999999995
20
-86.499999999999986
30
0
11
127.89999999999995
21
-91.499999999999986
31
0
0
LWPOLYLINE
5
220
100
AcDbEntity
8
0
100
AcDbPolyline
90
4
70
1
43
0.0
10
149.89999999999995
20
-108.19999999999999
10
149.89999999999995
20
-103.19999999999999
10
136.89999999999998
20
-103.19999999999999
10
136.89999999999998
20
-108.19999999999999
0
LINE
5
221
100
AcDbEntity
8
0
100
AcDbLine
10
149.89999999999995
20
-103.19999999999999
30
0
11
149.89999999999995
21
-108.19999999999999
31
0
0
LINE
5
222
100
AcDbEntity
8
0
100
AcDbLine
10
92.899999999999991
20
-108.19999999999999
30
0
11
105.90000000000001
21
-108.19999999999999
31
0
0
LINE
5
223
100
AcDbEntity
8
0
100
AcDbLine
10
61.899999999999942
20
-136.59999999999999
30
0
11
48.89999999999997
21
-136.59999999999999
31
0
0
LINE
5
224
100
AcDbEntity
8
0
100
AcDbLine
10
70.899999999999963
20
-124.89999999999998
30
0
11
70.899999999999963
21
-119.89999999999998
31
0
0
LINE
5
225
100
AcDbEntity
8
0
100
AcDbLine
10
61.899999999999942
20
-141.59999999999999
30
0
11
48.89999999999997
21
-141.59999999999999
31
0
0
LINE
5
226
100
AcDbEntity
8
0
100
AcDbLine
10
92.899999999999991
20
-108.19999999999999
30
0
11
92.899999999999991
21
-103.19999999999999
31
0
0
LINE
5
227
100
AcDbEntity
8
0
100
AcDbLine
10
39.899999999999949
20
-153.29999999999998
30
0
11
26.899999999999977
21
-153.29999999999998
31
0
0
LINE
5
228
100
AcDbEntity
8
0
100
AcDbLine
10
39.899999999999949
20
-158.29999999999998
30
0
11
39.899999999999949
21
-153.29999999999998
31
0
0
LINE
5
229
100
AcDbEntity
8
0
100
AcDbLine
10
105.90000000000001
20
-103.19999999999999
30
0
11
105.89999999999996
21
-108.19999999999999
31
0
0
LINE
5
230
100
AcDbEntity
8
0
100
AcDbLine
10
17.89999999999992
20
-141.59999999999999
30
0
11
4.8999999999999488
21
-141.59999999999999
31
0
0
LINE
5
231
100
AcDbEntity
8
0
100
AcDbLine
10
39.899999999999949
20
-153.29999999999998
30
0
11
39.899999999999949
21
-158.29999999999998
31
0
0
LINE
5
232
100
AcDbEntity
8
0
100
AcDbLine
10
171.89999999999998
20
-124.89999999999998
30
0
11
158.90000000000001
21
-124.89999999999998
31
0
0
LINE
5
233
100
AcDbEntity
8
0
100
AcDbLine
10
171.89999999999998
20
-124.89999999999998
30
0
11
158.90000000000001
21
-124.89999999999998
31
0
0
LINE
5
234
100
AcDbEntity
8
0
100
AcDbLine
10
17.89999999999992
20
-136.59999999999999
30
0
11
4.8999999999999488
21
-136.59999999999999
31
0
0
LINE
5
235
100
AcDbEntity
8
0
100
AcDbLine
10
61.899999999999942
20
-136.59999999999999
30
0
11
61.899999999999942
21
-141.59999999999999
31
0
0
LINE
5
236
100
AcDbEntity
8
0
100
AcDbLine
10
48.89999999999997
20
-141.59999999999999
30
0
11
48.89999999999997
21
-136.59999999999999
31
0
0
LINE
5
237
100
AcDbEntity
8
0
100
AcDbLine
10
105.89999999999996
20
142.30000000000001
30
0
11
105.90000000000001
21
137.30000000000001
31
0
0
LINE
5
238
100
AcDbEntity
8
0
100
AcDbLine
10
26.899999999999977
20
87.200000000000017
30
0
11
26.899999999999977
21
92.200000000000017
31
0
0
LINE
5
239
100
AcDbEntity
8
0
100
AcDbLine
10
83.899999999999935
20
-119.89999999999998
30
0
11
83.899999999999935
21
-124.89999999999998
31
0
0
LINE
5
240
100
AcDbEntity
8
0
100
AcDbLine
10
158.90000000000001
20
125.60000000000002
30
0
11
171.89999999999998
21
125.60000000000002
31
0
0
LINE
5
241
100
AcDbEntity
8
0
100
AcDbLine
10
61.899999999999942
20
103.90000000000002
30
0
11
48.89999999999997
21
103.90000000000002
31
0
0
LINE
5
242
100
AcDbEntity
8
0
100
AcDbLine
10
17.89999999999992
20
108.90000000000002
30
0
11
17.89999999999992
21
103.90000000000002
31
0
0
LINE
5
243
100
AcDbEntity
8
0
100
AcDbLine
10
17.89999999999992
20
-136.59999999999999
30
0
11
17.89999999999992
21
-141.59999999999999
31
0
0
LINE
5
244
100
AcDbEntity
8
0
100
AcDbLine
10
149.89999999999995
20
142.30000000000001
30
0
11
149.89999999999995
21
137.30000000000001
31
0
0
LINE
5
245
100
AcDbEntity
8
0
100
AcDbLine
10
83.899999999999977
20
125.60000000000002
30
0
11
83.899999999999977
21
120.60000000000002
31
0
0
LINE
5
246
100
AcDbEntity
8
0
100
AcDbLine
10
70.899999999999963
20
125.60000000000002
30
0
11
83.899999999999935
21
125.60000000000002
31
0
0
LINE
5
247
100
AcDbEntity
8
0
100
AcDbLine
10
105.90000000000001
20
-103.19999999999999
30
0
11
92.899999999999991
21
-103.19999999999999
31
0
0
LINE
5
248
100
AcDbEntity
8
0
100
AcDbLine
10
114.89999999999995
20
154.00000000000003
30
0
11
114.89999999999995
21
159.00000000000003
31
0
0
LINE
5
249
100
AcDbEntity
8
0
100
AcDbLine
10
70.899999999999963
20
-124.89999999999998
30
0
11
83.899999999999935
21
-124.89999999999998
31
0
0
LINE
5
250
100
AcDbEntity
8
0
100
AcDbLine
10
26.899999999999977
20
92.200000000000017
30
0
11
39.899999999999949
21
92.200000000000017
31
0
0
LINE
5
251
100
AcDbEntity
8
0
100
AcDbLine
10
-70.100000000000023
20
137.30000000000001
30
0
11
-83.100000000000023
21
137.30000000000001
31
0
0
LWPOLYLINE
5
252
100
AcDbEntity
8
0
100
AcDbPolyline
90
2
70
1
43
0.0
10
-149.10000000000002
20
92.200000000000017
10
-136.10000000000008
20
92.200000000000017
0
LWPOLYLINE
5
253
100
AcDbEntity
8
0
100
AcDbPolyline
90
4
70
1
43
0.0
10
-92.10000000000008
20
125.60000000000002
10
-92.100000000000051
20
120.60000000000002
10
-105.10000000000005
20
120.60000000000002
10
-105.10000000000005
20
125.60000000000002
0
LINE
5
254
100
AcDbEntity
8
0
100
AcDbLine
10
-39.100000000000037
20
142.30000000000001
30
0
11
-26.100000000000065
21
142.30000000000001
31
0
0
LINE
5
255
100
AcDbEntity
8
0
100
AcDbLine
10
-171.10000000000008
20
103.90000000000002
30
0
11
-171.10000000000008
21
108.90000000000002
31
0
0
LINE
5
256
100
AcDbEntity
8
0
100
AcDbLine
10
-26.100000000000065
20
137.30000000000001
30
0
11
-39.100000000000037
21
137.30000000000001
31
0
0
LINE
5
257
100
AcDbEntity
8
0
100
AcDbLine
10
-114.10000000000008
20
108.90000000000002
30
0
11
-114.10000000000008
21
103.90000000000002
31
0
0
LWPOLYLINE
5
258
100
AcDbEntity
8
0
100
AcDbPolyline
90
6
70
1
43
0.0
10
-149.10000000000002
20
87.200000000000017
10
-149.10000000000002
20
92.200000000000017
10
-136.10000000000008
20
92.200000000000017
10
-136.10000000000008
20
87.200000000000017
10
-136.10000000000008
20
92.200000000000017
10
-149.10000000000002
20
92.200000000000017
0
LINE
5
259
100
AcDbEntity
8
0
100
AcDbLine
10
-127.10000000000005
20
103.90000000000002
30
0
11
-127.10000000000005
21
108.90000000000002
31
0
0
LINE
5
260
100
AcDbEntity
8
0
100
AcDbLine
10
-48.100000000000058
20
154.00000000000003
30
0
11
-61.100000000000065
21
154.00000000000003
31
0
0
LINE
5
261
100
AcDbEntity
8
0
100
AcDbLine
10
-83.100000000000023
20
137.30000000000001
30
0
11
-83.100000000000023
21
142.30000000000001
31
0
0
LWPOLYLINE
5
262
100
AcDbEntity
8
0
100
AcDbPolyline
90
4
70
1
43
0.0
10
-17.100000000000009
20
120.60000000000002
10
-17.100000000000009
20
125.60000000000002
10
-4.1000000000000369
20
125.60000000000002
10
-4.1000000000000369
20
120.60000000000002
0
LWPOLYLINE
5
263
100
AcDbEntity
8
0
100
AcDbPolyline
90
4
70
1
43
0.0
10
-4.1000000000000369
20
-124.89999999999998
10
-17.100000000000009
20
-124.89999999999998
10
-17.100000000000009
20
-119.89999999999998
10
-4.1000000000000369
20
-119.89999999999998
0
LINE
5
264
100
AcDbEntity
8
0
100
AcDbLine
10
-17.100000000000009
20
125.60000000000002
30
0
11
-4.1000000000000369
21
125.60000000000002
31
0
0
LINE
5
265
100
AcDbEntity
8
0
100
AcDbLine
10
-136.10000000000008
20
-153.29999999999998
30
0
11
-136.10000000000008
21
-158.29999999999998
31
0
0
LINE
5
266
100
AcDbEntity
8
0
100
AcDbLine
10
-136.10000000000008
20
-158.29999999999998
30
0
11
-149.10000000000002
21
-158.29999999999998
31
0
0
LINE
5
267
100
AcDbEntity
8
0
100
AcDbLine
10
-17.100000000000009
20
120.60000000000002
30
0
11
-17.100000000000009
21
125.60000000000002
31
0
0
LWPOLYLINE
5
268
100
AcDbEntity
8
0
100
AcDbPolyline
90
2
70
1
43
0.0
10
-17.100000000000009
20
125.60000000000002
10
-4.1000000000000369
20
125.60000000000002
0
LINE
5
269
100
AcDbEntity
8
0
100
AcDbLine
10
-92.10000000000008
20
-119.89999999999998
30
0
11
-105.10000000000005
21
-119.89999999999998
31
0
0
LINE
5
270
100
AcDbEntity
8
0
100
AcDbLine
10
-83.100000000000023
20
142.30000000000001
30
0
11
-70.100000000000023
21
142.30000000000001
31
0
0
LINE
5
271
100
AcDbEntity
8
0
100
AcDbLine
10
-92.10000000000008
20
125.60000000000002
30
0
11
-92.100000000000051
21
120.60000000000002
31
0
0
LINE
5
272
100
AcDbEntity
8
0
100
AcDbLine
10
-48.100000000000058
20
159.00000000000003
30
0
11
-48.100000000000058
21
154.00000000000003
31
0
0
LINE
5
273
100
AcDbEntity
8
0
100
AcDbLine
10
-158.10000000000008
20
103.90000000000002
30
0
11
-171.10000000000008
21
103.90000000000002
31
0
0
LINE
5
274
100
AcDbEntity
8
0
100
AcDbLine
10
-61.100000000000065
20
-91.499999999999986
30
0
11
-61.100000000000065
21
-86.499999999999986
31
0
0
LINE
5
275
100
AcDbEntity
8
0
100
AcDbLine
10
-61.100000000000065
20
159.00000000000003
30
0
11
-48.100000000000058
21
159.00000000000003
31
0
0
LINE
5
276
100
AcDbEntity
8
0
100
AcDbLine
10
-127.10000000000005
20
108.90000000000002
30
0
11
-114.10000000000008
21
108.90000000000002
31
0
0
LINE
5
277
100
AcDbEntity
8
0
100
AcDbLine
10
-136.10000000000008
20
92.200000000000017
30
0
11
-136.10000000000008
21
87.200000000000017
31
0
0
LINE
5
278
100
AcDbEntity
8
0
100
AcDbLine
10
-105.10000000000005
20
120.60000000000002
30
0
11
-105.10000000000005
21
125.60000000000002
31
0
0
LINE
5
279
100
AcDbEntity
8
0
100
AcDbLine
10
-171.10000000000008
20
-136.59999999999999
30
0
11
-171.10000000000008
21
-141.59999999999999
31
0
0
LINE
5
280
100
AcDbEntity
8
0
100
AcDbLine
10
-171.10000000000008
20
103.90000000000002
30
0
11
-171.10000000000008
21
108.90000000000002
31
0
0
LINE
5
281
100
AcDbEntity
8
0
100
AcDbLine
10
-149.10000000000002
20
-158.29999999999998
30
0
11
-149.10000000000002
21
-153.29999999999998
31
0
0
LINE
5
282
100
AcDbEntity
8
0
100
AcDbLine
10
-61.100000000000065
20
-91.499999999999986
30
0
11
-48.100000000000058
21
-91.499999999999986
31
0
0
LINE
5
283
100
AcDbEntity
8
0
100
AcDbLine
10
-48.100000000000058
20
-86.499999999999986
30
0
11
-61.100000000000065
21
-86.499999999999986
31
0
0
LINE
5
284
100
AcDbEntity
8
0
100
AcDbLine
10
-171.10000000000008
20
103.90000000000002
30
0
11
-171.10000000000008
21
108.90000000000002
31
0
0
LINE
5
285
100
AcDbEntity
8
0
100
AcDbLine
10
-171.10000000000008
20
108.90000000000002
30
0
11
-158.10000000000008
21
108.90000000000002
31
0
0
LINE
5
286
100
AcDbEntity
8
0
100
AcDbLine
10
-136.10000000000008
20
87.200000000000017
30
0
11
-149.10000000000002
21
87.200000000000017
31
0
0
LINE
5
287
100
AcDbEntity
8
0
100
AcDbLine
10
-114.10000000000008
20
-136.59999999999999
30
0
11
-114.10000000000008
21
-141.59999999999999
31
0
0
LINE
5
288
100
AcDbEntity
8
0
100
AcDbLine
10
-39.100000000000037
20
137.30000000000001
30
0
11
-39.100000000000037
21
142.30000000000001
31
0
0
LINE
5
289
100
AcDbEntity
8
0
100
AcDbLine
10
-105.10000000000005
20
120.60000000000002
30
0
11
-105.10000000000005
21
125.60000000000002
31
0
0
LINE
5
290
100
AcDbEntity
8
0
100
AcDbLine
10
-48.100000000000058
20
-86.499999999999986
30
0
11
-48.100000000000058
21
-91.499999999999986
31
0
0
LWPOLYLINE
5
291
100
AcDbEntity
8
0
100
AcDbPolyline
90
4
70
1
43
0.0
10
-26.100000000000065
20
-108.19999999999999
10
-26.100000000000065
20
-103.19999999999999
10
-39.100000000000037
20
-103.19999999999999
10
-39.100000000000037
20
-108.19999999999999
0
LINE
5
292
100
AcDbEntity
8
0
100
AcDbLine
10
-26.100000000000065
20
-103.19999999999999
30
0
11
-26.100000000000065
21
-108.19999999999999
31
0
0
LINE
5
293
100
AcDbEntity
8
0
100
AcDbLine
10
-83.100000000000023
20
-108.19999999999999
30
0
11
-70.100000000000023
21
-108.19999999999999
31
0
0
LINE
5
294
100
AcDbEntity
8
0
100
AcDbLine
10
-114.10000000000008
20
-136.59999999999999
30
0
11
-127.10000000000005
21
-136.59999999999999
31
0
0
LINE
5
295
100
AcDbEntity
8
0
100
AcDbLine
10
-105.10000000000005
20
-124.89999999999998
30
0
11
-105.10000000000005
21
-119.89999999999998
31
0
0
LINE
5
296
100
AcDbEntity
8
0
100
AcDbLine
10
-114.10000000000008
20
-141.59999999999999
30
0
11
-127.10000000000005
21
-141.59999999999999
31
0
0
LINE
5
297
100
AcDbEntity
8
0
100
AcDbLine
10
-83.100000000000023
20
-108.19999999999999
30
0
11
-83.100000000000023
21
-103.19999999999999
31
0
0
LINE
5
298
100
AcDbEntity
8
0
100
AcDbLine
10
-136.10000000000008
20
-153.29999999999998
30
0
11
-149.10000000000002
21
-153.29999999999998
31
0
0
LINE
5
299
100
AcDbEntity
8
0
100
AcDbLine
10
-136.10000000000008
20
-158.29999999999998
30
0
11
-136.10000000000008
21
-153.29999999999998
31
0
0
LINE
5
300
100
AcDbEntity
8
0
100
AcDbLine
10
-70.100000000000023
20
-103.19999999999999
30
0
11
-70.100000000000051
21
-108.19999999999999
31
0
0
LINE
5
301
100
AcDbEntity
8
0
100
AcDbLine
10
-158.10000000000008
20
-141.59999999999999
30
0
11
-171.10000000000008
21
-141.59999999999999
31
0
0
LINE
5
302
100
AcDbEntity
8
0
100
AcDbLine
10
-136.10000000000008
20
-153.29999999999998
30
0
11
-136.10000000000008
21
-158.29999999999998
31
0
0
LINE
5
303
100
AcDbEntity
8
0
100
AcDbLine
10
-4.1000000000000369
20
-124.89999999999998
30
0
11
-17.100000000000009
21
-124.89999999999998
31
0
0
LINE
5
304
100
AcDbEntity
8
0
100
AcDbLine
10
-4.1000000000000369
20
-124.89999999999998
30
0
11
-17.100000000000009
21
-124.89999999999998
31
0
0
LINE
5
305
100
AcDbEntity
8
0
100
AcDbLine
10
-158.10000000000008
20
-136.59999999999999
30
0
11
-171.10000000000008
21
-136.59999999999999
31
0
0
LINE
5
306
100
AcDbEntity
8
0
100
AcDbLine
10
-114.10000000000008
20
-136.59999999999999
30
0
11
-114.10000000000008
21
-141.59999999999999
31
0
0
LINE
5
307
100
AcDbEntity
8
0
100
AcDbLine
10
-127.10000000000005
20
-141.59999999999999
30
0
11
-127.10000000000005
21
-136.59999999999999
31
0
0
LINE
5
308
100
AcDbEntity
8
0
100
AcDbLine
10
-70.100000000000051
20
142.30000000000001
30
0
11
-70.100000000000023
21
137.30000000000001
31
0
0
LINE
5
309
100
AcDbEntity
8
0
100
AcDbLine
10
-149.10000000000002
20
87.200000000000017
30
0
11
-149.10000000000002
21
92.200000000000017
31
0
0
LINE
5
310
100
AcDbEntity
8
0
100
AcDbLine
10
-92.10000000000008
20
-119.89999999999998
30
0
11
-92.10000000000008
21
-124.89999999999998
31
0
0
LINE
5
311
100
AcDbEntity
8
0
100
AcDbLine
10
-17.100000000000009
20
125.60000000000002
30
0
11
-4.1000000000000369
21
125.60000000000002
31
0
0
LINE
5
312
100
AcDbEntity
8
0
100
AcDbLine
10
-114.10000000000008
20
103.90000000000002
30
0
11
-127.10000000000005
21
103.90000000000002
31
0
0
LINE
5
313
100
AcDbEntity
8
0
100
AcDbLine
10
-158.10000000000008
20
108.90000000000002
30
0
11
-158.10000000000008
21
103.90000000000002
31
0
0
LINE
5
314
100
AcDbEntity
8
0
100
AcDbLine
10
-158.10000000000008
20
-136.59999999999999
30
0
11
-158.10000000000008
21
-141.59999999999999
31
0
0
LINE
5
315
100
AcDbEntity
8
0
100
AcDbLine
10
-26.100000000000065
20
142.30000000000001
30
0
11
-26.100000000000065
21
137.30000000000001
31
0
0
LINE
5
316
100
AcDbEntity
8
0
100
AcDbLine
10
-92.100000000000051
20
125.60000000000002
30
0
11
-92.100000000000051
21
120.60000000000002
31
0
0
LINE
5
317
100
AcDbEntity
8
0
100
AcDbLine
10
-105.10000000000005
20
125.60000000000002
30
0
11
-92.10000000000008
21
125.60000000000002
31
0
0
LINE
5
318
100
AcDbEntity
8
0
100
AcDbLine
10
-70.100000000000023
20
-103.19999999999999
30
0
11
-83.100000000000023
21
-103.19999999999999
31
0
0
LINE
5
319
100
AcDbEntity
8
0
100
AcDbLine
10
-61.100000000000065
20
154.00000000000003
30
0
11
-61.100000000000065
21
159.00000000000003
31
0
0
LINE
5
320
100
AcDbEntity
8
0
100
AcDbLine
10
-105.10000000000005
20
-124.89999999999998
30
0
11
-92.10000000000008
21
-124.89999999999998
31
0
0
LINE
5
321
100
AcDbEntity
8
0
100
AcDbLine
10
-149.10000000000002
20
92.200000000000017
30
0
11
-136.10000000000008
21
92.200000000000017
31
0
0
LINE
5
322
100
AcDbEntity
8
0
100
AcDbLine
10
-246.10000000000011
20
137.30000000000001
30
0
11
-259.10000000000014
21
137.30000000000001
31
0
0
LWPOLYLINE
5
323
100
AcDbEntity
8
0
100
AcDbPolyline
90
2
70
1
43
0.0
10
-325.10000000000014
20
92.200000000000017
10
-312.10000000000014
20
92.200000000000017
0
LWPOLYLINE
5
324
100
AcDbEntity
8
0
100
AcDbPolyline
90
4
70
1
43
0.0
10
-268.10000000000014
20
125.60000000000002
10
-268.10000000000014
20
120.60000000000002
10
-281.10000000000014
20
120.60000000000002
10
-281.10000000000014
20
125.60000000000002
0
LINE
5
325
100
AcDbEntity
8
0
100
AcDbLine
10
-215.10000000000014
20
142.30000000000001
30
0
11
-202.10000000000014
21
142.30000000000001
31
0
0
LINE
5
326
100
AcDbEntity
8
0
100
AcDbLine
10
-347.10000000000014
20
103.90000000000002
30
0
11
-347.10000000000014
21
108.90000000000002
31
0
0
LINE
5
327
100
AcDbEntity
8
0
100
AcDbLine
10
-202.10000000000014
20
137.30000000000001
30
0
11
-215.10000000000014
21
137.30000000000001
31
0
0
LINE
5
328
100
AcDbEntity
8
0
100
AcDbLine
10
-290.10000000000014
20
108.90000000000002
30
0
11
-290.10000000000014
21
103.90000000000002
31
0
0
LWPOLYLINE
5
329
100
AcDbEntity
8
0
100
AcDbPolyline
90
6
70
1
43
0.0
10
-325.10000000000014
20
87.200000000000017
10
-325.10000000000014
20
92.200000000000017
10
-312.10000000000014
20
92.200000000000017
10
-312.10000000000014
20
87.200000000000017
10
-312.10000000000014
20
92.200000000000017
10
-325.10000000000014
20
92.200000000000017
0
LINE
5
330
100
AcDbEntity
8
0
100
AcDbLine
10
-303.10000000000014
20
103.90000000000002
30
0
11
-303.10000000000014
21
108.90000000000002
31
0
0
LINE
5
331
100
AcDbEntity
8
0
100
AcDbLine
10
-224.10000000000014
20
154.00000000000003
30
0
11
-237.10000000000014
21
154.00000000000003
31
0
0
LINE
5
332
100
AcDbEntity
8
0
100
AcDbLine
10
-259.10000000000014
20
137.30000000000001
30
0
11
-259.10000000000014
21
142.30000000000001
31
0
0
LWPOLYLINE
5
333
100
AcDbEntity
8
0
100
AcDbPolyline
90
4
70
1
43
0.0
10
-193.10000000000008
20
120.60000000000002
10
-193.10000000000008
20
125.60000000000002
10
-180.10000000000014
20
125.60000000000002
10
-180.10000000000014
20
120.60000000000002
0
LWPOLYLINE
5
334
100
AcDbEntity
8
0
100
AcDbPolyline
90
4
70
1
43
0.0
10
-180.10000000000014
20
-124.89999999999998
10
-193.10000000000008
20
-124.89999999999998
10
-193.10000000000008
20
-119.89999999999998
10
-180.10000000000014
20
-119.89999999999998
0
LINE
5
335
100
AcDbEntity
8
0
100
AcDbLine
10
-193.10000000000008
20
125.60000000000002
30
0
11
-180.10000000000014
21
125.60000000000002
31
0
0
LINE
5
336
100
AcDbEntity
8
0
100
AcDbLine
10
-312.10000000000014
20
-153.29999999999998
30
0
11
-312.10000000000014
21
-158.29999999999998
31
0
0
LINE
5
337
100
AcDbEntity
8
0
100
AcDbLine
10
-312.10000000000014
20
-158.29999999999998
30
0
11
-325.10000000000014
21
-158.29999999999998
31
0
0
LINE
5
338
100
AcDbEntity
8
0
100
AcDbLine
10
-193.10000000000008
20
120.60000000000002
30
0
11
-193.10000000000008
21
125.60000000000002
31
0
0
LWPOLYLINE
5
339
100
AcDbEntity
8
0
100
AcDbPolyline
90
2
70
1
43
0.0
10
-193.10000000000008
20
125.60000000000002
10
-180.10000000000014
20
125.60000000000002
0
LINE
5
340
100
AcDbEntity
8
0
100
AcDbLine
10
-268.10000000000014
20
-119.89999999999998
30
0
11
-281.10000000000014
21
-119.89999999999998
31
0
0
LINE
5
341
100
AcDbEntity
8
0
100
AcDbLine
10
-259.10000000000014
20
142.30000000000001
30
0
11
-246.10000000000011
21
142.30000000000001
31
0
0
LINE
5
342
100
AcDbEntity
8
0
100
AcDbLine
10
-268.10000000000014
20
125.60000000000002
30
0
11
-268.10000000000014
21
120.60000000000002
31
0
0
LINE
5
343
100
AcDbEntity
8
0
100
AcDbLine
10
-224.10000000000014
20
159.00000000000003
30
0
11
-224.10000000000014
21
154.00000000000003
31
0
0
LINE
5
344
100
AcDbEntity
8
0
100
AcDbLine
10
-334.10000000000019
20
103.90000000000002
30
0
11
-347.10000000000014
21
103.90000000000002
31
0
0
LINE
5
345
100
AcDbEntity
8
0
100
AcDbLine
10
-237.10000000000014
20
-91.499999999999986
30
0
11
-237.10000000000014
21
-86.499999999999986
31
0
0
LINE
5
346
100
AcDbEntity
8
0
100
AcDbLine
10
-237.10000000000014
20
159.00000000000003
30
0
11
-224.10000000000014
21
159.00000000000003
31
0
0
LINE
5
347
100
AcDbEntity
8
0
100
AcDbLine
10
-303.10000000000014
20
108.90000000000002
30
0
11
-290.10000000000014
21
108.90000000000002
31
0
0
LINE
5
348
100
AcDbEntity
8
0
100
AcDbLine
10
-312.10000000000014
20
92.200000000000017
30
0
11
-312.10000000000014
21
87.200000000000017
31
0
0
LINE
5
349
100
AcDbEntity
8
0
100
AcDbLine
10
-281.10000000000014
20
120.60000000000002
30
0
11
-281.10000000000014
21
125.60000000000002
31
0
0
LINE
5
350
100
AcDbEntity
8
0
100
AcDbLine
10
-347.10000000000014
20
-136.59999999999999
30
0
11
-347.10000000000014
21
-141.59999999999999
31
0
0
LINE
5
351
100
AcDbEntity
8
0
100
AcDbLine
10
-347.10000000000014
20
103.90000000000002
30
0
11
-347.10000000000014
21
108.90000000000002
31
0
0
LINE
5
352
100
AcDbEntity
8
0
100
AcDbLine
10
-325.10000000000014
20
-158.29999999999998
30
0
11
-325.10000000000014
21
-153.29999999999998
31
0
0
LINE
5
353
100
AcDbEntity
8
0
100
AcDbLine
10
-237.10000000000014
20
-91.499999999999986
30
0
11
-224.10000000000014
21
-91.499999999999986
31
0
0
LINE
5
354
100
AcDbEntity
8
0
100
AcDbLine
10
-224.10000000000014
20
-86.499999999999986
30
0
11
-237.10000000000014
21
-86.499999999999986
31
0
0
LINE
5
355
100
AcDbEntity
8
0
100
AcDbLine
10
-347.10000000000014
20
103.90000000000002
30
0
11
-347.10000000000014
21
108.90000000000002
31
0
0
LINE
5
356
100
AcDbEntity
8
0
100
AcDbLine
10
-347.10000000000014
20
108.90000000000002
30
0
11
-334.10000000000019
21
108.90000000000002
31
0
0
LINE
5
357
100
AcDbEntity
8
0
100
AcDbLine
10
-312.10000000000014
20
87.200000000000017
30
0
11
-325.10000000000014
21
87.200000000000017
31
0
0
LINE
5
358
100
AcDbEntity
8
0
100
AcDbLine
10
-290.10000000000014
20
-136.59999999999999
30
0
11
-290.10000000000014
21
-141.59999999999999
31
0
0
LINE
5
359
100
AcDbEntity
8
0
100
AcDbLine
10
-215.10000000000014
20
137.30000000000001
30
0
11
-215.10000000000014
21
142.30000000000001
31
0
0
LINE
5
360
100
AcDbEntity
8
0
100
AcDbLine
10
-281.10000000000014
20
120.60000000000002
30
0
11
-281.10000000000014
21
125.60000000000002
31
0
0
LINE
5
361
100
AcDbEntity
8
0
100
AcDbLine
10
-224.10000000000014
20
-86.499999999999986
30
0
11
-224.10000000000014
21
-91.499999999999986
31
0
0
LWPOLYLINE
5
362
100
AcDbEntity
8
0
100
AcDbPolyline
90
4
70
1
43
0.0
10
-202.10000000000014
20
-108.19999999999999
10
-202.10000000000014
20
-103.19999999999999
10
-215.10000000000014
20
-103.19999999999999
10
-215.10000000000014
20
-108.19999999999999
0
LINE
5
363
100
AcDbEntity
8
0
100
AcDbLine
10
-202.10000000000014
20
-103.19999999999999
30
0
11
-202.10000000000014
21
-108.19999999999999
31
0
0
LINE
5
364
100
AcDbEntity
8
0
100
AcDbLine
10
-259.10000000000014
20
-108.19999999999999
30
0
11
-246.10000000000011
21
-108.19999999999999
31
0
0
LINE
5
365
100
AcDbEntity
8
0
100
AcDbLine
10
-290.10000000000014
20
-136.59999999999999
30
0
11
-303.10000000000014
21
-136.59999999999999
31
0
0
LINE
5
366
100
AcDbEntity
8
0
100
AcDbLine
10
-281.10000000000014
20
-124.89999999999998
30
0
11
-281.10000000000014
21
-119.89999999999998
31
0
0
LINE
5
367
100
AcDbEntity
8
0
100
AcDbLine
10
-290.10000000000014
20
-141.59999999999999
30
0
11
-303.10000000000014
21
-141.59999999999999
31
0
0
LINE
5
368
100
AcDbEntity
8
0
100
AcDbLine
10
-259.10000000000014
20
-108.19999999999999
30
0
11
-259.10000000000014
21
-103.19999999999999
31
0
0
LINE
5
369
100
AcDbEntity
8
0
100
AcDbLine
10
-312.10000000000014
20
-153.29999999999998
30
0
11
-325.10000000000014
21
-153.29999999999998
31
0
0
LINE
5
370
100
AcDbEntity
8
0
100
AcDbLine
10
-312.10000000000014
20
-158.29999999999998
30
0
11
-312.10000000000014
21
-153.29999999999998
31
0
0
LINE
5
371
100
AcDbEntity
8
0
100
AcDbLine
10
-246.10000000000011
20
-103.19999999999999
30
0
11
-246.10000000000014
21
-108.19999999999999
31
0
0
LINE
5
372
100
AcDbEntity
8
0
100
AcDbLine
10
-334.10000000000019
20
-141.59999999999999
30
0
11
-347.10000000000014
21
-141.59999999999999
31
0
0
LINE
5
373
100
AcDbEntity
8
0
100
AcDbLine
10
-312.10000000000014
20
-153.29999999999998
30
0
11
-312.10000000000014
21
-158.29999999999998
31
0
0
LINE
5
374
100
AcDbEntity
8
0
100
AcDbLine
10
-180.10000000000014
20
-124.89999999999998
30
0
11
-193.10000000000008
21
-124.89999999999998
31
0
0
LINE
5
375
100
AcDbEntity
8
0
100
AcDbLine
10
-180.10000000000014
20
-124.89999999999998
30
0
11
-193.10000000000008
21
-124.89999999999998
31
0
0
LINE
5
376
100
AcDbEntity
8
0
100
AcDbLine
10
-334.10000000000019
20
-136.59999999999999
30
0
11
-347.10000000000014
21
-136.59999999999999
31
0
0
LINE
5
377
100
AcDbEntity
8
0
100
AcDbLine
10
-290.10000000000014
20
-136.59999999999999
30
0
11
-290.10000000000014
21
-141.59999999999999
31
0
0
LINE
5
378
100
AcDbEntity
8
0
100
AcDbLine
10
-303.10000000000014
20
-141.59999999999999
30
0
11
-303.10000000000014
21
-136.59999999999999
31
0
0
LINE
5
379
100
AcDbEntity
8
0
100
AcDbLine
10
-246.10000000000014
20
142.30000000000001
30
0
11
-246.10000000000011
21
137.30000000000001
31
0
0
LINE
5
380
100
AcDbEntity
8
0
100
AcDbLine
10
-325.10000000000014
20
87.200000000000017
30
0
11
-325.10000000000014
21
92.200000000000017
31
0
0
LINE
5
381
100
AcDbEntity
8
0
100
AcDbLine
10
-268.10000000000014
20
-119.89999999999998
30
0
11
-268.10000000000014
21
-124.89999999999998
31
0
0
LINE
5
382
100
AcDbEntity
8
0
100
AcDbLine
10
-193.10000000000008
20
125.60000000000002
30
0
11
-180.10000000000014
21
125.60000000000002
31
0
0
LINE
5
383
100
AcDbEntity
8
0
100
AcDbLine
10
-290.10000000000014
20
103.90000000000002
30
0
11
-303.10000000000014
21
103.90000000000002
31
0
0
LINE
5
384
100
AcDbEntity
8
0
100
AcDbLine
10
-334.10000000000019
20
108.90000000000002
30
0
11
-334.10000000000019
21
103.90000000000002
31
0
0
LINE
5
385
100
AcDbEntity
8
0
100
AcDbLine
10
-334.10000000000019
20
-136.59999999999999
30
0
11
-334.10000000000019
21
-141.59999999999999
31
0
0
LINE
5
386
100
AcDbEntity
8
0
100
AcDbLine
10
-202.10000000000014
20
142.30000000000001
30
0
11
-202.10000000000014
21
137.30000000000001
31
0
0
LINE
5
387
100
AcDbEntity
8
0
100
AcDbLine
10
-268.10000000000014
20
125.60000000000002
30
0
11
-268.10000000000014
21
120.60000000000002
31
0
0
LINE
5
388
100
AcDbEntity
8
0
100
AcDbLine
10
-281.10000000000014
20
125.60000000000002
30
0
11
-268.10000000000014
21
125.60000000000002
31
0
0
LINE
5
389
100
AcDbEntity
8
0
100
AcDbLine
10
-246.10000000000011
20
-103.19999999999999
30
0
11
-259.10000000000014
21
-103.19999999999999
31
0
0
LINE
5
390
100
AcDbEntity
8
0
100
AcDbLine
10
-237.10000000000014
20
154.00000000000003
30
0
11
-237.10000000000014
21
159.00000000000003
31
0
0
LINE
5
391
100
AcDbEntity
8
0
100
AcDbLine
10
-281.10000000000014
20
-124.89999999999998
30
0
11
-268.10000000000014
21
-124.89999999999998
31
0
0
LINE
5
392
100
AcDbEntity
8
0
100
AcDbLine
10
-325.10000000000014
20
92.200000000000017
30
0
11
-312.10000000000014
21
92.200000000000017
31
0
0
ENDSEC
0
SECTION
2
OBJECTS
0
DICTIONARY
5
C
100
AcDbDictionary
3
ACAD_GROUP
350
D
3
ACAD_MLINESTYLE
350
17
0
DICTIONARY
5
D
100
AcDbDictionary
0
DICTIONARY
5
1A
330
C
100
AcDbDictionary
0
DICTIONARY
5
17
100
AcDbDictionary
0
ENDSEC
0
EOF
