0
SECTION
2
HEADER
9
$INSUNITS
70
4
9
$ACADVER
1
AC1014
9
$HANDSEED
5
FFFF
0
ENDSEC
0
SECTION
2
TABLES
0
TABLE
2
VPORT
5
8
100
AcDbSymbolTable
0
ENDTAB
0
TABLE
2
LTYPE
5
5
100
AcDbSymbolTable
0
LTYPE
5
14
100
AcDbSymbolTableRecord
100
AcDbLinetypeTableRecord
2
BYBLOCK
70
0
0
LTYPE
5
15
100
AcDbSymbolTableRecord
100
AcDbLinetypeTableRecord
2
BYLAYER
70
0
0
ENDTAB
0
TABLE
2
LAYER
5
2
100
AcDbSymbolTable
70
2
0
LAYER
5
50
100
AcDbSymbolTableRecord
100
AcDbLayerTableRecord
2
0
70
0
6
CONTINUOUS
0
ENDTAB
0
TABLE
2
STYLE
5
3
100
AcDbSymbolTable
70
1
0
STYLE
5
11
100
AcDbSymbolTableRecord
100
AcDbTextStyleTableRecord
2
STANDARD
70
0
0
ENDTAB
0
TABLE
2
VIEW
5
6
100
AcDbSymbolTable
70
0
0
ENDTAB
0
TABLE
2
UCS
5
7
100
AcDbSymbolTable
70
0
0
ENDTAB
0
TABLE
2
APPID
5
9
100
AcDbSymbolTable
70
2
0
APPID
5
12
100
AcDbSymbolTableRecord
100
AcDbRegAppTableRecord
2
ACAD
70
0
0
ENDTAB
0
TABLE
2
DIMSTYLE
5
A
100
AcDbSymbolTable
70
1
0
ENDTAB
0
TABLE
2
BLOCK_RECORD
5
1
100
AcDbSymbolTable
70
1
0
BLOCK_RECORD
5
1F
100
AcDbSymbolTableRecord
100
AcDbBlockTableRecord
2
*MODEL_SPACE
0
BLOCK_RECORD
5
1B
100
AcDbSymbolTableRecord
100
AcDbBlockTableRecord
2
*PAPER_SPACE
0
ENDTAB
0
ENDSEC
0
SECTION
2
BLOCKS
0
BLOCK
5
20
100
AcDbEntity
100
AcDbBlockBegin
2
*MODEL_SPACE
0
ENDBLK
5
21
100
AcDbEntity
100
AcDbBlockEnd
0
BLOCK
5
1C
100
AcDbEntity
100
AcDbBlockBegin
2
*PAPER_SPACE
0
ENDBLK
5
1D
100
AcDbEntity
100
AcDbBlockEnd
0
ENDSEC
0
SECTION
2
ENTITIES
0
LWPOLYLINE
5
100
100
AcDbEntity
8
0
100
AcDbPolyline
90
61
70
1
43
0.0
10
0
20
78
10
0
20
54.362050000000011
10
6.0000000000000009
20
54.362050000000011
10
6.0000000000000009
20
26.637950000000004
10
0
20
26.637950000000004
10
0
20
2.9999999999999982
10
56.172849999999997
20
3.0000000000000004
10
56.172849999999997
20
9
10
83.896950000000032
20
9
10
83.896950000000032
20
3.0000000000000004
10
111.62105
20
3.0000000000000004
10
111.62105
20
9
10
139.34514999999999
20
9
10
139.34514999999999
20
3.0000000000000004
10
167.06925000000001
20
3.0000000000000004
10
167.06925000000001
20
9
10
194.79335000000006
20
9
10
194.79335000000006
20
3.0000000000000004
10
222.51745
20
3.0000000000000004
10
222.51745
20
9
10
250.24155000000002
20
9
10
250.24155000000002
20
3.0000000000000004
10
277.96564999999998
20
3.0000000000000004
10
277.96564999999998
20
9
10
305.68975
20
9
10
305.68975
20
3.0000000000000004
10
333.41385000000002
20
3.0000000000000004
10
333.41385000000002
20
9
10
361.1379500000001
20
9
10
361.1379500000001
20
3.0000000000000004
10
388.86205000000012
20
3.0000000000000004
10
388.86205000000012
20
9
10
416.58614999999998
20
9
10
416.58614999999998
20
3.0000000000000004
10
444.31025000000005
20
3.0000000000000004
10
444.31025000000005
20
9
10
472.03435000000013
20
9
10
472.03435000000013
20
3.0000000000000004
10
499.75844999999998
20
3.0000000000000004
10
499.75844999999998
20
9
10
527.48254999999995
20
9
10
527.48254999999995
20
3.0000000000000004
10
555.20664999999997
20
3.0000000000000004
10
555.20664999999997
20
9
10
582.93074999999999
20
9
10
582.93074999999999
20
3.0000000000000004
10
610.65485000000001
20
3.0000000000000004
10
610.65485000000001
20
9
10
638.37895000000003
20
9
10
638.37895000000003
20
3.0000000000000004
10
666.10305000000028
20
3.0000000000000004
10
666.10305000000028
20
9
10
693.82715000000019
20
9
10
693.82715000000019
20
3.0000000000000004
10
721.55124999999998
20
3.0000000000000004
10
750
20
3.0000000000000004
10
750
20
26.637950000000004
10
744
20
26.637950000000004
10
744
20
54.362050000000011
10
750
20
54.362050000000011
10
750
20
78
0
LWPOLYLINE
5
101
100
AcDbEntity
8
0
100
AcDbPolyline
90
36
70
1
43
0.0
10
919.13795000000005
20
9
10
919.13795000000005
20
3.0000000000000004
10
946.86204999999995
20
3.0000000000000004
10
946.86204999999995
20
9
10
974.5861500000002
20
9
10
974.5861500000002
20
3.0000000000000004
10
1002.31025
20
3.0000000000000004
10
1002.31025
20
9
10
1030.0343499999999
20
9
10
1030.0343499999999
20
3.0000000000000004
10
1057.75845
20
3.0000000000000004
10
1057.75845
20
9
10
1085.4825499999999
20
9
10
1085.4825499999999
20
3.0000000000000004
10
1107
20
3.0000000000000004
10
1107
20
26.637950000000004
10
1113
20
26.637950000000004
10
1113
20
54.362050000000011
10
1107
20
54.362050000000011
10
1107
20
78
10
759
20
78
10
759
20
54.362050000000011
10
753
20
54.362050000000011
10
753
20
26.637950000000004
10
759
20
26.637950000000004
10
759
20
2.9999999999999982
10
780.51745000000005
20
3.0000000000000004
10
780.51745000000005
20
9
10
808.24155000000007
20
9
10
808.24155000000007
20
3.0000000000000004
10
835.96564999999998
20
3.0000000000000004
10
835.96564999999998
20
9
10
863.68975
20
9
10
863.68975
20
3.0000000000000004
10
891.41385000000014
20
3.0000000000000004
10
891.41385000000014
20
9
0
LWPOLYLINE
5
102
100
AcDbEntity
8
0
100
AcDbPolyline
90
61
70
1
43
0.0
10
56.172849999999997
20
81
10
56.172849999999997
20
87.000000000000014
10
83.896950000000032
20
87.000000000000014
10
83.896950000000032
20
81
10
111.62105
20
81
10
111.62105
20
87.000000000000014
10
139.34514999999999
20
87.000000000000014
10
139.34514999999999
20
81
10
167.06925000000001
20
81
10
167.06925000000001
20
87.000000000000014
10
194.79335000000006
20
87.000000000000014
10
194.79335000000006
20
81
10
222.51745
20
81
10
222.51745
20
87.000000000000014
10
250.24155000000002
20
87.000000000000014
10
250.24155000000002
20
81
10
277.96564999999998
20
81
10
277.96564999999998
20
87.000000000000014
10
305.68975
20
87.000000000000014
10
305.68975
20
81
10
333.41385000000002
20
81
10
333.41385000000002
20
87.000000000000014
10
361.1379500000001
20
87.000000000000014
10
361.1379500000001
20
81
10
388.86205000000012
20
81
10
388.86205000000012
20
87.000000000000014
10
416.58614999999998
20
87.000000000000014
10
416.58614999999998
20
81
10
444.31025000000005
20
81
10
444.31025000000005
20
87.000000000000014
10
472.03435000000013
20
87.000000000000014
10
472.03435000000013
20
81
10
499.75844999999998
20
81
10
499.75844999999998
20
87.000000000000014
10
527.48254999999995
20
87.000000000000014
10
527.48254999999995
20
81
10
555.20664999999997
20
81
10
555.20664999999997
20
87.000000000000014
10
582.93074999999999
20
87.000000000000014
10
582.93074999999999
20
81
10
610.65485000000001
20
81
10
610.65485000000001
20
87.000000000000014
10
638.37895000000003
20
87.000000000000014
10
638.37895000000003
20
81
10
666.10305000000028
20
81
10
666.10305000000028
20
87.000000000000014
10
693.82715000000019
20
87.000000000000014
10
693.82715000000019
20
81
10
721.55124999999998
20
81
10
750
20
81
10
750
20
104.63795000000003
10
744
20
104.63795000000003
10
744
20
132.36205000000001
10
750
20
132.36205000000001
10
750
20
156
10
0
20
156
10
0
20
132.36205000000001
10
6.0000000000000009
20
132.36205000000001
10
6.0000000000000009
20
104.63795000000003
10
0
20
104.63795000000003
10
0
20
81
0
LWPOLYLINE
5
103
100
AcDbEntity
8
0
100
AcDbPolyline
90
36
70
1
43
0.0
10
753
20
132.36205000000001
10
753
20
104.63795000000003
10
759
20
104.63795000000003
10
759
20
81
10
780.51745000000005
20
81
10
780.51745000000005
20
87.000000000000014
10
808.24155000000007
20
87.000000000000014
10
808.24155000000007
20
81
10
835.96564999999998
20
81
10
835.96564999999998
20
87.000000000000014
10
863.68975
20
87.000000000000014
10
863.68975
20
81
10
891.41385000000014
20
81
10
891.41385000000014
20
87.000000000000014
10
919.13795000000005
20
87.000000000000014
10
919.13795000000005
20
81
10
946.86204999999995
20
81
10
946.86204999999995
20
87.000000000000014
10
974.5861500000002
20
87.000000000000014
10
974.5861500000002
20
81
10
1002.31025
20
81
10
1002.31025
20
87.000000000000014
10
1030.0343499999999
20
87.000000000000014
10
1030.0343499999999
20
81
10
1057.75845
20
81
10
1057.75845
20
87.000000000000014
10
1085.4825499999999
20
87.000000000000014
10
1085.4825499999999
20
81
10
1107
20
81
10
1107
20
104.63795000000003
10
1113
20
104.63795000000003
10
1113
20
132.36205000000001
10
1107
20
132.36205000000001
10
1107
20
156
10
759
20
156
10
759
20
132.36205000000001
0
LWPOLYLINE
5
104
100
AcDbEntity
8
0
100
AcDbPolyline
90
150
70
1
43
0.0
10
1782.1030500000006
20
3.0000000000000004
10
1809.8271500000001
20
3.0000000000000004
10
1809.8271500000001
20
9
10
1837.5512500000002
20
9
10
1860
20
9
10
1860
20
30.517450000000004
10
1866.0000000000002
20
30.517450000000004
10
1866.0000000000002
20
58.241550000000004
10
1860
20
58.241550000000004
10
1860
20
85.965649999999982
10
1866.0000000000002
20
85.965649999999982
10
1866.0000000000002
20
113.68975
10
1860
20
113.68975
10
1860
20
141.41385
10
1866.0000000000002
20
141.41385
10
1866.0000000000002
20
169.13794999999999
10
1860
20
169.13794999999999
10
1860
20
196.86205000000001
10
1866.0000000000002
20
196.86205000000001
10
1866.0000000000002
20
224.58615000000006
10
1860
20
224.58615000000006
10
1860
20
252.31025000000002
10
1866.0000000000002
20
252.31025000000002
10
1866.0000000000002
20
280.03435000000002
10
1860
20
280.03435000000002
10
1860
20
307.75844999999998
10
1866.0000000000002
20
307.75844999999998
10
1866.0000000000002
20
335.48255000000006
10
1860
20
335.48255000000006
10
1860
20
357
10
1809.8271500000001
20
357
10
1809.8271500000001
20
363.00000000000006
10
1782.1030500000006
20
363.00000000000006
10
1782.1030500000006
20
357
10
1754.3789500000007
20
357
10
1754.3789500000007
20
363.00000000000006
10
1726.6548499999999
20
363.00000000000006
10
1726.6548499999999
20
357
10
1698.93075
20
357
10
1698.93075
20
363.00000000000006
10
1671.2066500000005
20
363.00000000000006
10
1671.2066500000005
20
357
10
1643.4825499999999
20
357
10
1643.4825499999999
20
363.00000000000006
10
1615.7584500000007
20
363.00000000000006
10
1615.7584500000007
20
357
10
1588.0343500000001
20
357
10
1588.0343500000001
20
363.00000000000006
10
1560.31025
20
363.00000000000006
10
1560.31025
20
357
10
1532.5861500000001
20
357
10
1532.5861500000001
20
363.00000000000006
10
1504.8620500000004
20
363.00000000000006
10
1504.8620500000004
20
357
10
1477.13795
20
357
10
1477.13795
20
363.00000000000006
10
1449.4138499999999
20
363.00000000000006
10
1449.4138499999999
20
357
10
1421.6897500000002
20
357
10
1421.6897500000002
20
363.00000000000006
10
1393.9656500000001
20
363.00000000000006
10
1393.9656500000001
20
357
10
1366.24155
20
357
10
1366.24155
20
363.00000000000006
10
1338.5174500000005
20
363.00000000000006
10
1338.5174500000005
20
357
10
1310.7933499999999
20
357
10
1310.7933499999999
20
363.00000000000006
10
1283.06925
20
363.00000000000006
10
1283.06925
20
357
10
1255.3451500000001
20
357
10
1255.3451500000001
20
363.00000000000006
10
1227.62105
20
363.00000000000006
10
1227.62105
20
357
10
1199.8969500000001
20
357
10
1199.8969500000001
20
363.00000000000006
10
1172.1728499999999
20
363.00000000000006
10
1172.1728499999999
20
357
10
1144.44875
20
357
10
1122
20
357
10
1122
20
335.48255000000006
10
1116
20
335.48255000000006
10
1116
20
307.75844999999998
10
1122
20
307.75844999999998
10
1122
20
280.03435000000002
10
1116
20
280.03435000000002
10
1116
20
252.31025000000002
10
1122
20
252.31025000000002
10
1122
20
224.58615000000006
10
1116
20
224.58615000000006
10
1116
20
196.86205000000001
10
1122
20
196.86205000000001
10
1122
20
169.13794999999999
10
1116
20
169.13794999999999
10
1116
20
141.41385
10
1122
20
141.41385
10
1122
20
113.68975
10
1116
20
113.68975
10
1116
20
85.965649999999982
10
1122
20
85.965649999999982
10
1122
20
58.241550000000004
10
1116
20
58.241550000000004
10
1116
20
30.517450000000004
10
1122
20
30.517450000000004
10
1122
20
9
10
1172.1728499999999
20
9
10
1172.1728499999999
20
3.0000000000000004
10
1199.8969500000001
20
3.0000000000000004
10
1199.8969500000001
20
9
10
1227.62105
20
9
10
1227.62105
20
3.0000000000000004
10
1255.3451500000001
20
3.0000000000000004
10
1255.3451500000001
20
9
10
1283.06925
20
9
10
1283.06925
20
3.0000000000000004
10
1310.7933499999999
20
3.0000000000000004
10
1310.7933499999999
20
9
10
1338.5174500000005
20
9
10
1338.5174500000005
20
3.0000000000000004
10
1366.24155
20
3.0000000000000004
10
1366.24155
20
9
10
1393.9656500000001
20
9
10
1393.9656500000001
20
3.0000000000000004
10
1421.6897500000002
20
3.0000000000000004
10
1421.6897500000002
20
9
10
1449.4138499999999
20
9
10
1449.4138499999999
20
3.0000000000000004
10
1477.13795
20
3.0000000000000004
10
1477.13795
20
9
10
1504.8620500000004
20
9
10
1504.8620500000004
20
3.0000000000000004
10
1532.5861500000001
20
3.0000000000000004
10
1532.5861500000001
20
9
10
1560.31025
20
9
10
1560.31025
20
3.0000000000000004
10
1588.0343500000001
20
3.0000000000000004
10
1588.0343500000001
20
9
10
1615.7584500000007
20
9
10
1615.7584500000007
20
3.0000000000000004
10
1643.4825499999999
20
3.0000000000000004
10
1643.4825499999999
20
9
10
1671.2066500000005
20
9
10
1671.2066500000005
20
3.0000000000000004
10
1698.93075
20
3.0000000000000004
10
1698.93075
20
9
10
1726.6548499999999
20
9
10
1726.6548499999999
20
3.0000000000000004
10
1754.3789500000007
20
3.0000000000000004
10
1754.3789500000007
20
9
10
1782.1030500000006
20
9
0
LWPOLYLINE
5
105
100
AcDbEntity
8
0
100
AcDbPolyline
90
2
70
1
43
0.0
10
1033.3253175473058
20
102.5
10
1011.6746824526945
20
102.5
0
LWPOLYLINE
5
106
100
AcDbEntity
8
0
100
AcDbPolyline
90
2
70
1
43
0.0
10
1034.424240017712
20
105
10
1010.5757599822881
20
105
0
LWPOLYLINE
5
107
100
AcDbEntity
8
0
100
AcDbPolyline
90
2
70
1
43
0.0
10
1013.5732144643215
20
100
10
1031.4267855356786
20
100
0
LINE
5
108
100
AcDbEntity
8
0
100
AcDbLine
10
1017.0513763205741
20
97.5
30
0
11
1027.948623679426
21
97.5
31
0
0
ARC
5
109
100
AcDbEntity
8
0
100
AcDbCircle
10
1022.5000000000005
20
108.75
30
0
40
12.499999999999918
210
0
220
0
230
1
100
AcDbArc
50
329.9999999999996
51
342.54239687627751
0
LWPOLYLINE
5
110
100
AcDbEntity
8
0
100
AcDbPolyline
90
4
70
1
43
0.0
10
1011.6746824526945
20
115
10
1033.3253175473058
20
115
42
-0.054781231122192679
10
1034.424240017712
20
112.5
10
1010.5757599822881
20
112.5
42
-0.054781231122150359
0
LWPOLYLINE
5
111
100
AcDbEntity
8
0
100
AcDbPolyline
90
4
70
1
43
0.0
10
1031.4267855356786
20
117.5
42
0.086306344402444155
10
1027.948623679426
20
120
10
1017.0513763205741
20
120
42
0.086306344402439936
10
1013.5732144643215
20
117.5
0
ARC
5
112
100
AcDbEntity
8
0
100
AcDbCircle
10
1022.5
20
108.75
30
0
40
12.500000000000068
210
0
220
0
230
1
100
AcDbArc
50
295.84193276316762
51
315.57299599919452
0
LINE
5
113
100
AcDbEntity
8
0
100
AcDbLine
10
1034.9379648776246
20
107.50620351223758
30
0
11
1035
21
107.5
31
0
0
LINE
5
114
100
AcDbEntity
8
0
100
AcDbLine
10
1033.3253175473058
20
115
30
0
11
1011.6746824526945
21
115
31
0
0
LWPOLYLINE
5
115
100
AcDbEntity
8
0
100
AcDbPolyline
90
2
70
1
43
0.0
10
1010.0626570361676
20
110
10
1034.9373429638326
20
110
0
LINE
5
116
100
AcDbEntity
8
0
100
AcDbLine
10
1034.424240017712
20
112.5
30
0
11
1010.5757599822881
21
112.5
31
0
0
ARC
5
117
100
AcDbEntity
8
0
100
AcDbCircle
10
1022.5
20
108.75
30
0
40
12.499999999999771
210
0
220
0
230
1
100
AcDbArc
50
-5.739170477266784
51
5.7391704772667804
0
LWPOLYLINE
5
118
100
AcDbEntity
8
0
100
AcDbPolyline
90
2
70
1
43
0.0
10
1034.9373429638326
20
107.50000000000001
10
1010.0626570361676
20
107.5
0
LINE
5
119
100
AcDbEntity
8
0
100
AcDbLine
10
1035
20
110
30
0
11
1034.9379648776248
21
109.99379648776249
31
0
0
LINE
5
120
100
AcDbEntity
8
0
100
AcDbLine
10
1031.4267855356786
20
117.5
30
0
11
1013.5732144643215
21
117.5
31
0
0
ARC
5
121
100
AcDbEntity
8
0
100
AcDbCircle
10
1022.5
20
108.75
30
0
40
12.499999999999631
210
0
220
0
230
1
100
AcDbArc
50
174.2608295227331
51
185.7391704772669
0
ARC
5
122
100
AcDbEntity
8
0
100
AcDbCircle
10
1022.5
20
108.75
30
0
40
12.499999999999938
210
0
220
0
230
1
100
AcDbArc
50
224.42700400080588
51
244.15806723683284
0
LINE
5
123
100
AcDbEntity
8
0
100
AcDbLine
10
1010
20
110
30
0
11
1010.0620351223756
21
109.99379648776249
31
0
0
ARC
5
124
100
AcDbEntity
8
0
100
AcDbCircle
10
1022.4999999999994
20
108.74999999999972
30
0
40
12.499999999999416
210
0
220
0
230
1
100
AcDbArc
50
197.4576031237215
51
210.00000000000009
0
LWPOLYLINE
5
125
100
AcDbEntity
8
0
100
AcDbPolyline
90
4
70
1
43
0.0
10
1047.0000000000002
20
138.00000232458117
10
1047.0000000000002
20
132.00000232458112
10
1067.0000000000002
20
132.00000232458112
10
1067.0000000000002
20
138.00000232458117
0
LWPOLYLINE
5
126
100
AcDbEntity
8
0
100
AcDbPolyline
90
4
70
1
43
0.0
10
819.00000000000023
20
132.00000232458112
10
799.00000000000023
20
132.00000232458112
10
799.00000000000023
20
138.00000232458117
10
819.00000000000023
20
138.00000232458117
0
LWPOLYLINE
5
127
100
AcDbEntity
8
0
100
AcDbPolyline
90
4
70
1
43
0.0
10
1047.0000000000002
20
54.000002324581118
10
1047.0000000000002
20
60.000002324581139
10
1067.0000000000002
20
60.000002324581139
10
1067.0000000000002
20
54.000002324581118
0
LWPOLYLINE
5
128
100
AcDbEntity
8
0
100
AcDbPolyline
90
4
70
1
43
0.0
10
799.00000000000023
20
54.000002324581118
10
799.00000000000023
20
60.000002324581139
10
819.00000000000023
20
60.000002324581139
10
819.00000000000023
20
54.000002324581118
0
LWPOLYLINE
5
129
100
AcDbEntity
8
0
100
AcDbPolyline
90
4
70
1
43
0.0
10
704
20
132.00000232458112
10
684
20
132.00000232458112
10
684
20
138.00000232458117
10
704
20
138.00000232458117
0
LWPOLYLINE
5
130
100
AcDbEntity
8
0
100
AcDbPolyline
90
4
70
1
43
0.0
10
529
20
132.00000232458112
10
509.00000000000006
20
132.00000232458112
10
509.00000000000006
20
138.00000232458117
10
529
20
138.00000232458117
0
LWPOLYLINE
5
131
100
AcDbEntity
8
0
100
AcDbPolyline
90
4
70
1
43
0.0
10
529
20
60.000002324581139
10
529
20
54.000002324581118
10
509.00000000000006
20
54.000002324581118
10
509.00000000000006
20
60.000002324581139
0
LWPOLYLINE
5
132
100
AcDbEntity
8
0
100
AcDbPolyline
90
4
70
1
43
0.0
10
704
20
60.000002324581139
10
704
20
54.000002324581118
10
684
20
54.000002324581118
10
684
20
60.000002324581139
0
LWPOLYLINE
5
133
100
AcDbEntity
8
0
100
AcDbPolyline
90
4
70
1
43
0.0
10
66.000000000000014
20
132.00000232458112
10
46.000000000000021
20
132.00000232458112
10
46.000000000000021
20
138.00000232458117
10
66.000000000000014
20
138.00000232458117
0
LWPOLYLINE
5
134
100
AcDbEntity
8
0
100
AcDbPolyline
90
4
70
1
43
0.0
10
221
20
138.00000232458117
10
241
20
138.00000232458117
10
241
20
132.00000232458112
10
221
20
132.00000232458112
0
LWPOLYLINE
5
135
100
AcDbEntity
8
0
100
AcDbPolyline
90
4
70
1
43
0.0
10
66.000000000000014
20
54.000002324581118
10
46.000000000000021
20
54.000002324581118
10
46.000000000000021
20
60.000002324581139
10
66.000000000000014
20
60.000002324581139
0
LWPOLYLINE
5
136
100
AcDbEntity
8
0
100
AcDbPolyline
90
4
70
1
43
0.0
10
241
20
60.000002324581139
10
241
20
54.000002324581118
10
221
20
54.000002324581118
10
221
20
60.000002324581139
0
CIRCLE
5
137
100
AcDbEntity
8
0
100
AcDbCircle
10
1060
20
30
30
0
40
6.2500000000000213
210
0
220
0
230
1
0
ENDSEC
0
SECTION
2
OBJECTS
0
DICTIONARY
5
C
100
AcDbDictionary
3
ACAD_GROUP
350
D
3
ACAD_MLINESTYLE
350
17
0
DICTIONARY
5
D
100
AcDbDictionary
0
DICTIONARY
5
1A
330
C
100
AcDbDictionary
0
DICTIONARY
5
17
100
AcDbDictionary
0
ENDSEC
0
EOF
