0
SECTION
2
HEADER
9
$INSUNITS
70
4
9
$ACADVER
1
AC1014
9
$HANDSEED
5
FFFF
0
ENDSEC
0
SECTION
2
TABLES
0
TABLE
2
VPORT
5
8
100
AcDbSymbolTable
0
ENDTAB
0
TABLE
2
LTYPE
5
5
100
AcDbSymbolTable
0
LTYPE
5
14
100
AcDbSymbolTableRecord
100
AcDbLinetypeTableRecord
2
BYBLOCK
70
0
0
LTYPE
5
15
100
AcDbSymbolTableRecord
100
AcDbLinetypeTableRecord
2
BYLAYER
70
0
0
ENDTAB
0
TABLE
2
LAYER
5
2
100
AcDbSymbolTable
70
2
0
LAYER
5
50
100
AcDbSymbolTableRecord
100
AcDbLayerTableRecord
2
0
70
0
6
CONTINUOUS
0
ENDTAB
0
TABLE
2
STYLE
5
3
100
AcDbSymbolTable
70
1
0
STYLE
5
11
100
AcDbSymbolTableRecord
100
AcDbTextStyleTableRecord
2
STANDARD
70
0
0
ENDTAB
0
TABLE
2
VIEW
5
6
100
AcDbSymbolTable
70
0
0
ENDTAB
0
TABLE
2
UCS
5
7
100
AcDbSymbolTable
70
0
0
ENDTAB
0
TABLE
2
APPID
5
9
100
AcDbSymbolTable
70
2
0
APPID
5
12
100
AcDbSymbolTableRecord
100
AcDbRegAppTableRecord
2
ACAD
70
0
0
ENDTAB
0
TABLE
2
DIMSTYLE
5
A
100
AcDbSymbolTable
70
1
0
ENDTAB
0
TABLE
2
BLOCK_RECORD
5
1
100
AcDbSymbolTable
70
1
0
BLOCK_RECORD
5
1F
100
AcDbSymbolTableRecord
100
AcDbBlockTableRecord
2
*MODEL_SPACE
0
BLOCK_RECORD
5
1B
100
AcDbSymbolTableRecord
100
AcDbBlockTableRecord
2
*PAPER_SPACE
0
ENDTAB
0
ENDSEC
0
SECTION
2
BLOCKS
0
BLOCK
5
20
100
AcDbEntity
100
AcDbBlockBegin
2
*MODEL_SPACE
0
ENDBLK
5
21
100
AcDbEntity
100
AcDbBlockEnd
0
BLOCK
5
1C
100
AcDbEntity
100
AcDbBlockBegin
2
*PAPER_SPACE
0
ENDBLK
5
1D
100
AcDbEntity
100
AcDbBlockEnd
0
ENDSEC
0
SECTION
2
ENTITIES
0
LWPOLYLINE
5
100
100
AcDbEntity
8
0
100
AcDbPolyline
90
76
70
1
43
0.0
10
-375.00000000000006
20
-114.00000000000006
10
-375.00000000000006
20
-134.00000000000006
10
-370.00000510426901
20
-134.00000000000006
10
-369.00000549852848
20
-134.00000000000006
10
-369.00000549852786
20
-173.99999906256772
10
-329.00000000006867
20
-173.99999906256764
10
-329.00000000006867
20
-175.00010300547927
10
-329.00000000007071
20
-179.99999999986807
10
-309.00010170047398
20
-179.99999999987554
10
-309.00008866236271
20
-175.00015515931153
10
-309.00008866236271
20
-173.99999906256764
10
-154.00009095766373
20
-173.99999906256764
10
-154.00009095766373
20
-175.00055935329701
10
-154.00010399433356
20
-179.99985143536162
10
-134.00010369638173
20
-179.99990358942586
10
-134.00009065971193
20
-175.00061150736121
10
-134.0000906597119
20
-173.99999906256764
10
134.0000019967556
20
-173.99999906256764
10
134.0000019967556
20
-175.00131037205267
10
134.0000019967556
20
-180.00000268220901
10
154.00000229349493
20
-180.00000268220901
10
154.00000229349493
20
-175.00136252611691
10
154.00000229349493
20
-173.99999906256764
10
308.99999999886268
20
-173.99999906256764
10
308.99999999886268
20
-175.00176672010238
10
308.99999999883124
20
-180.00000000000003
10
328.99999999879685
20
-180.00000000000003
10
328.99999999882914
20
-175.00181887416548
10
328.99999999882914
20
-173.99999906256764
10
368.99999450147214
20
-173.99999906256764
10
368.99999450147214
20
-133.99999999974099
10
369.99960537642335
20
-133.99999999974099
10
375
20
-133.99999999973753
10
375
20
-113.99999999977176
10
369.99965753048673
20
-113.99999999977476
10
368.99999450147214
20
-113.99999999977476
10
368.99999450147214
20
113.99999999984048
10
370.00025208680967
20
113.99999999984048
10
375
20
113.99999999983825
10
375
20
133.999999999804
10
370.00030424087305
20
133.99999999980659
10
368.99999450147214
20
133.99999999980659
10
368.99999450147214
20
174.00000093743233
10
329.0000049013114
20
174.00000093743242
10
329.0000049013114
20
174.99818112701175
10
329.000004901279
20
180
10
308.99999999883141
20
180
10
308.99999999886285
20
174.99823328108792
10
308.99999999886285
20
174.00000093743239
10
154.00009095465671
20
174.00000093743245
10
154.00009095465671
20
174.99863747484204
10
154.00010399633823
20
179.99985143536168
10
134.00010369838233
20
179.99990358942586
10
134.00009065670082
20
174.99868962890628
10
134.00009065670082
20
174.00000093743245
10
-133.99991333589909
20
174.00000093743242
10
-133.99991333589909
20
174.9993884933663
10
-133.99990029578163
20
180.00000268206222
10
-154.00000229513165
20
180.00000268203172
10
-154.00000229512401
20
174.99944064766169
10
-154.00000229512401
20
174.00000093743245
10
-309.0000000001022
20
174.00000093743245
10
-309.0000000001022
20
174.99984484164699
10
-309.00000000010499
20
180.00000000000003
10
-329.00000000007054
20
180.00000000000003
10
-329.0000000000685
20
174.99989699571043
10
-329.0000000000685
20
174.00000093743245
10
-369.00000549852786
20
174.0000009374323
10
-369.00000549852848
20
134.00000000000003
10
-370.00000595070844
20
134.00000000000003
10
-375
20
134.00000000000003
10
-375
20
114.00000000000006
10
-370.00000588754131
20
114.00000000000006
10
-369.00000549852848
20
114.00000000000006
10
-369.00000549852848
20
-114.00000000000006
10
-370.00000516743614
20
-114.00000000000006
0
LINE
5
101
100
AcDbEntity
8
0
100
AcDbLine
10
-329.00000000007071
20
-179.99999999986807
30
0
11
-309.00010170047398
21
-179.99999999987554
31
0
0
LINE
5
102
100
AcDbEntity
8
0
100
AcDbLine
10
308.99999999883124
20
-180.00000000000003
30
0
11
328.99999999879685
21
-180.00000000000003
31
0
0
LWPOLYLINE
5
103
100
AcDbEntity
8
0
100
AcDbPolyline
90
4
70
1
43
0.0
10
334.90000000000009
20
125.60000000000002
10
347.89999999999998
20
125.60000000000002
10
347.89999999999998
20
120.60000000000002
10
334.90000000000009
20
120.60000000000002
0
LWPOLYLINE
5
104
100
AcDbEntity
8
0
100
AcDbPolyline
90
4
70
1
43
0.0
10
334.90000000000009
20
-124.89999999999998
10
334.90000000000009
20
-119.89999999999998
10
347.89999999999998
20
-119.89999999999998
10
347.89999999999998
20
-124.89999999999998
0
LWPOLYLINE
5
105
100
AcDbEntity
8
0
100
AcDbPolyline
90
4
70
1
43
0.0
10
215.90000000000003
20
-158.29999999999995
10
202.90000000000003
20
-158.29999999999995
10
202.90000000000003
20
-153.29999999999995
10
215.90000000000003
20
-153.29999999999995
0
LWPOLYLINE
5
106
100
AcDbEntity
8
0
100
AcDbPolyline
90
4
70
1
43
0.0
10
193.89999999999992
20
-141.59999999999999
10
180.90000000000001
20
-141.59999999999999
10
180.90000000000001
20
-136.59999999999999
10
193.89999999999992
20
-136.59999999999999
0
LWPOLYLINE
5
107
100
AcDbEntity
8
0
100
AcDbPolyline
90
4
70
1
43
0.0
10
224.90000000000003
20
-141.59999999999999
10
224.90000000000003
20
-136.59999999999999
10
237.89999999999995
20
-136.59999999999999
10
237.89999999999995
20
-141.59999999999999
0
LWPOLYLINE
5
108
100
AcDbEntity
8
0
100
AcDbPolyline
90
4
70
1
43
0.0
10
259.89999999999998
20
125.60000000000002
10
246.90000000000001
20
125.60000000000002
10
246.90000000000001
20
120.60000000000002
10
259.89999999999998
20
120.60000000000002
0
LWPOLYLINE
5
109
100
AcDbEntity
8
0
100
AcDbPolyline
90
4
70
1
43
0.0
10
290.89999999999998
20
159.00000000000003
10
303.89999999999998
20
159.00000000000003
10
303.89999999999998
20
154.00000000000003
10
290.89999999999998
20
154.00000000000003
0
LWPOLYLINE
5
110
100
AcDbEntity
8
0
100
AcDbPolyline
90
4
70
1
43
0.0
10
180.90000000000001
20
108.90000000000002
10
193.89999999999992
20
108.90000000000002
10
193.89999999999992
20
103.90000000000002
10
180.90000000000001
20
103.90000000000002
0
LWPOLYLINE
5
111
100
AcDbEntity
8
0
100
AcDbPolyline
90
4
70
1
43
0.0
10
312.89999999999998
20
142.30000000000001
10
325.89999999999998
20
142.30000000000001
10
325.89999999999998
20
137.30000000000001
10
312.89999999999998
20
137.30000000000001
0
LWPOLYLINE
5
112
100
AcDbEntity
8
0
100
AcDbPolyline
90
4
70
1
43
0.0
10
215.90000000000003
20
92.200000000000003
10
202.90000000000003
20
92.200000000000003
10
202.90000000000003
20
87.200000000000017
10
215.90000000000003
20
87.200000000000017
0
LWPOLYLINE
5
113
100
AcDbEntity
8
0
100
AcDbPolyline
90
4
70
1
43
0.0
10
224.90000000000003
20
108.90000000000002
10
237.89999999999995
20
108.90000000000002
10
237.89999999999995
20
103.90000000000002
10
224.90000000000003
20
103.90000000000002
0
LWPOLYLINE
5
114
100
AcDbEntity
8
0
100
AcDbPolyline
90
4
70
1
43
0.0
10
312.89999999999998
20
-103.2
10
312.89999999999998
20
-108.2
10
325.89999999999998
20
-108.2
10
325.89999999999998
20
-103.2
0
LWPOLYLINE
5
115
100
AcDbEntity
8
0
100
AcDbPolyline
90
4
70
1
43
0.0
10
290.89999999999998
20
-91.499999999999986
10
303.89999999999998
20
-91.499999999999986
10
303.89999999999998
20
-86.499999999999986
10
290.89999999999998
20
-86.499999999999986
0
LWPOLYLINE
5
116
100
AcDbEntity
8
0
100
AcDbPolyline
90
4
70
1
43
0.0
10
268.89999999999998
20
-108.2
10
281.90000000000009
20
-108.2
10
281.90000000000009
20
-103.2
10
268.89999999999998
20
-103.2
0
LWPOLYLINE
5
117
100
AcDbEntity
8
0
100
AcDbPolyline
90
4
70
1
43
0.0
10
246.90000000000001
20
-124.89999999999998
10
259.89999999999998
20
-124.89999999999998
10
259.89999999999998
20
-119.89999999999998
10
246.90000000000001
20
-119.89999999999998
0
LWPOLYLINE
5
118
100
AcDbEntity
8
0
100
AcDbPolyline
90
4
70
1
43
0.0
10
268.89999999999998
20
142.30000000000001
10
281.90000000000009
20
142.30000000000001
10
281.90000000000009
20
137.30000000000001
10
268.89999999999998
20
137.30000000000001
0
LWPOLYLINE
5
119
100
AcDbEntity
8
0
100
AcDbPolyline
90
2
70
1
43
0.0
10
180.90000000000001
20
103.90000000000002
10
180.90000000000001
20
108.90000000000002
0
LWPOLYLINE
5
120
100
AcDbEntity
8
0
100
AcDbPolyline
90
4
70
1
43
0.0
10
105.90000000000002
20
137.30000000000001
10
92.900000000000006
20
137.30000000000001
10
92.900000000000006
20
142.30000000000001
10
105.90000000000002
20
142.30000000000001
0
LWPOLYLINE
5
121
100
AcDbEntity
8
0
100
AcDbPolyline
90
4
70
1
43
0.0
10
39.899999999999949
20
92.200000000000003
10
26.899999999999977
20
92.200000000000003
10
26.899999999999977
20
87.200000000000017
10
39.899999999999949
20
87.200000000000017
0
LWPOLYLINE
5
122
100
AcDbEntity
8
0
100
AcDbPolyline
90
4
70
1
43
0.0
10
83.899999999999991
20
120.60000000000002
10
70.899999999999949
20
120.60000000000002
10
70.899999999999949
20
125.60000000000002
10
83.899999999999935
20
125.60000000000002
0
LWPOLYLINE
5
123
100
AcDbEntity
8
0
100
AcDbPolyline
90
4
70
1
43
0.0
10
136.89999999999998
20
142.30000000000001
10
149.89999999999995
20
142.30000000000001
10
149.89999999999995
20
137.30000000000001
10
136.89999999999998
20
137.30000000000001
0
LWPOLYLINE
5
124
100
AcDbEntity
8
0
100
AcDbPolyline
90
4
70
1
43
0.0
10
61.899999999999942
20
108.90000000000002
10
61.899999999999942
20
103.90000000000002
10
48.89999999999997
20
103.90000000000002
10
48.89999999999997
20
108.90000000000002
0
LWPOLYLINE
5
125
100
AcDbEntity
8
0
100
AcDbPolyline
90
4
70
1
43
0.0
10
127.89999999999998
20
154.00000000000003
10
114.89999999999996
20
154.00000000000003
10
114.89999999999996
20
159.00000000000003
10
127.89999999999998
20
159.00000000000003
0
LWPOLYLINE
5
126
100
AcDbEntity
8
0
100
AcDbPolyline
90
4
70
1
43
0.0
10
171.89999999999995
20
125.60000000000002
10
171.89999999999995
20
120.60000000000002
10
158.90000000000001
20
120.60000000000002
10
158.90000000000001
20
125.60000000000002
0
LWPOLYLINE
5
127
100
AcDbEntity
8
0
100
AcDbPolyline
90
4
70
1
43
0.0
10
158.90000000000001
20
-119.89999999999998
10
171.89999999999995
20
-119.89999999999998
10
171.89999999999995
20
-124.89999999999998
10
158.90000000000001
20
-124.89999999999998
0
LWPOLYLINE
5
128
100
AcDbEntity
8
0
100
AcDbPolyline
90
4
70
1
43
0.0
10
39.899999999999949
20
-153.29999999999995
10
39.899999999999949
20
-158.29999999999995
10
26.899999999999977
20
-158.29999999999995
10
26.899999999999977
20
-153.29999999999995
0
LWPOLYLINE
5
129
100
AcDbEntity
8
0
100
AcDbPolyline
90
4
70
1
43
0.0
10
83.899999999999935
20
-119.89999999999998
10
70.899999999999949
20
-119.89999999999998
10
70.899999999999949
20
-124.89999999999998
10
83.899999999999935
20
-124.89999999999998
0
LWPOLYLINE
5
130
100
AcDbEntity
8
0
100
AcDbPolyline
90
4
70
1
43
0.0
10
17.89999999999992
20
103.90000000000002
10
4.8999999999999488
20
103.90000000000002
10
4.8999999999999488
20
108.90000000000002
10
17.89999999999992
20
108.90000000000002
0
LWPOLYLINE
5
131
100
AcDbEntity
8
0
100
AcDbPolyline
90
4
70
1
43
0.0
10
114.89999999999996
20
-91.499999999999986
10
114.89999999999996
20
-86.499999999999986
10
127.89999999999998
20
-86.499999999999986
10
127.89999999999998
20
-91.499999999999986
0
LWPOLYLINE
5
132
100
AcDbEntity
8
0
100
AcDbPolyline
90
4
70
1
43
0.0
10
4.8999999999999488
20
-136.59999999999999
10
4.8999999999999488
20
-141.59999999999999
10
17.89999999999992
20
-141.59999999999999
10
17.89999999999992
20
-136.59999999999999
0
LWPOLYLINE
5
133
100
AcDbEntity
8
0
100
AcDbPolyline
90
4
70
1
43
0.0
10
149.89999999999995
20
-103.2
10
136.89999999999998
20
-103.2
10
136.89999999999998
20
-108.2
10
149.89999999999995
20
-108.2
0
LWPOLYLINE
5
134
100
AcDbEntity
8
0
100
AcDbPolyline
90
4
70
1
43
0.0
10
92.900000000000006
20
-108.2
10
105.90000000000002
20
-108.2
10
105.90000000000002
20
-103.2
10
92.900000000000006
20
-103.2
0
LWPOLYLINE
5
135
100
AcDbEntity
8
0
100
AcDbPolyline
90
4
70
1
43
0.0
10
61.899999999999942
20
-136.59999999999999
10
48.89999999999997
20
-136.59999999999999
10
48.89999999999997
20
-141.59999999999999
10
61.899999999999942
20
-141.59999999999999
0
LWPOLYLINE
5
136
100
AcDbEntity
8
0
100
AcDbPolyline
90
4
70
1
43
0.0
10
-70.100000000000023
20
137.30000000000001
10
-83.100000000000023
20
137.30000000000001
10
-83.100000000000023
20
142.30000000000001
10
-70.100000000000023
20
142.30000000000001
0
LWPOLYLINE
5
137
100
AcDbEntity
8
0
100
AcDbPolyline
90
4
70
1
43
0.0
10
-136.10000000000008
20
92.200000000000003
10
-149.10000000000005
20
92.200000000000003
10
-149.10000000000005
20
87.200000000000017
10
-136.10000000000008
20
87.200000000000017
0
LWPOLYLINE
5
138
100
AcDbEntity
8
0
100
AcDbPolyline
90
4
70
1
43
0.0
10
-105.10000000000005
20
125.60000000000002
10
-92.10000000000008
20
125.60000000000002
10
-92.100000000000051
20
120.60000000000002
10
-105.10000000000005
20
120.60000000000002
0
LWPOLYLINE
5
139
100
AcDbEntity
8
0
100
AcDbPolyline
90
4
70
1
43
0.0
10
-39.100000000000037
20
142.30000000000001
10
-26.100000000000065
20
142.30000000000001
10
-26.100000000000065
20
137.30000000000001
10
-39.100000000000037
20
137.30000000000001
0
LWPOLYLINE
5
140
100
AcDbEntity
8
0
100
AcDbPolyline
90
4
70
1
43
0.0
10
-114.10000000000009
20
108.90000000000002
10
-114.10000000000009
20
103.90000000000002
10
-127.10000000000005
20
103.90000000000002
10
-127.10000000000005
20
108.90000000000002
0
LWPOLYLINE
5
141
100
AcDbEntity
8
0
100
AcDbPolyline
90
4
70
1
43
0.0
10
-48.100000000000065
20
154.00000000000003
10
-61.100000000000065
20
154.00000000000003
10
-61.100000000000065
20
159.00000000000003
10
-48.100000000000065
20
159.00000000000003
0
LWPOLYLINE
5
142
100
AcDbEntity
8
0
100
AcDbPolyline
90
4
70
1
43
0.0
10
-4.1000000000000369
20
120.60000000000002
10
-17.100000000000009
20
120.60000000000002
10
-17.100000000000009
20
125.60000000000002
10
-4.1000000000000369
20
125.60000000000002
0
LWPOLYLINE
5
143
100
AcDbEntity
8
0
100
AcDbPolyline
90
4
70
1
43
0.0
10
-4.1000000000000369
20
-124.89999999999998
10
-17.100000000000009
20
-124.89999999999998
10
-17.100000000000009
20
-119.89999999999998
10
-4.1000000000000369
20
-119.89999999999998
0
LWPOLYLINE
5
144
100
AcDbEntity
8
0
100
AcDbPolyline
90
4
70
1
43
0.0
10
-136.10000000000008
20
-158.29999999999995
10
-149.10000000000005
20
-158.29999999999995
10
-149.10000000000005
20
-153.29999999999995
10
-136.10000000000008
20
-153.29999999999995
0
LWPOLYLINE
5
145
100
AcDbEntity
8
0
100
AcDbPolyline
90
4
70
1
43
0.0
10
-92.10000000000008
20
-119.89999999999998
10
-105.10000000000005
20
-119.89999999999998
10
-105.10000000000005
20
-124.89999999999998
10
-92.10000000000008
20
-124.89999999999998
0
LWPOLYLINE
5
146
100
AcDbEntity
8
0
100
AcDbPolyline
90
4
70
1
43
0.0
10
-158.10000000000011
20
103.90000000000002
10
-171.10000000000011
20
103.90000000000002
10
-171.10000000000011
20
108.90000000000002
10
-158.10000000000011
20
108.90000000000002
0
LWPOLYLINE
5
147
100
AcDbEntity
8
0
100
AcDbPolyline
90
4
70
1
43
0.0
10
-61.100000000000065
20
-91.499999999999986
10
-61.100000000000065
20
-86.499999999999986
10
-48.100000000000065
20
-86.499999999999986
10
-48.100000000000065
20
-91.499999999999986
0
LWPOLYLINE
5
148
100
AcDbEntity
8
0
100
AcDbPolyline
90
4
70
1
43
0.0
10
-171.10000000000011
20
-136.59999999999999
10
-171.10000000000011
20
-141.59999999999999
10
-158.10000000000011
20
-141.59999999999999
10
-158.10000000000011
20
-136.59999999999999
0
LWPOLYLINE
5
149
100
AcDbEntity
8
0
100
AcDbPolyline
90
4
70
1
43
0.0
10
-39.100000000000037
20
-108.2
10
-26.100000000000065
20
-108.2
10
-26.100000000000065
20
-103.2
10
-39.100000000000037
20
-103.2
0
LWPOLYLINE
5
150
100
AcDbEntity
8
0
100
AcDbPolyline
90
4
70
1
43
0.0
10
-83.100000000000023
20
-108.2
10
-70.100000000000023
20
-108.2
10
-70.100000000000023
20
-103.2
10
-83.100000000000023
20
-103.2
0
LWPOLYLINE
5
151
100
AcDbEntity
8
0
100
AcDbPolyline
90
4
70
1
43
0.0
10
-114.10000000000009
20
-136.59999999999999
10
-127.10000000000005
20
-136.59999999999999
10
-127.10000000000005
20
-141.59999999999999
10
-114.10000000000009
20
-141.59999999999999
0
LWPOLYLINE
5
152
100
AcDbEntity
8
0
100
AcDbPolyline
90
4
70
1
43
0.0
10
-246.10000000000011
20
137.30000000000001
10
-259.10000000000014
20
137.30000000000001
10
-259.10000000000014
20
142.30000000000001
10
-246.10000000000011
20
142.30000000000001
0
LWPOLYLINE
5
153
100
AcDbEntity
8
0
100
AcDbPolyline
90
4
70
1
43
0.0
10
-281.10000000000014
20
120.60000000000002
10
-281.10000000000014
20
125.60000000000002
10
-268.10000000000014
20
125.60000000000002
10
-268.10000000000014
20
120.60000000000002
0
LWPOLYLINE
5
154
100
AcDbEntity
8
0
100
AcDbPolyline
90
4
70
1
43
0.0
10
-215.10000000000014
20
142.30000000000001
10
-202.10000000000011
20
142.30000000000001
10
-202.10000000000011
20
137.30000000000001
10
-215.10000000000014
20
137.30000000000001
0
LWPOLYLINE
5
155
100
AcDbEntity
8
0
100
AcDbPolyline
90
4
70
1
43
0.0
10
-290.10000000000014
20
108.90000000000002
10
-290.10000000000014
20
103.90000000000002
10
-303.10000000000014
20
103.90000000000002
10
-303.10000000000014
20
108.90000000000002
0
LWPOLYLINE
5
156
100
AcDbEntity
8
0
100
AcDbPolyline
90
4
70
1
43
0.0
10
-312.10000000000014
20
87.200000000000017
10
-312.10000000000014
20
92.200000000000003
10
-325.10000000000014
20
92.200000000000003
10
-325.10000000000014
20
87.200000000000017
0
LWPOLYLINE
5
157
100
AcDbEntity
8
0
100
AcDbPolyline
90
4
70
1
43
0.0
10
-224.10000000000011
20
154.00000000000003
10
-237.10000000000011
20
154.00000000000003
10
-237.10000000000011
20
159.00000000000003
10
-224.10000000000011
20
159.00000000000003
0
LWPOLYLINE
5
158
100
AcDbEntity
8
0
100
AcDbPolyline
90
4
70
1
43
0.0
10
-180.10000000000014
20
120.60000000000002
10
-193.10000000000008
20
120.60000000000002
10
-193.10000000000008
20
125.60000000000002
10
-180.10000000000014
20
125.60000000000002
0
LWPOLYLINE
5
159
100
AcDbEntity
8
0
100
AcDbPolyline
90
4
70
1
43
0.0
10
-193.10000000000008
20
-119.89999999999998
10
-180.10000000000014
20
-119.89999999999998
10
-180.10000000000014
20
-124.89999999999998
10
-193.10000000000008
20
-124.89999999999998
0
LWPOLYLINE
5
160
100
AcDbEntity
8
0
100
AcDbPolyline
90
4
70
1
43
0.0
10
-312.10000000000014
20
-153.29999999999995
10
-312.10000000000014
20
-158.29999999999995
10
-325.10000000000014
20
-158.29999999999995
10
-325.10000000000014
20
-153.29999999999995
0
LWPOLYLINE
5
161
100
AcDbEntity
8
0
100
AcDbPolyline
90
4
70
1
43
0.0
10
-268.10000000000014
20
-119.89999999999998
10
-281.10000000000014
20
-119.89999999999998
10
-281.10000000000014
20
-124.89999999999998
10
-268.10000000000014
20
-124.89999999999998
0
LWPOLYLINE
5
162
100
AcDbEntity
8
0
100
AcDbPolyline
90
4
70
1
43
0.0
10
-334.10000000000019
20
103.90000000000002
10
-347.10000000000014
20
103.90000000000002
10
-347.10000000000014
20
108.90000000000002
10
-334.10000000000019
20
108.90000000000002
0
LWPOLYLINE
5
163
100
AcDbEntity
8
0
100
AcDbPolyline
90
4
70
1
43
0.0
10
-237.10000000000011
20
-91.499999999999986
10
-237.10000000000011
20
-86.499999999999986
10
-224.10000000000011
20
-86.499999999999986
10
-224.10000000000011
20
-91.499999999999986
0
LWPOLYLINE
5
164
100
AcDbEntity
8
0
100
AcDbPolyline
90
4
70
1
43
0.0
10
-347.10000000000014
20
-136.59999999999999
10
-347.10000000000014
20
-141.59999999999999
10
-334.10000000000019
20
-141.59999999999999
10
-334.10000000000019
20
-136.59999999999999
0
LWPOLYLINE
5
165
100
AcDbEntity
8
0
100
AcDbPolyline
90
4
70
1
43
0.0
10
-290.10000000000014
20
-136.59999999999999
10
-290.10000000000014
20
-141.59999999999999
10
-303.10000000000014
20
-141.59999999999999
10
-303.10000000000014
20
-136.59999999999999
0
LWPOLYLINE
5
166
100
AcDbEntity
8
0
100
AcDbPolyline
90
4
70
1
43
0.0
10
-202.10000000000011
20
-103.2
10
-215.10000000000014
20
-103.2
10
-215.10000000000014
20
-108.2
10
-202.10000000000011
20
-108.2
0
LWPOLYLINE
5
167
100
AcDbEntity
8
0
100
AcDbPolyline
90
4
70
1
43
0.0
10
-259.10000000000014
20
-108.2
10
-246.10000000000011
20
-108.2
10
-246.10000000000011
20
-103.2
10
-259.10000000000014
20
-103.2
0
LINE
5
168
100
AcDbEntity
8
0
100
AcDbLine
10
-369.00000000001745
20
-174.99999869735251
30
0
11
-370.0000049747764
21
-174.99999870051087
31
0
0
ENDSEC
0
SECTION
2
OBJECTS
0
DICTIONARY
5
C
100
AcDbDictionary
3
ACAD_GROUP
350
D
3
ACAD_MLINESTYLE
350
17
0
DICTIONARY
5
D
100
AcDbDictionary
0
DICTIONARY
5
1A
330
C
100
AcDbDictionary
0
DICTIONARY
5
17
100
AcDbDictionary
0
ENDSEC
0
EOF
