0
SECTION
2
HEADER
9
$INSUNITS
70
4
9
$ACADVER
1
AC1014
9
$HANDSEED
5
FFFF
0
ENDSEC
0
SECTION
2
TABLES
0
TABLE
2
VPORT
5
8
100
AcDbSymbolTable
0
ENDTAB
0
TABLE
2
LTYPE
5
5
100
AcDbSymbolTable
0
LTYPE
5
14
100
AcDbSymbolTableRecord
100
AcDbLinetypeTableRecord
2
BYBLOCK
70
0
0
LTYPE
5
15
100
AcDbSymbolTableRecord
100
AcDbLinetypeTableRecord
2
BYLAYER
70
0
0
ENDTAB
0
TABLE
2
LAYER
5
2
100
AcDbSymbolTable
70
2
0
LAYER
5
50
100
AcDbSymbolTableRecord
100
AcDbLayerTableRecord
2
0
70
0
6
CONTINUOUS
0
ENDTAB
0
TABLE
2
STYLE
5
3
100
AcDbSymbolTable
70
1
0
STYLE
5
11
100
AcDbSymbolTableRecord
100
AcDbTextStyleTableRecord
2
STANDARD
70
0
0
ENDTAB
0
TABLE
2
VIEW
5
6
100
AcDbSymbolTable
70
0
0
ENDTAB
0
TABLE
2
UCS
5
7
100
AcDbSymbolTable
70
0
0
ENDTAB
0
TABLE
2
APPID
5
9
100
AcDbSymbolTable
70
2
0
APPID
5
12
100
AcDbSymbolTableRecord
100
AcDbRegAppTableRecord
2
ACAD
70
0
0
ENDTAB
0
TABLE
2
DIMSTYLE
5
A
100
AcDbSymbolTable
70
1
0
ENDTAB
0
TABLE
2
BLOCK_RECORD
5
1
100
AcDbSymbolTable
70
1
0
BLOCK_RECORD
5
1F
100
AcDbSymbolTableRecord
100
AcDbBlockTableRecord
2
*MODEL_SPACE
0
BLOCK_RECORD
5
1B
100
AcDbSymbolTableRecord
100
AcDbBlockTableRecord
2
*PAPER_SPACE
0
ENDTAB
0
ENDSEC
0
SECTION
2
BLOCKS
0
BLOCK
5
20
100
AcDbEntity
100
AcDbBlockBegin
2
*MODEL_SPACE
0
ENDBLK
5
21
100
AcDbEntity
100
AcDbBlockEnd
0
BLOCK
5
1C
100
AcDbEntity
100
AcDbBlockBegin
2
*PAPER_SPACE
0
ENDBLK
5
1D
100
AcDbEntity
100
AcDbBlockEnd
0
ENDSEC
0
SECTION
2
ENTITIES
0
LINE
5
100
100
AcDbEntity
8
0
100
AcDbLine
10
0
20
63.000000000000007
30
0
11
0
21
46.170000000000002
31
0
0
LINE
5
101
100
AcDbEntity
8
0
100
AcDbLine
10
0
20
46.170000000000002
30
0
11
6.0000000000000009
21
46.170000000000002
31
0
0
LINE
5
102
100
AcDbEntity
8
0
100
AcDbLine
10
6.0000000000000009
20
46.170000000000002
30
0
11
6.0000000000000009
21
19.829999999999998
31
0
0
LINE
5
103
100
AcDbEntity
8
0
100
AcDbLine
10
6.0000000000000009
20
19.829999999999998
30
0
11
0
21
19.829999999999998
31
0
0
LINE
5
104
100
AcDbEntity
8
0
100
AcDbLine
10
0
20
19.829999999999998
30
0
11
0
21
3.0000000000000004
31
0
0
LINE
5
105
100
AcDbEntity
8
0
100
AcDbLine
10
0
20
3.0000000000000004
30
0
11
45.75
21
3.0000000000000004
31
0
0
LINE
5
106
100
AcDbEntity
8
0
100
AcDbLine
10
45.75
20
3.0000000000000004
30
0
11
45.75
21
9
31
0
0
LINE
5
107
100
AcDbEntity
8
0
100
AcDbLine
10
45.75
20
9
30
0
11
72.090000000000003
21
9
31
0
0
LINE
5
108
100
AcDbEntity
8
0
100
AcDbLine
10
72.090000000000003
20
9
30
0
11
72.090000000000003
21
3.0000000000000004
31
0
0
LINE
5
109
100
AcDbEntity
8
0
100
AcDbLine
10
72.090000000000003
20
3.0000000000000004
30
0
11
98.430000000000021
21
3.0000000000000004
31
0
0
LINE
5
110
100
AcDbEntity
8
0
100
AcDbLine
10
98.430000000000021
20
3.0000000000000004
30
0
11
98.430000000000021
21
9
31
0
0
LINE
5
111
100
AcDbEntity
8
0
100
AcDbLine
10
98.430000000000021
20
9
30
0
11
124.77000000000001
21
9
31
0
0
LINE
5
112
100
AcDbEntity
8
0
100
AcDbLine
10
124.77000000000001
20
9
30
0
11
124.77000000000001
21
3.0000000000000004
31
0
0
LINE
5
113
100
AcDbEntity
8
0
100
AcDbLine
10
124.77000000000001
20
3.0000000000000004
30
0
11
151.11000000000001
21
3.0000000000000004
31
0
0
LINE
5
114
100
AcDbEntity
8
0
100
AcDbLine
10
151.11000000000001
20
3.0000000000000004
30
0
11
151.11000000000001
21
9
31
0
0
LINE
5
115
100
AcDbEntity
8
0
100
AcDbLine
10
151.11000000000001
20
9
30
0
11
177.45000000000002
21
9
31
0
0
LINE
5
116
100
AcDbEntity
8
0
100
AcDbLine
10
177.45000000000002
20
9
30
0
11
177.45000000000002
21
3.0000000000000004
31
0
0
LINE
5
117
100
AcDbEntity
8
0
100
AcDbLine
10
177.45000000000002
20
3.0000000000000004
30
0
11
203.79000000000002
21
3.0000000000000004
31
0
0
LINE
5
118
100
AcDbEntity
8
0
100
AcDbLine
10
203.79000000000002
20
3.0000000000000004
30
0
11
203.79000000000002
21
9
31
0
0
LINE
5
119
100
AcDbEntity
8
0
100
AcDbLine
10
203.79000000000002
20
9
30
0
11
230.13000000000002
21
9
31
0
0
LINE
5
120
100
AcDbEntity
8
0
100
AcDbLine
10
230.13000000000002
20
9
30
0
11
230.13000000000002
21
3.0000000000000004
31
0
0
LINE
5
121
100
AcDbEntity
8
0
100
AcDbLine
10
230.13000000000002
20
3.0000000000000004
30
0
11
256.47000000000003
21
3.0000000000000004
31
0
0
LINE
5
122
100
AcDbEntity
8
0
100
AcDbLine
10
256.47000000000003
20
3.0000000000000004
30
0
11
256.47000000000003
21
9
31
0
0
LINE
5
123
100
AcDbEntity
8
0
100
AcDbLine
10
256.47000000000003
20
9
30
0
11
282.81
21
9
31
0
0
LINE
5
124
100
AcDbEntity
8
0
100
AcDbLine
10
282.81
20
9
30
0
11
282.81
21
3.0000000000000004
31
0
0
LINE
5
125
100
AcDbEntity
8
0
100
AcDbLine
10
282.81
20
3.0000000000000004
30
0
11
309.14999999999998
21
3.0000000000000004
31
0
0
LINE
5
126
100
AcDbEntity
8
0
100
AcDbLine
10
309.14999999999998
20
3.0000000000000004
30
0
11
309.14999999999998
21
9
31
0
0
LINE
5
127
100
AcDbEntity
8
0
100
AcDbLine
10
309.14999999999998
20
9
30
0
11
335.49000000000001
21
9
31
0
0
LINE
5
128
100
AcDbEntity
8
0
100
AcDbLine
10
335.49000000000001
20
9
30
0
11
335.49000000000001
21
3.0000000000000004
31
0
0
LINE
5
129
100
AcDbEntity
8
0
100
AcDbLine
10
335.49000000000001
20
3.0000000000000004
30
0
11
361.82999999999998
21
3.0000000000000004
31
0
0
LINE
5
130
100
AcDbEntity
8
0
100
AcDbLine
10
361.82999999999998
20
3.0000000000000004
30
0
11
361.82999999999998
21
9
31
0
0
LINE
5
131
100
AcDbEntity
8
0
100
AcDbLine
10
361.82999999999998
20
9
30
0
11
388.17000000000007
21
9
31
0
0
LINE
5
132
100
AcDbEntity
8
0
100
AcDbLine
10
388.17000000000007
20
9
30
0
11
388.17000000000007
21
3.0000000000000004
31
0
0
LINE
5
133
100
AcDbEntity
8
0
100
AcDbLine
10
388.17000000000007
20
3.0000000000000004
30
0
11
414.50999999999999
21
3.0000000000000004
31
0
0
LINE
5
134
100
AcDbEntity
8
0
100
AcDbLine
10
414.50999999999999
20
3.0000000000000004
30
0
11
414.50999999999999
21
9
31
0
0
LINE
5
135
100
AcDbEntity
8
0
100
AcDbLine
10
414.50999999999999
20
9
30
0
11
440.85000000000008
21
9
31
0
0
LINE
5
136
100
AcDbEntity
8
0
100
AcDbLine
10
440.85000000000008
20
9
30
0
11
440.85000000000008
21
3.0000000000000004
31
0
0
LINE
5
137
100
AcDbEntity
8
0
100
AcDbLine
10
440.85000000000008
20
3.0000000000000004
30
0
11
467.19
21
3.0000000000000004
31
0
0
LINE
5
138
100
AcDbEntity
8
0
100
AcDbLine
10
467.19
20
3.0000000000000004
30
0
11
467.19
21
9
31
0
0
LINE
5
139
100
AcDbEntity
8
0
100
AcDbLine
10
467.19
20
9
30
0
11
493.53000000000003
21
9
31
0
0
LINE
5
140
100
AcDbEntity
8
0
100
AcDbLine
10
493.53000000000003
20
9
30
0
11
493.53000000000003
21
3.0000000000000004
31
0
0
LINE
5
141
100
AcDbEntity
8
0
100
AcDbLine
10
493.53000000000003
20
3.0000000000000004
30
0
11
519.87
21
3.0000000000000004
31
0
0
LINE
5
142
100
AcDbEntity
8
0
100
AcDbLine
10
519.87
20
3.0000000000000004
30
0
11
519.87
21
9
31
0
0
LINE
5
143
100
AcDbEntity
8
0
100
AcDbLine
10
519.87
20
9
30
0
11
546.21000000000004
21
9
31
0
0
LINE
5
144
100
AcDbEntity
8
0
100
AcDbLine
10
546.21000000000004
20
9
30
0
11
546.21000000000004
21
3.0000000000000004
31
0
0
LINE
5
145
100
AcDbEntity
8
0
100
AcDbLine
10
546.21000000000004
20
3.0000000000000004
30
0
11
572.54999999999995
21
3.0000000000000004
31
0
0
LINE
5
146
100
AcDbEntity
8
0
100
AcDbLine
10
572.54999999999995
20
3.0000000000000004
30
0
11
572.54999999999995
21
9
31
0
0
LINE
5
147
100
AcDbEntity
8
0
100
AcDbLine
10
572.54999999999995
20
9
30
0
11
598.88999999999999
21
9
31
0
0
LINE
5
148
100
AcDbEntity
8
0
100
AcDbLine
10
598.88999999999999
20
9
30
0
11
598.88999999999999
21
3.0000000000000004
31
0
0
LINE
5
149
100
AcDbEntity
8
0
100
AcDbLine
10
598.88999999999999
20
3.0000000000000004
30
0
11
625.23000000000002
21
3.0000000000000004
31
0
0
LINE
5
150
100
AcDbEntity
8
0
100
AcDbLine
10
625.23000000000002
20
3.0000000000000004
30
0
11
625.23000000000002
21
9
31
0
0
LINE
5
151
100
AcDbEntity
8
0
100
AcDbLine
10
625.23000000000002
20
9
30
0
11
651.57000000000016
21
9
31
0
0
LINE
5
152
100
AcDbEntity
8
0
100
AcDbLine
10
651.57000000000016
20
9
30
0
11
651.57000000000016
21
3.0000000000000004
31
0
0
LINE
5
153
100
AcDbEntity
8
0
100
AcDbLine
10
651.57000000000016
20
3.0000000000000004
30
0
11
677.90999999999997
21
3.0000000000000004
31
0
0
LINE
5
154
100
AcDbEntity
8
0
100
AcDbLine
10
677.90999999999997
20
3.0000000000000004
30
0
11
677.90999999999997
21
9
31
0
0
LINE
5
155
100
AcDbEntity
8
0
100
AcDbLine
10
677.90999999999997
20
9
30
0
11
704.25
21
9
31
0
0
LINE
5
156
100
AcDbEntity
8
0
100
AcDbLine
10
704.25
20
9
30
0
11
704.25
21
3.0000000000000004
31
0
0
LINE
5
157
100
AcDbEntity
8
0
100
AcDbLine
10
704.25
20
3.0000000000000004
30
0
11
730.59000000000015
21
3.0000000000000004
31
0
0
LINE
5
158
100
AcDbEntity
8
0
100
AcDbLine
10
750
20
3.0000000000000004
30
0
11
750
21
19.829999999999998
31
0
0
LINE
5
159
100
AcDbEntity
8
0
100
AcDbLine
10
750
20
19.829999999999998
30
0
11
744
21
19.829999999999998
31
0
0
LINE
5
160
100
AcDbEntity
8
0
100
AcDbLine
10
744
20
19.829999999999998
30
0
11
744
21
46.170000000000002
31
0
0
LINE
5
161
100
AcDbEntity
8
0
100
AcDbLine
10
744
20
46.170000000000002
30
0
11
750
21
46.170000000000002
31
0
0
LINE
5
162
100
AcDbEntity
8
0
100
AcDbLine
10
750
20
46.170000000000002
30
0
11
750
21
63.000000000000007
31
0
0
LINE
5
163
100
AcDbEntity
8
0
100
AcDbLine
10
750
20
63.000000000000007
30
0
11
0
21
63.000000000000007
31
0
0
LWPOLYLINE
5
164
100
AcDbEntity
8
0
100
AcDbPolyline
90
37
70
1
43
0.0
10
759
20
63.000000000000007
10
759
20
46.170000000000002
10
753
20
46.170000000000002
10
753
20
19.829999999999998
10
759
20
19.829999999999998
10
759
20
3.0000000000000004
10
788.13
20
3.0000000000000004
10
788.13
20
9
10
814.47000000000003
20
9
10
814.47000000000003
20
3.0000000000000004
10
840.81000000000006
20
3.0000000000000004
10
840.81000000000006
20
9
10
867.15000000000009
20
9
10
867.15000000000009
20
3.0000000000000004
10
893.49000000000001
20
3.0000000000000004
10
893.49000000000001
20
9
10
919.83000000000004
20
9
10
919.83000000000004
20
3.0000000000000004
10
946.17000000000007
20
3.0000000000000004
10
946.17000000000007
20
9
10
972.50999999999999
20
9
10
972.50999999999999
20
3.0000000000000004
10
998.85000000000002
20
3.0000000000000004
10
998.85000000000002
20
9
10
1025.1900000000001
20
9
10
1025.1900000000001
20
3.0000000000000004
10
1051.53
20
3.0000000000000004
10
1051.53
20
9
10
1077.8699999999999
20
9
10
1077.8699999999999
20
3.0000000000000004
10
1104.21
20
3.0000000000000004
10
1107
20
3.0000000000000004
10
1107
20
19.829999999999998
10
1113
20
19.829999999999998
10
1113
20
46.170000000000002
10
1107
20
46.170000000000002
10
1107
20
63.000000000000007
0
LWPOLYLINE
5
165
100
AcDbEntity
8
0
100
AcDbPolyline
90
65
70
1
43
0.0
10
0
20
126.00000000000001
10
0
20
109.17000000000002
10
6.0000000000000009
20
109.17000000000002
10
6.0000000000000009
20
82.829999999999998
10
0
20
82.829999999999998
10
0
20
66
10
45.75
20
66
10
45.75
20
72
10
72.090000000000003
20
72
10
72.090000000000003
20
66
10
98.430000000000021
20
66
10
98.430000000000021
20
72
10
124.77000000000001
20
72
10
124.77000000000001
20
66
10
151.11000000000001
20
66
10
151.11000000000001
20
72
10
177.45000000000002
20
72
10
177.45000000000002
20
66
10
203.79000000000002
20
66
10
203.79000000000002
20
72
10
230.13000000000002
20
72
10
230.13000000000002
20
66
10
256.47000000000003
20
66
10
256.47000000000003
20
72
10
282.81
20
72
10
282.81
20
66
10
309.14999999999998
20
66
10
309.14999999999998
20
72
10
335.49000000000001
20
72
10
335.49000000000001
20
66
10
361.82999999999998
20
66
10
361.82999999999998
20
72
10
388.17000000000007
20
72
10
388.17000000000007
20
66
10
414.50999999999999
20
66
10
414.50999999999999
20
72
10
440.85000000000008
20
72
10
440.85000000000008
20
66
10
467.19
20
66
10
467.19
20
72
10
493.53000000000003
20
72
10
493.53000000000003
20
66
10
519.87
20
66
10
519.87
20
72
10
546.21000000000004
20
72
10
546.21000000000004
20
66
10
572.54999999999995
20
66
10
572.54999999999995
20
72
10
598.88999999999999
20
72
10
598.88999999999999
20
66
10
625.23000000000002
20
66
10
625.23000000000002
20
72
10
651.57000000000016
20
72
10
651.57000000000016
20
66
10
677.90999999999997
20
66
10
677.90999999999997
20
72
10
704.25
20
72
10
704.25
20
66
10
730.59000000000015
20
66
10
750
20
66
10
750
20
82.829999999999998
10
744
20
82.829999999999998
10
744
20
109.17000000000002
10
750
20
109.17000000000002
10
750
20
126.00000000000001
0
LWPOLYLINE
5
166
100
AcDbEntity
8
0
100
AcDbPolyline
90
37
70
1
43
0.0
10
759
20
126.00000000000001
10
759
20
109.17000000000002
10
753
20
109.17000000000002
10
753
20
82.829999999999998
10
759
20
82.829999999999998
10
759
20
66
10
788.13
20
66
10
788.13
20
72
10
814.47000000000003
20
72
10
814.47000000000003
20
66
10
840.81000000000006
20
66
10
840.81000000000006
20
72
10
867.15000000000009
20
72
10
867.15000000000009
20
66
10
893.49000000000001
20
66
10
893.49000000000001
20
72
10
919.83000000000004
20
72
10
919.83000000000004
20
66
10
946.17000000000007
20
66
10
946.17000000000007
20
72
10
972.50999999999999
20
72
10
972.50999999999999
20
66
10
998.85000000000002
20
66
10
998.85000000000002
20
72
10
1025.1900000000001
20
72
10
1025.1900000000001
20
66
10
1051.53
20
66
10
1051.53
20
72
10
1077.8699999999999
20
72
10
1077.8699999999999
20
66
10
1104.21
20
66
10
1107
20
66
10
1107
20
82.829999999999998
10
1113
20
82.829999999999998
10
1113
20
109.17000000000002
10
1107
20
109.17000000000002
10
1107
20
126.00000000000001
0
LWPOLYLINE
5
167
100
AcDbEntity
8
0
100
AcDbPolyline
90
160
70
1
43
0.0
10
1122
20
357
10
1122
20
327.87
10
1116
20
327.87
10
1116
20
301.52999999999997
10
1122
20
301.52999999999997
10
1122
20
275.19
10
1116
20
275.19
10
1116
20
248.85000000000002
10
1122
20
248.85000000000002
10
1122
20
222.51000000000002
10
1116
20
222.51000000000002
10
1116
20
196.17000000000002
10
1122
20
196.17000000000002
10
1122
20
169.83000000000001
10
1116
20
169.83000000000001
10
1116
20
143.49000000000001
10
1122
20
143.49000000000001
10
1122
20
117.15000000000002
10
1116
20
117.15000000000002
10
1116
20
90.810000000000016
10
1122
20
90.810000000000016
10
1122
20
64.469999999999999
10
1116
20
64.469999999999999
10
1116
20
38.13000000000001
10
1122
20
38.13000000000001
10
1122
20
11.790000000000003
10
1122
20
9
10
1161.75
20
9
10
1161.75
20
3.0000000000000004
10
1188.0899999999999
20
3.0000000000000004
10
1188.0899999999999
20
9
10
1214.4300000000001
20
9
10
1214.4300000000001
20
3.0000000000000004
10
1240.77
20
3.0000000000000004
10
1240.77
20
9
10
1267.1099999999999
20
9
10
1267.1099999999999
20
3.0000000000000004
10
1293.45
20
3.0000000000000004
10
1293.45
20
9
10
1319.7900000000002
20
9
10
1319.7900000000002
20
3.0000000000000004
10
1346.1300000000003
20
3.0000000000000004
10
1346.1300000000003
20
9
10
1372.4700000000003
20
9
10
1372.4700000000003
20
3.0000000000000004
10
1398.8099999999999
20
3.0000000000000004
10
1398.8099999999999
20
9
10
1425.1500000000001
20
9
10
1425.1500000000001
20
3.0000000000000004
10
1451.49
20
3.0000000000000004
10
1451.49
20
9
10
1477.8299999999999
20
9
10
1477.8299999999999
20
3.0000000000000004
10
1504.1700000000001
20
3.0000000000000004
10
1504.1700000000001
20
9
10
1530.5100000000002
20
9
10
1530.5100000000002
20
3.0000000000000004
10
1556.8499999999999
20
3.0000000000000004
10
1556.8499999999999
20
9
10
1583.1900000000001
20
9
10
1583.1900000000001
20
3.0000000000000004
10
1609.53
20
3.0000000000000004
10
1609.53
20
9
10
1635.8699999999999
20
9
10
1635.8699999999999
20
3.0000000000000004
10
1662.21
20
3.0000000000000004
10
1662.21
20
9
10
1688.5500000000002
20
9
10
1688.5500000000002
20
3.0000000000000004
10
1714.8900000000003
20
3.0000000000000004
10
1714.8900000000003
20
9
10
1741.2300000000002
20
9
10
1741.2300000000002
20
3.0000000000000004
10
1767.5700000000002
20
3.0000000000000004
10
1767.5700000000002
20
9
10
1793.9100000000003
20
9
10
1793.9100000000003
20
3.0000000000000004
10
1820.25
20
3.0000000000000004
10
1820.25
20
9
10
1846.5899999999999
20
9
10
1860
20
9
10
1860
20
38.13000000000001
10
1866.0000000000002
20
38.13000000000001
10
1866.0000000000002
20
64.469999999999999
10
1860
20
64.469999999999999
10
1860
20
90.810000000000016
10
1866.0000000000002
20
90.810000000000016
10
1866.0000000000002
20
117.15000000000002
10
1860
20
117.15000000000002
10
1860
20
143.49000000000001
10
1866.0000000000002
20
143.49000000000001
10
1866.0000000000002
20
169.83000000000001
10
1860
20
169.83000000000001
10
1860
20
196.17000000000002
10
1866.0000000000002
20
196.17000000000002
10
1866.0000000000002
20
222.51000000000002
10
1860
20
222.51000000000002
10
1860
20
248.85000000000002
10
1866.0000000000002
20
248.85000000000002
10
1866.0000000000002
20
275.19
10
1860
20
275.19
10
1860
20
301.52999999999997
10
1866.0000000000002
20
301.52999999999997
10
1866.0000000000002
20
327.87
10
1860
20
327.87
10
1860
20
354.20999999999998
10
1860
20
357
10
1820.25
20
357
10
1820.25
20
363.00000000000006
10
1793.9100000000003
20
363.00000000000006
10
1793.9100000000003
20
357
10
1767.5700000000002
20
357
10
1767.5700000000002
20
363.00000000000006
10
1741.2300000000002
20
363.00000000000006
10
1741.2300000000002
20
357
10
1714.8900000000003
20
357
10
1714.8900000000003
20
363.00000000000006
10
1688.5500000000002
20
363.00000000000006
10
1688.5500000000002
20
357
10
1662.21
20
357
10
1662.21
20
363.00000000000006
10
1635.8699999999999
20
363.00000000000006
10
1635.8699999999999
20
357
10
1609.53
20
357
10
1609.53
20
363.00000000000006
10
1583.1900000000001
20
363.00000000000006
10
1583.1900000000001
20
357
10
1556.8499999999999
20
357
10
1556.8499999999999
20
363.00000000000006
10
1530.5100000000002
20
363.00000000000006
10
1530.5100000000002
20
357
10
1504.1700000000001
20
357
10
1504.1700000000001
20
363.00000000000006
10
1477.8299999999999
20
363.00000000000006
10
1477.8299999999999
20
357
10
1451.49
20
357
10
1451.49
20
363.00000000000006
10
1425.1500000000001
20
363.00000000000006
10
1425.1500000000001
20
357
10
1398.8099999999999
20
357
10
1398.8099999999999
20
363.00000000000006
10
1372.4700000000003
20
363.00000000000006
10
1372.4700000000003
20
357
10
1346.1300000000003
20
357
10
1346.1300000000003
20
363.00000000000006
10
1319.7900000000002
20
363.00000000000006
10
1319.7900000000002
20
357
10
1293.45
20
357
10
1293.45
20
363.00000000000006
10
1267.1099999999999
20
363.00000000000006
10
1267.1099999999999
20
357
10
1240.77
20
357
10
1240.77
20
363.00000000000006
10
1214.4300000000001
20
363.00000000000006
10
1214.4300000000001
20
357
10
1188.0899999999999
20
357
10
1188.0899999999999
20
363.00000000000006
10
1161.75
20
363.00000000000006
10
1161.75
20
357
10
1135.4100000000001
20
357
0
LWPOLYLINE
5
168
100
AcDbEntity
8
0
100
AcDbPolyline
90
4
70
1
43
0.0
10
1079.4242400177118
20
93.75
10
1055.5757599822882
20
93.75
42
0.054781231122152427
10
1056.6746824526945
20
91.25
10
1078.3253175473055
20
91.25
42
0.054781231122152427
0
LWPOLYLINE
5
169
100
AcDbEntity
8
0
100
AcDbPolyline
90
2
70
1
43
0.0
10
1058.5732144643214
20
88.75
10
1076.4267855356786
20
88.75
0
LWPOLYLINE
5
170
100
AcDbEntity
8
0
100
AcDbPolyline
90
2
70
1
43
0.0
10
1055.5757599822882
20
101.25
10
1079.4242400177118
20
101.25
0
LINE
5
171
100
AcDbEntity
8
0
100
AcDbLine
10
1080
20
98.75
30
0
11
1055.0620351223752
21
96.256203512237519
31
0
0
LINE
5
172
100
AcDbEntity
8
0
100
AcDbLine
10
1080
20
85
30
0
11
1080
21
86.25
31
0
0
LWPOLYLINE
5
173
100
AcDbEntity
8
0
100
AcDbPolyline
90
2
70
1
43
0.0
10
1076.4267855356786
20
106.25
10
1058.5732144643214
20
106.25
0
LINE
5
174
100
AcDbEntity
8
0
100
AcDbLine
10
1079.9373429638329
20
98.75
30
0
11
1055.0626570361671
21
98.75
31
0
0
LWPOLYLINE
5
175
100
AcDbEntity
8
0
100
AcDbPolyline
90
2
70
1
43
0.0
10
1079.9373429638329
20
96.25
10
1055.0626570361671
20
96.25
0
LINE
5
176
100
AcDbEntity
8
0
100
AcDbLine
10
1078.3253175473055
20
103.75
30
0
11
1056.6746824526945
21
103.75
31
0
0
LINE
5
177
100
AcDbEntity
8
0
100
AcDbLine
10
1056.6746824526945
20
91.25
30
0
11
1078.3253175473055
21
91.25
31
0
0
ARC
5
178
100
AcDbEntity
8
0
100
AcDbCircle
10
1067.5
20
97.5
30
0
40
12.500000000000039
210
0
220
-0
230
1
100
AcDbArc
50
44.427004000805532
51
64.158067236832366
0
ARC
5
179
100
AcDbEntity
8
0
100
AcDbCircle
10
1067.5
20
97.5
30
0
40
12.500000000000039
210
0
220
0
230
1
100
AcDbArc
50
150.00000000000011
51
162.54239687627788
0
LINE
5
180
100
AcDbEntity
8
0
100
AcDbLine
10
1056.6746824526945
20
103.75
30
0
11
1078.3253175473055
21
103.75
31
0
0
ARC
5
181
100
AcDbEntity
8
0
100
AcDbCircle
10
1067.5
20
97.5
30
0
40
12.500000000000039
210
0
220
0
230
1
100
AcDbArc
50
224.42700400080551
51
244.15806723683232
0
LINE
5
182
100
AcDbEntity
8
0
100
AcDbLine
10
1055
20
98.75
30
0
11
1080
21
96.25
31
0
0
LINE
5
183
100
AcDbEntity
8
0
100
AcDbLine
10
1062.051376320574
20
108.75
30
0
11
1072.948623679426
21
108.75
31
0
0
LINE
5
184
100
AcDbEntity
8
0
100
AcDbLine
10
1062.051376320574
20
86.25
30
0
11
1072.948623679426
21
86.25
31
0
0
ARC
5
185
100
AcDbEntity
8
0
100
AcDbCircle
10
1067.5
20
97.5
30
0
40
12.500000000000055
210
0
220
0
230
1
100
AcDbArc
50
174.26082952273327
51
185.73917047726673
0
ARC
5
186
100
AcDbEntity
8
0
100
AcDbCircle
10
1067.5
20
97.5
30
0
40
12.500000000000004
210
0
220
0
230
1
100
AcDbArc
50
295.84193276316762
51
315.57299599919452
0
LINE
5
187
100
AcDbEntity
8
0
100
AcDbLine
10
1055.5757599822882
20
93.75
30
0
11
1079.4242400177118
21
93.75
31
0
0
ARC
5
188
100
AcDbEntity
8
0
100
AcDbCircle
10
1067.5
20
97.5
30
0
40
12.500000000000044
210
0
220
-0
230
1
100
AcDbArc
50
17.45760312372213
51
29.99999999999989
0
ARC
5
189
100
AcDbEntity
8
0
100
AcDbCircle
10
1067.5
20
97.5
30
0
40
12.500000000000055
210
0
220
0
230
1
100
AcDbArc
50
-5.7391704772667325
51
5.7391704772667165
0
ARC
5
190
100
AcDbEntity
8
0
100
AcDbCircle
10
1067.5
20
97.5
30
0
40
12.500000000000004
210
0
220
0
230
1
100
AcDbArc
50
115.84193276316763
51
135.57299599919449
0
LINE
5
191
100
AcDbEntity
8
0
100
AcDbLine
10
1079.9373429638329
20
98.75
30
0
11
1055.0626570361671
21
98.75
31
0
0
ENDSEC
0
SECTION
2
OBJECTS
0
DICTIONARY
5
C
100
AcDbDictionary
3
ACAD_GROUP
350
D
3
ACAD_MLINESTYLE
350
17
0
DICTIONARY
5
D
100
AcDbDictionary
0
DICTIONARY
5
1A
330
C
100
AcDbDictionary
0
DICTIONARY
5
17
100
AcDbDictionary
0
ENDSEC
0
EOF
