0
SECTION
2
HEADER
9
$INSUNITS
70
4
9
$ACADVER
1
AC1014
9
$HANDSEED
5
FFFF
0
ENDSEC
0
SECTION
2
TABLES
0
TABLE
2
VPORT
5
8
100
AcDbSymbolTable
0
ENDTAB
0
TABLE
2
LTYPE
5
5
100
AcDbSymbolTable
0
LTYPE
5
14
100
AcDbSymbolTableRecord
100
AcDbLinetypeTableRecord
2
BYBLOCK
70
0
0
LTYPE
5
15
100
AcDbSymbolTableRecord
100
AcDbLinetypeTableRecord
2
BYLAYER
70
0
0
ENDTAB
0
TABLE
2
LAYER
5
2
100
AcDbSymbolTable
70
2
0
LAYER
5
50
100
AcDbSymbolTableRecord
100
AcDbLayerTableRecord
2
0
70
0
6
CONTINUOUS
0
ENDTAB
0
TABLE
2
STYLE
5
3
100
AcDbSymbolTable
70
1
0
STYLE
5
11
100
AcDbSymbolTableRecord
100
AcDbTextStyleTableRecord
2
STANDARD
70
0
0
ENDTAB
0
TABLE
2
VIEW
5
6
100
AcDbSymbolTable
70
0
0
ENDTAB
0
TABLE
2
UCS
5
7
100
AcDbSymbolTable
70
0
0
ENDTAB
0
TABLE
2
APPID
5
9
100
AcDbSymbolTable
70
2
0
APPID
5
12
100
AcDbSymbolTableRecord
100
AcDbRegAppTableRecord
2
ACAD
70
0
0
ENDTAB
0
TABLE
2
DIMSTYLE
5
A
100
AcDbSymbolTable
70
1
0
ENDTAB
0
TABLE
2
BLOCK_RECORD
5
1
100
AcDbSymbolTable
70
1
0
BLOCK_RECORD
5
1F
100
AcDbSymbolTableRecord
100
AcDbBlockTableRecord
2
*MODEL_SPACE
0
BLOCK_RECORD
5
1B
100
AcDbSymbolTableRecord
100
AcDbBlockTableRecord
2
*PAPER_SPACE
0
ENDTAB
0
ENDSEC
0
SECTION
2
BLOCKS
0
BLOCK
5
20
100
AcDbEntity
100
AcDbBlockBegin
2
*MODEL_SPACE
0
ENDBLK
5
21
100
AcDbEntity
100
AcDbBlockEnd
0
BLOCK
5
1C
100
AcDbEntity
100
AcDbBlockBegin
2
*PAPER_SPACE
0
ENDBLK
5
1D
100
AcDbEntity
100
AcDbBlockEnd
0
ENDSEC
0
SECTION
2
ENTITIES
0
LWPOLYLINE
5
100
100
AcDbEntity
8
0
100
AcDbPolyline
90
84
70
1
43
0.0
10
-102.96565000000015
20
-33.068699999999964
10
-75.241550000000089
20
-33.068699999999964
10
-75.241550000000089
20
-39.068700000000049
10
-47.517450000000032
20
-39.068700000000049
10
-47.517450000000032
20
-33.068699999999964
10
-19.793350000000025
20
-33.068699999999964
10
-19.793350000000025
20
-39.068700000000049
10
7.9307499999999109
20
-39.068700000000064
10
7.9307499999999109
20
-33.068699999999978
10
35.654849999999989
20
-33.068699999999978
10
35.654849999999989
20
-39.068700000000064
10
63.378949999999932
20
-39.068700000000092
10
63.378949999999932
20
-33.0687
10
91.103049999999996
20
-33.0687
10
91.103049999999996
20
-39.068700000000092
10
118.82715000000007
20
-39.068700000000092
10
118.82715000000007
20
-33.0687
10
146.55124999999987
20
-33.068700000000021
10
146.55124999999987
20
-39.068700000000106
10
174.27535000000003
20
-39.068700000000106
10
174.27535000000003
20
-33.068700000000021
10
201.99945000000011
20
-33.068700000000021
10
201.99945000000011
20
-39.068700000000106
10
229.72354999999996
20
-39.068700000000121
10
229.72354999999996
20
-33.068700000000035
10
263.06869999999998
20
-33.068700000000035
10
263.06869999999998
20
-12.930750000000018
10
269.06870000000015
20
-12.930750000000018
10
269.06870000000015
20
14.793349999999919
10
263.06869999999998
20
14.793349999999919
10
263.06869999999998
20
34.931299999999936
10
229.72354999999996
20
34.931299999999951
10
229.72354999999996
20
40.931300000000014
10
201.99945000000011
20
40.931300000000014
10
201.99945000000011
20
34.931299999999965
10
174.27535000000003
20
34.931299999999965
10
174.27535000000003
20
40.931300000000014
10
146.55124999999987
20
40.931300000000014
10
146.55124999999987
20
34.931299999999965
10
118.82715000000007
20
34.931299999999965
10
118.82715000000007
20
40.931300000000014
10
91.103049999999996
20
40.931300000000014
10
91.103049999999996
20
34.931299999999993
10
63.378949999999932
20
34.931299999999993
10
63.378949999999932
20
40.931300000000014
10
35.654849999999989
20
40.931300000000014
10
35.654849999999989
20
34.931300000000007
10
7.9307499999999118
20
34.931300000000007
10
7.9307499999999109
20
40.931300000000014
10
-19.793350000000025
20
40.931300000000014
10
-19.793350000000025
20
34.931300000000007
10
-47.517450000000032
20
34.931300000000007
10
-47.517450000000032
20
40.931300000000014
10
-75.241550000000089
20
40.931300000000093
10
-75.241550000000089
20
34.931300000000022
10
-102.96565000000015
20
34.931300000000022
10
-102.96565000000015
20
40.931300000000093
10
-130.68975000000009
20
40.931300000000093
10
-130.68975000000009
20
34.93130000000005
10
-158.41385000000002
20
34.93130000000005
10
-158.41385000000002
20
40.931300000000093
10
-186.13795000000007
20
40.931300000000093
10
-186.13795000000007
20
34.93130000000005
10
-213.86205000000007
20
34.93130000000005
10
-213.86205000000007
20
40.931300000000093
10
-241.58615000000012
20
40.931300000000093
10
-241.58615000000012
20
34.931300000000064
10
-274.93130000000014
20
34.931300000000078
10
-274.93130000000014
20
14.793350000000045
10
-280.93130000000019
20
14.793350000000045
10
-280.93130000000019
20
-12.930749999999893
10
-274.93130000000014
20
-12.930749999999893
10
-274.93130000000014
20
-33.068699999999929
10
-241.58615000000026
20
-33.068699999999929
10
-241.58615000000026
20
-39.068700000000014
10
-213.86205000000007
20
-39.068700000000014
10
-213.86205000000007
20
-33.068699999999929
10
-186.13795000000007
20
-33.068699999999929
10
-186.13795000000007
20
-39.068700000000014
10
-158.41385000000002
20
-39.068700000000035
10
-158.41385000000002
20
-33.06869999999995
10
-130.68975000000017
20
-33.06869999999995
10
-130.68975000000017
20
-39.068700000000035
10
-102.96565000000015
20
-39.068700000000049
0
LWPOLYLINE
5
101
100
AcDbEntity
8
0
100
AcDbPolyline
90
4
70
1
43
0.0
10
-248.43130000000008
20
-31.068699999999936
10
-248.43130000000008
20
32.931300000000064
10
-243.43130000000008
20
32.931300000000064
10
-243.43130000000008
20
-31.068699999999936
0
LWPOLYLINE
5
102
100
AcDbEntity
8
0
100
AcDbPolyline
90
4
70
1
43
0.0
10
-279.68991278098139
20
-53.383097878432721
10
-251.68991278098136
20
-53.383097878432721
10
-251.68991278098136
20
-117.38309787843271
10
-279.68991278098139
20
-117.38309787843271
0
LWPOLYLINE
5
103
100
AcDbEntity
8
0
100
AcDbPolyline
90
4
70
1
43
0.0
10
-282.15111641884801
20
-160.71077659387703
10
-282.15111641884801
20
-125.71077659387704
10
-254.15111641884806
20
-125.71077659387704
10
-254.15111641884806
20
-160.71077659387703
0
LWPOLYLINE
5
104
100
AcDbEntity
8
0
100
AcDbPolyline
90
4
70
1
43
0.0
10
-220.15111641884806
20
-125.71077659387704
10
-220.15111641884806
20
-160.71077659387703
10
-248.15111641884809
20
-160.71077659387703
10
-248.15111641884809
20
-125.71077659387704
0
LWPOLYLINE
5
105
100
AcDbEntity
8
0
100
AcDbPolyline
90
4
70
1
43
0.0
10
-214.15111641884806
20
-125.71077659387704
10
-186.15111641884806
20
-125.71077659387704
10
-186.15111641884806
20
-160.71077659387703
10
-214.15111641884806
20
-160.71077659387703
0
LWPOLYLINE
5
106
100
AcDbEntity
8
0
100
AcDbPolyline
90
4
70
1
43
0.0
10
-152.15111641884806
20
-125.71077659387704
10
-152.15111641884806
20
-160.71077659387703
10
-180.15111641884803
20
-160.71077659387703
10
-180.15111641884803
20
-125.71077659387704
0
LWPOLYLINE
5
107
100
AcDbEntity
8
0
100
AcDbPolyline
90
4
70
1
43
0.0
10
-247.46769055875919
20
-117.38309787843271
10
-247.46769055875919
20
-53.383097878432721
10
-219.46769055875919
20
-53.383097878432721
10
-219.46769055875919
20
-117.38309787843271
0
LWPOLYLINE
5
108
100
AcDbEntity
8
0
100
AcDbPolyline
90
4
70
1
43
0.0
10
-187.24546833653702
20
-53.383097878432721
10
-187.24546833653702
20
-117.38309787843271
10
-215.2454683365369
20
-117.38309787843271
10
-215.2454683365369
20
-53.383097878432721
0
LWPOLYLINE
5
109
100
AcDbEntity
8
0
100
AcDbPolyline
90
4
70
1
43
0.0
10
-183.02324611431476
20
-53.383097878432721
10
-155.02324611431476
20
-53.383097878432721
10
-155.02324611431476
20
-117.38309787843271
10
-183.02324611431476
20
-117.38309787843271
0
LWPOLYLINE
5
110
100
AcDbEntity
8
0
100
AcDbPolyline
90
4
70
1
43
0.0
10
-150.80102389209247
20
-53.383097878432721
10
-122.8010238920925
20
-53.383097878432721
10
-122.8010238920925
20
-117.38309787843271
10
-150.80102389209247
20
-117.38309787843271
0
LWPOLYLINE
5
111
100
AcDbEntity
8
0
100
AcDbPolyline
90
4
70
1
43
0.0
10
-118.5788016698703
20
-117.38309787843271
10
-118.5788016698703
20
-53.383097878432721
10
-90.578801669870316
20
-53.383097878432721
10
-90.578801669870316
20
-117.38309787843271
0
LWPOLYLINE
5
112
100
AcDbEntity
8
0
100
AcDbPolyline
90
4
70
1
43
0.0
10
-58.356579447648052
20
-117.38309787843271
10
-86.356579447648016
20
-117.38309787843271
10
-86.356579447648016
20
-53.383097878432721
10
-58.356579447648052
20
-53.383097878432721
0
LWPOLYLINE
5
113
100
AcDbEntity
8
0
100
AcDbPolyline
90
4
70
1
43
0.0
10
-54.134357225425802
20
-117.38309787843271
10
-54.134357225425802
20
-53.383097878432721
10
-26.134357225425831
20
-53.383097878432721
10
-26.134357225425831
20
-117.38309787843271
0
LWPOLYLINE
5
114
100
AcDbEntity
8
0
100
AcDbPolyline
90
4
70
1
43
0.0
10
6.0878649967963838
20
-117.38309787843271
10
-21.912135003203591
20
-117.38309787843271
10
-21.912135003203591
20
-53.383097878432721
10
6.0878649967963838
20
-53.383097878432721
0
LWPOLYLINE
5
115
100
AcDbEntity
8
0
100
AcDbPolyline
90
4
70
1
43
0.0
10
10.310087219018627
20
-117.38309787843271
10
10.310087219018627
20
-53.383097878432721
10
38.310087219018605
20
-53.383097878432721
10
38.310087219018605
20
-117.38309787843271
0
LINE
5
116
100
AcDbEntity
8
0
100
AcDbLine
10
-63.708094029805544
20
-2.0686999999999323
30
0
11
-74.704274993540864
21
-2.0686999999999323
31
0
0
LWPOLYLINE
5
117
100
AcDbEntity
8
0
100
AcDbPolyline
90
40
70
1
43
0.0
10
-56.931300000000071
20
-2.0686999999999323
10
-56.431300000000064
20
-2.0686999999999323
10
-56.431300000000064
20
32.931300000000064
10
-51.431300000000064
20
32.931300000000064
10
-51.431300000000064
20
-2.0686999999999323
10
-50.931300000000093
20
-2.0686999999999323
10
-24.931300000000093
20
-2.0686999999999323
10
-24.431300000000071
20
-2.0686999999999323
10
-24.431300000000071
20
32.931300000000064
10
-19.431300000000075
20
32.931300000000064
10
-19.431300000000075
20
-2.0686999999999323
10
-18.931300000000046
20
-2.0686999999999323
10
7.0686999999999056
20
-2.0686999999999323
10
7.5686999999999216
20
-2.0686999999999323
10
7.5686999999999216
20
32.931300000000064
10
12.568699999999922
20
32.931300000000064
10
12.568699999999922
20
-2.0686999999999323
10
13.068699999999929
20
-2.0686999999999323
10
39.0686999999999
20
-2.0686999999999323
10
39.568699999999922
20
-2.0686999999999323
10
39.568699999999922
20
32.931300000000064
10
44.568699999999922
20
32.931300000000064
10
44.568699999999922
20
-2.0686999999999323
10
45.068699999999922
20
-2.0686999999999323
10
71.068699999999893
20
-2.0686999999999323
10
71.568699999999907
20
-2.0686999999999323
10
71.568699999999907
20
32.931300000000064
10
76.568699999999907
20
32.931300000000064
10
76.568699999999907
20
-31.068699999999936
10
71.568699999999907
20
-31.068699999999936
10
71.568699999999907
20
-8.0686999999999287
10
71.568699999999907
20
-7.0686999999999331
10
-83.431300000000093
20
-7.0686999999999331
10
-83.431300000000093
20
-8.0686999999999323
10
-83.431300000000093
20
-31.068699999999936
10
-88.431300000000093
20
-31.068699999999936
10
-88.431300000000093
20
32.931300000000064
10
-83.431300000000093
20
32.931300000000064
10
-83.431300000000093
20
-2.0686999999999323
10
-82.931300000000064
20
-2.0686999999999323
0
LWPOLYLINE
5
118
100
AcDbEntity
8
0
100
AcDbPolyline
90
20
70
1
43
0.0
10
190
20
-119
10
190
20
-95.362049999999968
10
184.00000000000003
20
-95.362049999999968
10
184.00000000000003
20
-67.637949999999989
10
190
20
-67.637949999999989
10
190
20
-43.999999999999993
10
163.86205000000001
20
-43.999999999999993
10
163.86205000000001
20
-50
10
136.13794999999999
20
-50
10
136.13794999999999
20
-43.999999999999993
10
110
20
-43.999999999999993
10
110
20
-67.637949999999989
10
116.00000000000001
20
-67.637949999999989
10
116.00000000000001
20
-95.362049999999968
10
110
20
-95.362049999999968
10
110
20
-119
10
136.13794999999999
20
-119
10
136.13794999999999
20
-112.99999999999997
10
163.86205000000001
20
-112.99999999999997
10
163.86205000000001
20
-119
0
LWPOLYLINE
5
119
100
AcDbEntity
8
0
100
AcDbPolyline
90
4
70
1
43
0.0
10
140
20
-71.999999999999929
10
160
20
-71.999999999999929
10
160.00000149011612
20
-77.000001147389398
10
140
20
-77.000001147389398
0
LWPOLYLINE
5
120
100
AcDbEntity
8
0
100
AcDbPolyline
90
20
70
1
43
0.0
10
275
20
-95.362049999999968
10
269
20
-95.362049999999968
10
269
20
-67.637949999999989
10
275
20
-67.637949999999989
10
275
20
-43.999999999999993
10
248.86205000000004
20
-43.999999999999993
10
248.86205000000004
20
-50
10
221.13794999999999
20
-50
10
221.13794999999999
20
-43.999999999999993
10
195
20
-43.999999999999993
10
195
20
-67.637949999999989
10
201
20
-67.637949999999989
10
201
20
-95.362049999999968
10
195
20
-95.362049999999968
10
195
20
-119
10
221.13794999999999
20
-119
10
221.13794999999999
20
-112.99999999999997
10
248.86205000000004
20
-112.99999999999997
10
248.86205000000004
20
-119
10
275
20
-119
0
LWPOLYLINE
5
121
100
AcDbEntity
8
0
100
AcDbPolyline
90
4
70
1
43
0.0
10
245
20
-71.999999999999929
10
245.00000149011612
20
-77.000001147389398
10
225
20
-77.000001147389398
10
225
20
-71.999999999999929
0
LWPOLYLINE
5
122
100
AcDbEntity
8
0
100
AcDbPolyline
90
4
70
1
43
0.0
10
-211.43130000000011
20
-31.068699999999936
10
-216.43130000000011
20
-31.068699999999936
10
-216.43130000000011
20
32.931300000000064
10
-211.43130000000011
20
32.931300000000064
0
LWPOLYLINE
5
123
100
AcDbEntity
8
0
100
AcDbPolyline
90
4
70
1
43
0.0
10
-184.43130000000008
20
-31.068699999999936
10
-184.43130000000008
20
32.931300000000064
10
-179.43130000000011
20
32.931300000000064
10
-179.43130000000011
20
-31.068699999999936
0
LWPOLYLINE
5
124
100
AcDbEntity
8
0
100
AcDbPolyline
90
4
70
1
43
0.0
10
-147.43130000000011
20
32.931300000000064
10
-147.43130000000011
20
-31.068699999999936
10
-152.43130000000011
20
-31.068699999999936
10
-152.43130000000011
20
32.931300000000064
0
LWPOLYLINE
5
125
100
AcDbEntity
8
0
100
AcDbPolyline
90
4
70
1
43
0.0
10
-120.43130000000008
20
32.931300000000064
10
-115.43130000000008
20
32.931300000000064
10
-115.43130000000008
20
-31.068699999999936
10
-120.43130000000008
20
-31.068699999999936
0
LWPOLYLINE
5
126
100
AcDbEntity
8
0
100
AcDbPolyline
90
4
70
1
43
0.0
10
108.56869999999994
20
-31.068699999999936
10
103.56869999999994
20
-31.068699999999936
10
103.56869999999994
20
32.931300000000064
10
108.56869999999994
20
32.931300000000064
0
LWPOLYLINE
5
127
100
AcDbEntity
8
0
100
AcDbPolyline
90
4
70
1
43
0.0
10
135.56869999999998
20
-31.068699999999936
10
135.56869999999998
20
32.931300000000064
10
140.56869999999998
20
32.931300000000064
10
140.56869999999998
20
-31.068699999999936
0
LWPOLYLINE
5
128
100
AcDbEntity
8
0
100
AcDbPolyline
90
4
70
1
43
0.0
10
167.56869999999989
20
-31.068699999999936
10
167.56869999999989
20
32.931300000000064
10
172.56869999999992
20
32.931300000000064
10
172.56869999999992
20
-31.068699999999936
0
LWPOLYLINE
5
129
100
AcDbEntity
8
0
100
AcDbPolyline
90
4
70
1
43
0.0
10
199.56869999999995
20
32.931300000000064
10
204.56869999999995
20
32.931300000000064
10
204.56869999999995
20
-31.068699999999936
10
199.56869999999995
20
-31.068699999999936
0
LWPOLYLINE
5
130
100
AcDbEntity
8
0
100
AcDbPolyline
90
4
70
1
43
0.0
10
236.56869999999995
20
-31.068699999999936
10
231.56869999999995
20
-31.068699999999936
10
231.56869999999995
20
32.931300000000064
10
236.56869999999995
20
32.931300000000064
0
LWPOLYLINE
5
131
100
AcDbEntity
8
0
100
AcDbPolyline
90
4
70
1
43
0.0
10
-259.43130000000014
20
2.9313000000000682
10
-264.43130000000014
20
2.9313000000000682
10
-264.43130000000014
20
32.931300000000064
10
-259.43130000000014
20
32.931300000000064
0
LWPOLYLINE
5
132
100
AcDbEntity
8
0
100
AcDbPolyline
90
4
70
1
43
0.0
10
-227.43130000000011
20
32.931300000000064
10
-227.43130000000011
20
2.9313000000000677
10
-232.43130000000011
20
2.9313000000000682
10
-232.43130000000011
20
32.931300000000064
0
LWPOLYLINE
5
133
100
AcDbEntity
8
0
100
AcDbPolyline
90
4
70
1
43
0.0
10
-195.43130000000014
20
32.931300000000064
10
-195.43130000000014
20
2.9313000000000677
10
-200.43130000000014
20
2.9313000000000682
10
-200.43130000000014
20
32.931300000000064
0
LWPOLYLINE
5
134
100
AcDbEntity
8
0
100
AcDbPolyline
90
4
70
1
43
0.0
10
-163.43130000000014
20
32.931300000000064
10
-163.43130000000014
20
2.9313000000000677
10
-168.43130000000014
20
2.9313000000000682
10
-168.43130000000014
20
32.931300000000064
0
LWPOLYLINE
5
135
100
AcDbEntity
8
0
100
AcDbPolyline
90
4
70
1
43
0.0
10
-136.43130000000014
20
2.9313000000000682
10
-136.43130000000014
20
32.931300000000064
10
-131.43130000000014
20
32.931300000000064
10
-131.43130000000014
20
2.9313000000000682
0
LWPOLYLINE
5
136
100
AcDbEntity
8
0
100
AcDbPolyline
90
4
70
1
43
0.0
10
-99.431300000000135
20
2.9313000000000682
10
-104.43130000000014
20
2.9313000000000682
10
-104.43130000000014
20
32.931300000000064
10
-99.431300000000135
20
32.931300000000064
0
LWPOLYLINE
5
137
100
AcDbEntity
8
0
100
AcDbPolyline
90
4
70
1
43
0.0
10
-72.431300000000093
20
32.931300000000064
10
-67.431300000000107
20
32.931300000000064
10
-67.431300000000107
20
2.9313000000000677
10
-72.431300000000093
20
2.9313000000000682
0
LWPOLYLINE
5
138
100
AcDbEntity
8
0
100
AcDbPolyline
90
4
70
1
43
0.0
10
-35.431300000000121
20
2.9313000000000682
10
-40.431300000000121
20
2.9313000000000682
10
-40.431300000000121
20
32.931300000000064
10
-35.431300000000121
20
32.931300000000064
0
LWPOLYLINE
5
139
100
AcDbEntity
8
0
100
AcDbPolyline
90
4
70
1
43
0.0
10
-3.4313000000001281
20
2.9313000000000682
10
-8.4313000000001281
20
2.9313000000000682
10
-8.4313000000001281
20
32.931300000000064
10
-3.4313000000001281
20
32.931300000000064
0
LWPOLYLINE
5
140
100
AcDbEntity
8
0
100
AcDbPolyline
90
4
70
1
43
0.0
10
28.568699999999865
20
32.931300000000064
10
28.568699999999865
20
2.9313000000000677
10
23.568699999999861
20
2.9313000000000682
10
23.568699999999861
20
32.931300000000064
0
LWPOLYLINE
5
141
100
AcDbEntity
8
0
100
AcDbPolyline
90
4
70
1
43
0.0
10
60.568699999999858
20
32.931300000000064
10
60.568699999999858
20
2.9313000000000677
10
55.568699999999858
20
2.9313000000000682
10
55.568699999999858
20
32.931300000000064
0
LWPOLYLINE
5
142
100
AcDbEntity
8
0
100
AcDbPolyline
90
4
70
1
43
0.0
10
87.568699999999893
20
32.931300000000064
10
92.568699999999865
20
32.931300000000064
10
92.568699999999865
20
2.9313000000000677
10
87.568699999999893
20
2.9313000000000682
0
LWPOLYLINE
5
143
100
AcDbEntity
8
0
100
AcDbPolyline
90
4
70
1
43
0.0
10
119.56869999999994
20
32.931300000000064
10
124.56869999999994
20
32.931300000000064
10
124.56869999999994
20
2.9313000000000682
10
119.56869999999994
20
2.9313000000000682
0
LWPOLYLINE
5
144
100
AcDbEntity
8
0
100
AcDbPolyline
90
4
70
1
43
0.0
10
156.56869999999986
20
2.9313000000000682
10
151.56869999999986
20
2.9313000000000682
10
151.56869999999986
20
32.931300000000064
10
156.56869999999986
20
32.931300000000064
0
LWPOLYLINE
5
145
100
AcDbEntity
8
0
100
AcDbPolyline
90
4
70
1
43
0.0
10
188.56869999999989
20
2.9313000000000682
10
183.56869999999989
20
2.9313000000000682
10
183.56869999999989
20
32.931300000000064
10
188.56869999999989
20
32.931300000000064
0
LWPOLYLINE
5
146
100
AcDbEntity
8
0
100
AcDbPolyline
90
4
70
1
43
0.0
10
215.56869999999986
20
2.9313000000000682
10
215.56869999999986
20
32.931300000000064
10
220.56869999999986
20
32.931300000000064
10
220.56869999999986
20
2.9313000000000677
0
LWPOLYLINE
5
147
100
AcDbEntity
8
0
100
AcDbPolyline
90
4
70
1
43
0.0
10
247.56869999999992
20
2.9313000000000682
10
247.56869999999992
20
32.931300000000064
10
252.56869999999992
20
32.931300000000064
10
252.56869999999992
20
2.9313000000000682
0
LWPOLYLINE
5
148
100
AcDbEntity
8
0
100
AcDbPolyline
90
4
70
1
43
0.0
10
103.3100872190186
20
-117.38309787843271
10
75.310087219018627
20
-117.38309787843271
10
75.310087219018627
20
-53.383097878432721
10
103.3100872190186
20
-53.383097878432721
0
LWPOLYLINE
5
149
100
AcDbEntity
8
0
100
AcDbPolyline
90
4
70
1
43
0.0
10
43.087864996796405
20
-117.38309787843271
10
43.087864996796405
20
-53.383097878432721
10
71.087864996796384
20
-53.383097878432721
10
71.087864996796384
20
-117.38309787843271
0
LWPOLYLINE
5
150
100
AcDbEntity
8
0
100
AcDbPolyline
90
4
70
1
43
0.0
10
12.035425426298758
20
-150.78248028246691
10
-142.96457457370124
20
-150.78248028246691
10
-142.96457457370124
20
-122.78248028246693
10
12.035425426298758
20
-122.78248028246693
0
CIRCLE
5
151
100
AcDbEntity
8
0
100
AcDbCircle
10
-10.931300000000093
20
-19.068699999999936
30
0
40
6.5
210
0
220
0
230
1
0
CIRCLE
5
152
100
AcDbEntity
8
0
100
AcDbCircle
10
150
20
-95
30
0
40
4.5000000000000062
210
0
220
0
230
1
0
CIRCLE
5
153
100
AcDbEntity
8
0
100
AcDbCircle
10
51.169565441540982
20
-19.068699999999936
30
0
40
2.5
210
0
220
0
230
1
0
ENDSEC
0
SECTION
2
OBJECTS
0
DICTIONARY
5
C
100
AcDbDictionary
3
ACAD_GROUP
350
D
3
ACAD_MLINESTYLE
350
17
0
DICTIONARY
5
D
100
AcDbDictionary
0
DICTIONARY
5
1A
330
C
100
AcDbDictionary
0
DICTIONARY
5
17
100
AcDbDictionary
0
ENDSEC
0
EOF
