0
SECTION
2
HEADER
9
$INSUNITS
70
4
9
$ACADVER
1
AC1014
9
$HANDSEED
5
FFFF
0
ENDSEC
0
SECTION
2
TABLES
0
TABLE
2
VPORT
5
8
100
AcDbSymbolTable
0
ENDTAB
0
TABLE
2
LTYPE
5
5
100
AcDbSymbolTable
0
LTYPE
5
14
100
AcDbSymbolTableRecord
100
AcDbLinetypeTableRecord
2
BYBLOCK
70
0
0
LTYPE
5
15
100
AcDbSymbolTableRecord
100
AcDbLinetypeTableRecord
2
BYLAYER
70
0
0
ENDTAB
0
TABLE
2
LAYER
5
2
100
AcDbSymbolTable
70
2
0
LAYER
5
50
100
AcDbSymbolTableRecord
100
AcDbLayerTableRecord
2
0
70
0
6
CONTINUOUS
0
ENDTAB
0
TABLE
2
STYLE
5
3
100
AcDbSymbolTable
70
1
0
STYLE
5
11
100
AcDbSymbolTableRecord
100
AcDbTextStyleTableRecord
2
STANDARD
70
0
0
ENDTAB
0
TABLE
2
VIEW
5
6
100
AcDbSymbolTable
70
0
0
ENDTAB
0
TABLE
2
UCS
5
7
100
AcDbSymbolTable
70
0
0
ENDTAB
0
TABLE
2
APPID
5
9
100
AcDbSymbolTable
70
2
0
APPID
5
12
100
AcDbSymbolTableRecord
100
AcDbRegAppTableRecord
2
ACAD
70
0
0
ENDTAB
0
TABLE
2
DIMSTYLE
5
A
100
AcDbSymbolTable
70
1
0
ENDTAB
0
TABLE
2
BLOCK_RECORD
5
1
100
AcDbSymbolTable
70
1
0
BLOCK_RECORD
5
1F
100
AcDbSymbolTableRecord
100
AcDbBlockTableRecord
2
*MODEL_SPACE
0
BLOCK_RECORD
5
1B
100
AcDbSymbolTableRecord
100
AcDbBlockTableRecord
2
*PAPER_SPACE
0
ENDTAB
0
ENDSEC
0
SECTION
2
BLOCKS
0
BLOCK
5
20
100
AcDbEntity
100
AcDbBlockBegin
2
*MODEL_SPACE
0
ENDBLK
5
21
100
AcDbEntity
100
AcDbBlockEnd
0
BLOCK
5
1C
100
AcDbEntity
100
AcDbBlockBegin
2
*PAPER_SPACE
0
ENDBLK
5
1D
100
AcDbEntity
100
AcDbBlockEnd
0
ENDSEC
0
SECTION
2
ENTITIES
0
LWPOLYLINE
5
100
100
AcDbEntity
8
0
100
AcDbPolyline
90
20
70
1
43
0.0
10
-350
20
18.000000000000007
10
-350
20
-5.6379499999999894
10
-347
20
-5.6379499999999894
10
-347
20
-33.362049999999996
10
-350
20
-33.362049999999996
10
-350
20
-56.999999999999993
10
-323.86204999999995
20
-56.999999999999993
10
-323.86204999999995
20
-53.999999999999986
10
-296.13794999999993
20
-53.999999999999986
10
-296.13794999999999
20
-56.999999999999993
10
-270
20
-56.999999999999993
10
-270
20
-33.362049999999996
10
-273
20
-33.362049999999996
10
-273
20
-5.6379499999999894
10
-270
20
-5.6379499999999894
10
-270
20
18.000000000000007
10
-296.13794999999999
20
18.000000000000007
10
-296.13794999999999
20
15
10
-323.86204999999995
20
15
10
-323.86204999999995
20
18.000000000000007
0
LWPOLYLINE
5
101
100
AcDbEntity
8
0
100
AcDbPolyline
90
84
70
1
43
0.0
10
-254
20
18.000000000000007
10
-254
20
-5.6379499999999894
10
-256.99999999999994
20
-5.6379499999999894
10
-257
20
-33.362049999999996
10
-254
20
-33.362049999999996
10
-254
20
-56.999999999999993
10
-217.65484999999998
20
-56.999999999999993
10
-217.65484999999998
20
-53.999999999999986
10
-189.93074999999999
20
-53.999999999999986
10
-189.93074999999999
20
-56.999999999999993
10
-162.20665
20
-56.999999999999993
10
-162.20665
20
-53.999999999999986
10
-134.48255
20
-53.999999999999986
10
-134.48255
20
-56.999999999999993
10
-106.75844999999998
20
-56.999999999999993
10
-106.75844999999998
20
-53.999999999999986
10
-79.034350000000018
20
-53.999999999999986
10
-79.034350000000018
20
-56.999999999999993
10
-51.310249999999975
20
-56.999999999999993
10
-51.310249999999975
20
-53.999999999999986
10
-23.586149999999968
20
-53.999999999999986
10
-23.586149999999968
20
-56.999999999999993
10
4.1379500000000036
20
-56.999999999999993
10
4.1379500000000036
20
-53.999999999999986
10
31.862050000000011
20
-53.999999999999986
10
31.862050000000011
20
-56.999999999999993
10
59.586150000000018
20
-56.999999999999993
10
59.586150000000018
20
-53.999999999999986
10
87.310250000000025
20
-53.999999999999986
10
87.310250000000025
20
-56.999999999999993
10
115.03435000000003
20
-56.999999999999993
10
115.03435000000003
20
-53.999999999999986
10
142.75845000000004
20
-53.999999999999986
10
142.75845000000004
20
-56.999999999999993
10
170.48255000000006
20
-56.999999999999993
10
170.48255000000006
20
-53.999999999999986
10
198.20664999999997
20
-53.999999999999986
10
198.20664999999997
20
-56.999999999999993
10
225.93074999999999
20
-56.999999999999993
10
225.93074999999999
20
-53.999999999999986
10
253.65485000000007
20
-53.999999999999986
10
253.65485000000007
20
-56.999999999999993
10
290
20
-56.999999999999993
10
290
20
-33.362049999999996
10
293.00000000000006
20
-33.362049999999996
10
293.00000000000006
20
-5.6379499999999894
10
290
20
-5.6379499999999894
10
290
20
18.000000000000007
10
253.65485000000007
20
18.000000000000007
10
253.65485000000007
20
15
10
225.93074999999999
20
15
10
225.93074999999999
20
18.000000000000007
10
198.20664999999997
20
18.000000000000007
10
198.20664999999997
20
15
10
170.48255000000006
20
15
10
170.48255000000006
20
18.000000000000007
10
142.75845000000004
20
18.000000000000007
10
142.75845000000004
20
15
10
115.03435000000003
20
15
10
115.03435000000003
20
18.000000000000007
10
87.310250000000025
20
18.000000000000007
10
87.310250000000025
20
15
10
59.586150000000018
20
15
10
59.586150000000018
20
18.000000000000007
10
31.862050000000011
20
18.000000000000007
10
31.862050000000011
20
15
10
4.1379500000000036
20
15
10
4.1379500000000036
20
18.000000000000007
10
-23.586149999999968
20
18.000000000000007
10
-23.586149999999968
20
15
10
-51.310249999999975
20
15
10
-51.310249999999975
20
18.000000000000007
10
-79.034350000000018
20
18.000000000000007
10
-79.034350000000018
20
15
10
-106.75844999999998
20
15
10
-106.75844999999998
20
18.000000000000007
10
-134.48255
20
18.000000000000007
10
-134.48255
20
15
10
-162.20665
20
15
10
-162.20665
20
18.000000000000007
10
-189.93074999999999
20
18.000000000000007
10
-189.93074999999999
20
15
10
-217.65484999999998
20
15
10
-217.65484999999998
20
18.000000000000007
0
LWPOLYLINE
5
102
100
AcDbEntity
8
0
100
AcDbPolyline
90
84
70
1
43
0.0
10
-341.00000000000017
20
-144.00000000000006
10
-304.65485000000018
20
-144.00000000000006
10
-304.65485000000018
20
-147.00000000000003
10
-276.9307500000001
20
-147.00000000000003
10
-276.9307500000001
20
-144.00000000000006
10
-249.20665000000017
20
-144.00000000000006
10
-249.20665000000017
20
-147.00000000000003
10
-221.48255000000017
20
-147.00000000000003
10
-221.48255000000017
20
-144.00000000000006
10
-193.75845000000012
20
-144.00000000000006
10
-193.75845000000012
20
-147.00000000000003
10
-166.03435000000013
20
-147.00000000000003
10
-166.03435000000013
20
-144.00000000000006
10
-138.31025000000011
20
-144.00000000000006
10
-138.31025000000011
20
-147.00000000000003
10
-110.58615000000006
20
-147.00000000000003
10
-110.58615000000006
20
-144.00000000000006
10
-82.862050000000096
20
-144.00000000000006
10
-82.862050000000096
20
-147.00000000000003
10
-55.137950000000075
20
-147.00000000000003
10
-55.137950000000075
20
-144.00000000000006
10
-27.413850000000046
20
-144.00000000000006
10
-27.413850000000046
20
-147.00000000000003
10
0.31024999999990754
20
-147.00000000000003
10
0.31024999999990754
20
-143.99999999999991
10
28.034349999999915
20
-143.99999999999991
10
28.034349999999915
20
-147.00000000000003
10
55.758449999999975
20
-147.00000000000003
10
55.758449999999975
20
-143.99999999999991
10
83.482549999999947
20
-143.99999999999991
10
83.482549999999947
20
-147.00000000000003
10
111.20664999999991
20
-147.00000000000003
10
111.20664999999991
20
-143.99999999999991
10
138.93074999999993
20
-143.99999999999991
10
138.93074999999996
20
-147.00000000000003
10
166.65485000000001
20
-147.00000000000003
10
166.65484999999995
20
-143.99999999999991
10
202.99999999999994
20
-143.99999999999991
10
202.99999999999994
20
-120.86205
10
205.99999999999997
20
-120.86205
10
205.99999999999997
20
-93.13795000000006
10
202.99999999999994
20
-93.13795000000006
10
202.99999999999994
20
-70.000000000000071
10
166.65484999999995
20
-70.000000000000071
10
166.65484999999995
20
-66.999999999999957
10
138.93074999999993
20
-66.999999999999957
10
138.93074999999996
20
-70.000000000000071
10
111.20664999999995
20
-70.000000000000071
10
111.20664999999991
20
-66.999999999999957
10
83.482549999999918
20
-66.999999999999957
10
83.482549999999947
20
-70.000000000000071
10
55.758449999999939
20
-70.000000000000142
10
55.758449999999939
20
-67.000000000000028
10
28.034349999999897
20
-67.000000000000028
10
28.034349999999897
20
-70.000000000000142
10
0.31024999999988978
20
-70.000000000000142
10
0.31024999999988978
20
-67.000000000000028
10
-27.413850000000082
20
-67.000000000000028
10
-27.413850000000082
20
-70.000000000000142
10
-55.137950000000089
20
-70.000000000000142
10
-55.137950000000089
20
-67.000000000000028
10
-82.862050000000096
20
-67.000000000000028
10
-82.862050000000096
20
-70.000000000000142
10
-110.58615000000009
20
-70.000000000000142
10
-110.58615000000009
20
-67.000000000000028
10
-138.31025000000014
20
-67.000000000000028
10
-138.31025000000014
20
-70.000000000000142
10
-166.03435000000016
20
-70.000000000000142
10
-166.03435000000016
20
-67.000000000000028
10
-193.75845000000015
20
-67.000000000000028
10
-193.75845000000015
20
-70.000000000000142
10
-221.4825500000002
20
-70.000000000000142
10
-221.4825500000002
20
-67.000000000000028
10
-249.2066500000002
20
-67.000000000000028
10
-249.2066500000002
20
-70.000000000000142
10
-276.9307500000001
20
-70.000000000000213
10
-276.9307500000001
20
-67.000000000000099
10
-304.65485000000018
20
-67.000000000000099
10
-304.65485000000018
20
-70.000000000000213
10
-341.00000000000017
20
-70.000000000000213
10
-341.00000000000017
20
-93.137950000000203
10
-344.00000000000023
20
-93.137950000000203
10
-344.00000000000023
20
-120.86205000000014
10
-341.00000000000017
20
-120.86205000000014
0
LWPOLYLINE
5
103
100
AcDbEntity
8
0
100
AcDbPolyline
90
20
70
1
43
0.0
10
-350
20
106.00000000000001
10
-350
20
82.362050000000011
10
-347
20
82.362050000000011
10
-347
20
54.637950000000011
10
-350
20
54.637950000000011
10
-350
20
31.000000000000014
10
-323.86204999999995
20
31.000000000000014
10
-323.86204999999995
20
34.000000000000021
10
-296.13794999999993
20
33.999999999999986
10
-296.13794999999999
20
30.999999999999979
10
-270
20
31.000000000000014
10
-270
20
54.637950000000046
10
-273
20
54.637950000000011
10
-273
20
82.362050000000011
10
-270
20
82.362050000000011
10
-270
20
106.00000000000001
10
-296.13794999999999
20
106.00000000000001
10
-296.13794999999999
20
103
10
-323.86204999999995
20
103
10
-323.86204999999995
20
106.00000000000001
0
LWPOLYLINE
5
104
100
AcDbEntity
8
0
100
AcDbPolyline
90
84
70
1
43
0.0
10
-254
20
106.00000000000001
10
-254
20
82.362050000000011
10
-256.99999999999994
20
82.362050000000011
10
-257
20
54.637950000000011
10
-254
20
54.637950000000011
10
-254
20
31.000000000000014
10
-217.65484999999998
20
31.000000000000014
10
-217.65484999999998
20
34.000000000000021
10
-189.93074999999999
20
33.999999999999986
10
-189.93074999999999
20
30.999999999999979
10
-162.20665
20
31.000000000000014
10
-162.20665
20
34.000000000000021
10
-134.48255
20
33.999999999999986
10
-134.48255
20
30.999999999999979
10
-106.75844999999998
20
31.000000000000014
10
-106.75844999999998
20
34.000000000000021
10
-79.034350000000018
20
33.999999999999986
10
-79.034350000000018
20
30.999999999999979
10
-51.310249999999975
20
31.000000000000014
10
-51.310249999999975
20
34.000000000000021
10
-23.586149999999968
20
33.999999999999986
10
-23.586149999999968
20
30.999999999999979
10
4.1379500000000036
20
31.000000000000014
10
4.1379500000000036
20
34.000000000000021
10
31.862050000000011
20
33.999999999999986
10
31.862050000000011
20
30.999999999999979
10
59.586150000000018
20
31.000000000000014
10
59.586150000000018
20
34.000000000000021
10
87.310250000000025
20
33.999999999999986
10
87.310250000000025
20
30.999999999999979
10
115.03435000000003
20
31.000000000000014
10
115.03435000000003
20
34.000000000000021
10
142.75845000000004
20
33.999999999999986
10
142.75845000000004
20
30.999999999999979
10
170.48255000000006
20
31.000000000000014
10
170.48255000000006
20
34.000000000000021
10
198.20664999999997
20
33.999999999999986
10
198.20664999999997
20
30.999999999999979
10
225.93074999999999
20
31.000000000000014
10
225.93074999999999
20
34.000000000000021
10
253.65485000000007
20
33.999999999999986
10
253.65485000000007
20
30.999999999999979
10
290
20
31.000000000000014
10
290
20
54.637950000000046
10
293.00000000000006
20
54.637950000000011
10
293.00000000000006
20
82.362050000000011
10
290
20
82.362050000000011
10
290
20
106.00000000000001
10
253.65485000000007
20
106.00000000000001
10
253.65485000000007
20
103
10
225.93074999999999
20
103
10
225.93074999999999
20
106.00000000000001
10
198.20664999999997
20
106.00000000000001
10
198.20664999999997
20
103
10
170.48255000000006
20
103
10
170.48255000000006
20
106.00000000000001
10
142.75845000000004
20
106.00000000000001
10
142.75845000000004
20
103
10
115.03435000000003
20
103
10
115.03435000000003
20
106.00000000000001
10
87.310250000000025
20
106.00000000000001
10
87.310250000000025
20
103
10
59.586150000000018
20
103
10
59.586150000000018
20
106.00000000000001
10
31.862050000000011
20
106.00000000000001
10
31.862050000000011
20
103
10
4.1379500000000036
20
103
10
4.1379500000000036
20
106.00000000000001
10
-23.586149999999968
20
106.00000000000001
10
-23.586149999999968
20
103
10
-51.310249999999975
20
103
10
-51.310249999999975
20
106.00000000000001
10
-79.034350000000018
20
106.00000000000001
10
-79.034350000000018
20
103
10
-106.75844999999998
20
103
10
-106.75844999999998
20
106.00000000000001
10
-134.48255
20
106.00000000000001
10
-134.48255
20
103
10
-162.20665
20
103
10
-162.20665
20
106.00000000000001
10
-189.93074999999999
20
106.00000000000001
10
-189.93074999999999
20
103
10
-217.65484999999998
20
103
10
-217.65484999999998
20
106.00000000000001
0
LWPOLYLINE
5
105
100
AcDbEntity
8
0
100
AcDbPolyline
90
84
70
1
43
0.0
10
215.43102499999989
20
-158.56897499999997
10
179.08587499999967
20
-158.56897499999997
10
179.08587499999967
20
-155.56897499999985
10
151.36177499999988
20
-155.56897499999985
10
151.36177499999988
20
-158.56897499999997
10
123.6376749999998
20
-158.56897499999988
10
123.6376749999998
20
-155.56897499999985
10
95.913574999999724
20
-155.56897499999985
10
95.913574999999724
20
-158.56897499999988
10
68.189474999999931
20
-158.56897499999988
10
68.189474999999931
20
-155.56897499999985
10
40.46537499999971
20
-155.56897499999985
10
40.46537499999971
20
-158.56897499999988
10
12.741274999999632
20
-158.56897499999988
10
12.741274999999632
20
-155.56897499999985
10
-14.982825000000162
20
-155.56897499999985
10
-14.982825000000162
20
-158.56897499999988
10
-42.706925000000311
20
-158.5689749999998
10
-42.706925000000311
20
-155.56897499999985
10
-70.431025000000247
20
-155.56897499999985
10
-70.431025000000247
20
-158.5689749999998
10
-98.155125000000183
20
-158.5689749999998
10
-98.155125000000183
20
-155.56897499999985
10
-125.87922500000033
20
-155.56897499999985
10
-125.87922500000033
20
-158.5689749999998
10
-153.60332500000041
20
-158.5689749999998
10
-153.60332500000041
20
-155.56897499999985
10
-181.32742500000035
20
-155.56897499999985
10
-181.32742500000035
20
-158.5689749999998
10
-209.05152500000028
20
-158.5689749999998
10
-209.05152500000028
20
-155.56897499999977
10
-236.77562500000036
20
-155.56897499999977
10
-236.77562500000036
20
-158.5689749999998
10
-264.4997250000003
20
-158.5689749999998
10
-264.4997250000003
20
-155.56897499999977
10
-292.22382500000037
20
-155.56897499999977
10
-292.22382500000037
20
-158.5689749999998
10
-328.56897500000031
20
-158.5689749999998
10
-328.56897500000031
20
-181.70692499999979
10
-331.56897500000036
20
-181.70692499999979
10
-331.56897500000036
20
-209.43102499999975
10
-328.56897500000031
20
-209.43102499999975
10
-328.56897500000031
20
-232.56897499999974
10
-292.22382500000037
20
-232.56897499999974
10
-292.22382500000037
20
-235.56897499999985
10
-264.4997250000003
20
-235.56897499999985
10
-264.4997250000003
20
-232.56897499999974
10
-236.77562500000036
20
-232.56897499999974
10
-236.77562500000036
20
-235.56897499999985
10
-209.05152500000028
20
-235.56897499999985
10
-209.05152500000028
20
-232.56897499999974
10
-181.32742500000035
20
-232.56897499999974
10
-181.32742500000035
20
-235.56897499999985
10
-153.60332500000041
20
-235.56897499999985
10
-153.60332500000041
20
-232.56897499999974
10
-125.87922500000033
20
-232.56897499999974
10
-125.87922500000033
20
-235.56897499999985
10
-98.155125000000183
20
-235.56897499999991
10
-98.155125000000183
20
-232.5689749999998
10
-70.431025000000247
20
-232.5689749999998
10
-70.431025000000247
20
-235.56897499999991
10
-42.706925000000311
20
-235.56897499999991
10
-42.706925000000311
20
-232.5689749999998
10
-14.982825000000162
20
-232.5689749999998
10
-14.982825000000162
20
-235.56897499999991
10
12.741274999999632
20
-235.56897499999991
10
12.741274999999632
20
-232.5689749999998
10
40.46537499999971
20
-232.5689749999998
10
40.46537499999971
20
-235.56897499999991
10
68.189474999999788
20
-235.56897499999991
10
68.189474999999788
20
-232.5689749999998
10
95.913574999999582
20
-232.5689749999998
10
95.913574999999582
20
-235.56897499999991
10
123.63767499999966
20
-235.56897499999991
10
123.63767499999966
20
-232.5689749999998
10
151.36177499999974
20
-232.5689749999998
10
151.36177499999974
20
-235.56897499999991
10
179.08587499999953
20
-235.56897499999991
10
179.08587499999953
20
-232.5689749999998
10
215.43102499999975
20
-232.56897499999985
10
215.43102499999975
20
-209.43102499999986
10
218.43102499999972
20
-209.43102499999986
10
218.43102499999986
20
-181.70692499999996
10
215.43102499999989
20
-181.70692499999996
0
LWPOLYLINE
5
106
100
AcDbEntity
8
0
100
AcDbPolyline
90
4
70
1
43
0.0
10
-320.00000476837158
20
-10.000003725290298
10
-320.00000476837158
20
-15.000003799796104
10
-300.00000447034836
20
-15.000003799796104
10
-300.00000447034836
20
-10.000003725290298
0
LWPOLYLINE
5
107
100
AcDbEntity
8
0
100
AcDbPolyline
90
4
70
1
43
0.0
10
-320.00000476837158
20
77.999997437000275
10
-320.00000476837158
20
72.999997362494469
10
-300.00000447034836
20
72.999997362494469
10
-300.00000447034836
20
77.999997437000275
0
CIRCLE
5
108
100
AcDbEntity
8
0
100
AcDbCircle
10
-310
20
55
30
0
40
4.5000000000000062
210
0
220
0
230
1
0
LWPOLYLINE
5
109
100
AcDbEntity
8
0
100
AcDbPolyline
90
4
70
1
43
0.0
10
-327.50000000000011
20
-75.000004798173876
10
-322.50000000000011
20
-75.000004798173876
10
-322.50000000000011
20
-105.00000479817388
10
-327.50000000000011
20
-105.00000479817388
0
LWPOLYLINE
5
110
100
AcDbEntity
8
0
100
AcDbPolyline
90
4
70
1
43
0.0
10
-295.50000000000017
20
-105.00000479817388
10
-295.50000000000017
20
-75.000004798173876
10
-290.50000000000017
20
-75.000004798173876
10
-290.50000000000017
20
-105.00000479817388
0
LWPOLYLINE
5
111
100
AcDbEntity
8
0
100
AcDbPolyline
90
4
70
1
43
0.0
10
-263.50000000000017
20
-105.00000479817388
10
-263.50000000000017
20
-75.000004798173876
10
-258.50000000000017
20
-75.000004798173876
10
-258.50000000000017
20
-105.00000479817388
0
LWPOLYLINE
5
112
100
AcDbEntity
8
0
100
AcDbPolyline
90
4
70
1
43
0.0
10
-231.50000000000011
20
-105.00000479817388
10
-231.50000000000011
20
-75.000004798173876
10
-226.50000000000011
20
-75.000004798173876
10
-226.50000000000011
20
-105.00000479817388
0
LWPOLYLINE
5
113
100
AcDbEntity
8
0
100
AcDbPolyline
90
4
70
1
43
0.0
10
-199.50000000000014
20
-105.00000479817388
10
-199.50000000000014
20
-75.000004798173876
10
-194.50000000000014
20
-75.000004798173876
10
-194.50000000000014
20
-105.00000479817388
0
LWPOLYLINE
5
114
100
AcDbEntity
8
0
100
AcDbPolyline
90
4
70
1
43
0.0
10
-167.50000000000014
20
-105.00000479817388
10
-167.50000000000014
20
-75.000004798173876
10
-162.50000000000014
20
-75.000004798173876
10
-162.50000000000014
20
-105.00000479817388
0
LWPOLYLINE
5
115
100
AcDbEntity
8
0
100
AcDbPolyline
90
4
70
1
43
0.0
10
-135.50000000000011
20
-105.00000479817388
10
-135.50000000000011
20
-75.000004798173876
10
-130.50000000000011
20
-75.000004798173876
10
-130.50000000000011
20
-105.00000479817388
0
LWPOLYLINE
5
116
100
AcDbEntity
8
0
100
AcDbPolyline
90
4
70
1
43
0.0
10
-103.50000000000011
20
-105.00000479817388
10
-103.50000000000011
20
-75.000004798173876
10
-98.500000000000114
20
-75.000004798173876
10
-98.500000000000114
20
-105.00000479817388
0
LWPOLYLINE
5
117
100
AcDbEntity
8
0
100
AcDbPolyline
90
4
70
1
43
0.0
10
-71.500000000000128
20
-105.00000479817388
10
-71.500000000000128
20
-75.000004798173876
10
-66.500000000000128
20
-75.000004798173876
10
-66.500000000000128
20
-105.00000479817388
0
LWPOLYLINE
5
118
100
AcDbEntity
8
0
100
AcDbPolyline
90
4
70
1
43
0.0
10
-39.500000000000135
20
-105.00000479817388
10
-39.500000000000135
20
-75.000004798173876
10
-34.500000000000135
20
-75.000004798173876
10
-34.500000000000135
20
-105.00000479817388
0
LWPOLYLINE
5
119
100
AcDbEntity
8
0
100
AcDbPolyline
90
4
70
1
43
0.0
10
-7.5000000000001421
20
-105.00000479817388
10
-7.5000000000001421
20
-75.000004798173876
10
-2.5000000000001421
20
-75.000004798173876
10
-2.5000000000001421
20
-105.00000479817388
0
LWPOLYLINE
5
120
100
AcDbEntity
8
0
100
AcDbPolyline
90
4
70
1
43
0.0
10
24.499999999999886
20
-105.00000479817388
10
24.499999999999886
20
-75.000004798173876
10
29.499999999999886
20
-75.000004798173876
10
29.499999999999886
20
-105.00000479817388
0
LWPOLYLINE
5
121
100
AcDbEntity
8
0
100
AcDbPolyline
90
4
70
1
43
0.0
10
56.499999999999915
20
-105.00000479817388
10
56.499999999999915
20
-75.000004798173876
10
61.499999999999915
20
-75.000004798173876
10
61.499999999999915
20
-105.00000479817388
0
LWPOLYLINE
5
122
100
AcDbEntity
8
0
100
AcDbPolyline
90
4
70
1
43
0.0
10
88.499999999999872
20
-105.00000479817388
10
88.499999999999872
20
-75.000004798173876
10
93.499999999999872
20
-75.000004798173876
10
93.499999999999872
20
-105.00000479817388
0
LWPOLYLINE
5
123
100
AcDbEntity
8
0
100
AcDbPolyline
90
4
70
1
43
0.0
10
120.4999999999999
20
-105.00000479817388
10
120.4999999999999
20
-75.000004798173876
10
125.4999999999999
20
-75.000004798173876
10
125.4999999999999
20
-105.00000479817388
0
LWPOLYLINE
5
124
100
AcDbEntity
8
0
100
AcDbPolyline
90
4
70
1
43
0.0
10
152.49999999999986
20
-105.00000479817388
10
152.49999999999986
20
-75.000004798173876
10
157.49999999999986
20
-75.000004798173876
10
157.49999999999986
20
-105.00000479817388
0
LWPOLYLINE
5
125
100
AcDbEntity
8
0
100
AcDbPolyline
90
4
70
1
43
0.0
10
184.49999999999989
20
-105.00000479817388
10
184.49999999999989
20
-75.000004798173876
10
189.49999999999989
20
-75.000004798173876
10
189.49999999999989
20
-105.00000479817388
0
LWPOLYLINE
5
126
100
AcDbEntity
8
0
100
AcDbPolyline
90
4
70
1
43
0.0
10
-311.50000000000011
20
-75.000004798173876
10
-306.50000000000011
20
-75.000004798173876
10
-306.50000000000011
20
-139.00000479817385
10
-311.50000000000011
20
-139.00000479817385
0
LWPOLYLINE
5
127
100
AcDbEntity
8
0
100
AcDbPolyline
90
4
70
1
43
0.0
10
-279.50000000000011
20
-139.00000479817385
10
-279.50000000000011
20
-75.000004798173876
10
-274.50000000000011
20
-75.000004798173876
10
-274.50000000000011
20
-139.00000479817385
0
LWPOLYLINE
5
128
100
AcDbEntity
8
0
100
AcDbPolyline
90
4
70
1
43
0.0
10
-247.50000000000014
20
-139.00000479817385
10
-247.50000000000014
20
-75.000004798173876
10
-242.50000000000014
20
-75.000004798173876
10
-242.50000000000014
20
-139.00000479817385
0
LWPOLYLINE
5
129
100
AcDbEntity
8
0
100
AcDbPolyline
90
4
70
1
43
0.0
10
-215.50000000000011
20
-139.00000479817385
10
-215.50000000000011
20
-75.000004798173876
10
-210.50000000000011
20
-75.000004798173876
10
-210.50000000000011
20
-139.00000479817385
0
LWPOLYLINE
5
130
100
AcDbEntity
8
0
100
AcDbPolyline
90
4
70
1
43
0.0
10
-183.50000000000011
20
-139.00000479817385
10
-183.50000000000011
20
-75.000004798173876
10
-178.50000000000011
20
-75.000004798173876
10
-178.50000000000011
20
-139.00000479817385
0
LWPOLYLINE
5
131
100
AcDbEntity
8
0
100
AcDbPolyline
90
30
70
1
43
0.0
10
-151.50000000000011
20
-139.00000479817385
10
-151.50000000000011
20
-75.000004798173876
10
-146.50000000000011
20
-75.000004798173876
10
-146.50000000000011
20
-110.00000536441803
10
-141.00000210106373
20
-110.00000536441803
10
-119.5000000000001
20
-110.00000536441803
10
-119.5000000000001
20
-75.000004798173876
10
-114.5000000000001
20
-75.000004798173876
10
-114.5000000000001
20
-110.00000536441803
10
-87.500000000000114
20
-110.00000536441803
10
-87.500000000000114
20
-75.000004798173876
10
-82.500000000000114
20
-75.000004798173876
10
-82.500000000000114
20
-110.00000536441803
10
-55.500000000000114
20
-110.00000536441803
10
-55.500000000000114
20
-75.000004798173876
10
-50.500000000000114
20
-75.000004798173876
10
-50.500000000000114
20
-110.00000536441803
10
-23.500000000000124
20
-110.00000536441803
10
-23.500000000000121
20
-75.000004798173876
10
-18.500000000000121
20
-75.000004798173876
10
-18.500000000000121
20
-110.00000536441803
10
8.4999999999998721
20
-110.00000536441803
10
8.4999999999998721
20
-75.000004798173876
10
13.499999999999872
20
-75.000004798173876
10
13.499999999999872
20
-139.00000479817385
10
8.4999999999998721
20
-139.00000479817385
10
8.4999999999998721
20
-115.00000543892384
10
-142.00000211596489
20
-115.00000543892384
10
-146.50000000000011
20
-115.00000543892384
10
-146.50000000000011
20
-139.00000479817385
0
LWPOLYLINE
5
132
100
AcDbEntity
8
0
100
AcDbPolyline
90
4
70
1
43
0.0
10
40.499999999999901
20
-139.00000479817385
10
40.499999999999901
20
-75.000004798173876
10
45.499999999999901
20
-75.000004798173876
10
45.499999999999901
20
-139.00000479817385
0
LWPOLYLINE
5
133
100
AcDbEntity
8
0
100
AcDbPolyline
90
4
70
1
43
0.0
10
72.499999999999929
20
-139.00000479817385
10
72.499999999999929
20
-75.000004798173876
10
77.499999999999929
20
-75.000004798173876
10
77.499999999999929
20
-139.00000479817385
0
LWPOLYLINE
5
134
100
AcDbEntity
8
0
100
AcDbPolyline
90
4
70
1
43
0.0
10
104.49999999999989
20
-139.00000479817385
10
104.49999999999989
20
-75.000004798173876
10
109.49999999999989
20
-75.000004798173876
10
109.49999999999989
20
-139.00000479817385
0
LWPOLYLINE
5
135
100
AcDbEntity
8
0
100
AcDbPolyline
90
4
70
1
43
0.0
10
136.49999999999991
20
-139.00000479817385
10
136.49999999999991
20
-75.000004798173876
10
141.49999999999991
20
-75.000004798173876
10
141.49999999999991
20
-139.00000479817385
0
LWPOLYLINE
5
136
100
AcDbEntity
8
0
100
AcDbPolyline
90
4
70
1
43
0.0
10
168.49999999999989
20
-139.00000479817385
10
168.49999999999989
20
-75.000004798173876
10
173.49999999999989
20
-75.000004798173876
10
173.49999999999989
20
-139.00000479817385
0
LWPOLYLINE
5
137
100
AcDbEntity
8
0
100
AcDbPolyline
90
4
70
1
43
0.0
10
-231.00000344216824
20
78
10
-211.00000314414501
20
78
10
-211.00000314414501
20
72.999997362494469
10
-231.00000344216824
20
72.999997362494469
0
LWPOLYLINE
5
138
100
AcDbEntity
8
0
100
AcDbPolyline
90
4
70
1
43
0.0
10
-111.00000314414501
20
72.999997362494469
10
-91.000001356005669
20
72.999997362494469
10
-91.000001356005669
20
77.999997437000275
10
-111.00000314414501
20
77.999997437000275
0
LWPOLYLINE
5
139
100
AcDbEntity
8
0
100
AcDbPolyline
90
4
70
1
43
0.0
10
267
20
78
10
247.00000000000003
20
78
10
247.00000368058681
20
72.999997362494469
10
267
20
72.999997362494469
0
LWPOLYLINE
5
140
100
AcDbEntity
8
0
100
AcDbPolyline
90
4
70
1
43
0.0
10
147.00000000002711
20
77.999926388303109
10
127.00000000002711
20
77.999926388303109
10
127.00000000002711
20
72.999926388303109
10
147.00000000002711
20
72.999926388303109
0
LWPOLYLINE
5
141
100
AcDbEntity
8
0
100
AcDbPolyline
90
4
70
1
43
0.0
10
-231.00000344216824
20
-10
10
-211.00000314414501
20
-10
10
-211.00000314414501
20
-15.000002637505538
10
-231.00000344216824
20
-15.000002637505538
0
LWPOLYLINE
5
142
100
AcDbEntity
8
0
100
AcDbPolyline
90
4
70
1
43
0.0
10
-91.000001356005669
20
-10.000002562999732
10
-111.00000314414501
20
-10.000002562999732
10
-111.00000314414501
20
-15.000002637505538
10
-91.000001356005669
20
-15.000002637505538
0
LWPOLYLINE
5
143
100
AcDbEntity
8
0
100
AcDbPolyline
90
4
70
1
43
0.0
10
147.00000000002711
20
-10.000073611696898
10
127.00000000002711
20
-10.000073611696898
10
127.00000000002711
20
-15.000073611696898
10
147.00000000002711
20
-15.000073611696898
0
LWPOLYLINE
5
144
100
AcDbEntity
8
0
100
AcDbPolyline
90
4
70
1
43
0.0
10
267
20
-10
10
247.00000000000003
20
-10
10
247.00000368058681
20
-15.000002637505538
10
267
20
-15.000002637505538
0
CIRCLE
5
145
100
AcDbEntity
8
0
100
AcDbCircle
10
-10.000000149011612
20
-127
30
0
40
2.5
210
0
220
0
230
1
0
CIRCLE
5
146
100
AcDbEntity
8
0
100
AcDbCircle
10
-69.000000000000085
20
-127
30
0
40
6.2499999999999982
210
0
220
0
230
1
0
ENDSEC
0
SECTION
2
OBJECTS
0
DICTIONARY
5
C
100
AcDbDictionary
3
ACAD_GROUP
350
D
3
ACAD_MLINESTYLE
350
17
0
DICTIONARY
5
D
100
AcDbDictionary
0
DICTIONARY
5
1A
330
C
100
AcDbDictionary
0
DICTIONARY
5
17
100
AcDbDictionary
0
ENDSEC
0
EOF
